<svg xmlns="http://www.w3.org/2000/svg" viewBox="0 0 28.45 387.81"><title>資產 19</title><path d="M.32,273.86.2,271.05,0,268c.1-19.91.12-39.83.35-59.74.06-5.65.73-11.3,1.11-16.95,2.5.19,2.31,1.61,2.23,3.69-.31,7.36-1.77,14.74,1,22.05A13.48,13.48,0,0,1,3,229.47V217.8H2.07V269.6h1v-36A48.71,48.71,0,0,1,4.8,247c0,4.07-.61,8.14-.65,12.21,0,1.18,1,2.37,1.54,3.55l.47,15.15L7,277.8q0-12.6,0-25.2a57.74,57.74,0,0,0,1.3-6.82c.42-5.67.66-11.35.86-17a25.48,25.48,0,0,0-.41-5.65c-.55-2.83-2.82-6.52-1.76-8.21,2-3.12-1-4.92-.44-7.53,1.19-6,1.55-12.14,2.34-18.21.05-.42.84-.74,1.28-1.11l4.44.52,1.83.79,2.5.33a18,18,0,0,0-.85,3.77c-.07,7.27.15,14.55-.08,21.82-.17,5.38-1.26,10.74-1.28,16.11,0,14.73.42,29.46.39,44.19,0,11.22-.71,22.44-.71,33.66,0,8.37-.33,16.73-.14,25.1s-.28,16.52-.37,24.79c-.07,6.87,0,13.74,0,20.61h-1l-1.13-13c-1.64,1.64-3.5,2.65-3.91,4.08-1.08,3.83-1.4,7.81,2.13,10.87l-.07.92,3.4,2-.7,3.2H3.13L3,380l-.11-7,0-2c.07-.11.22-.23.21-.34a4.82,4.82,0,0,0-.19-.76q0-.94-.06-1.88l-.19-4.82Q1.9,333.56,1.14,304,.8,290.83.43,277.71l-.05-1.09,0-1.43ZM11,357l2.13-.29-.2-.68-2.5.91.31,2.25c.2,2.74,1.27,2.63,3.17.67l-2.86-1.1ZM8.82,313.53c-2.75,1-3.43,8.89-.65,17.65,0-3.79-.07-7.71,0-11.63C8.26,317.52,8.61,315.5,8.82,313.53Zm.9,23.22-.41,1,3.89,3,.72-4.19Zm3.91,29.44c.24-3.67,0-3.9-3.13-2.92Zm-1-52.21h-1v3.31l.62,0Zm1.78.57-.67.11.21,2.75.46,0Zm-1.68,20.26-.11-1-2.29.3.11.85Z" style="fill:#131414"/><path d="M12,381.65c-3.53-3.06-3.21-7-2.13-10.87.4-1.42,2.27-2.44,3.91-4.08l1.13,13h1c0-6.87-.06-13.74,0-20.61.09-8.26.56-16.53.37-24.79s.14-16.74.14-25.1c0-11.22.68-22.44.71-33.66,0-14.73-.43-29.46-.39-44.19,0-5.37,1.11-10.73,1.28-16.11.23-7.27,0-14.55.08-21.82a18,18,0,0,1,.85-3.77l3.62,0c.56,5.78,1.67,11.56,1.59,17.33-.32,22.53-1,45-1.6,67.57-.54,20.18-1.26,40.36-1.74,60.54-.42,17.57-.63,35.14-.93,52.71H14.58l.7-3.2-3.4-2,.11-.11,1.61-.48-1.68-.36Z" style="fill:#2f3f3c"/><path d="M19.87,387.81c.3-17.57.51-35.15.93-52.71.49-20.18,1.2-40.36,1.74-60.54.61-22.52,1.27-45,1.6-67.57.08-5.77-1-11.56-1.59-17.33,3.42-1.9,4.13-.65,4.43,3,3.26,38.89.3,77.67-1.57,116.48-1.26,26.22-2,52.47-2.91,78.71Z" style="fill:#131414"/><path d="M4.86,71.41C2.58,50.7,6.19,21.06,17.24,0,19.58,7.81,23.18,15.5,24,23.47c1.52,14.81,1.42,29.78,1.94,44.68a7.88,7.88,0,0,1-.74,2.42l-1.83.89-4.47-1c0,2.23,0,4.06,0,5.89q-.42,43.45-.87,86.91a17,17,0,0,1-.7,3.32c-4.78,1.5-3.49-2.44-3.5-4.36q-.16-30.18,0-60.36c.06-9.22.59-18.44.66-27.66,0-1.3-1.4-2.62-2.16-3.93-1.29,1.09-2.86,2-3.77,3.34-.52.76-.06,2.27.13,3.41.42,2.51,1.33,5,1.38,7.51.17,8.66,0,17.33.11,26a19.87,19.87,0,0,0,.89,4.08l-.25,7c-.1.1-.29.22-.28.29a4,4,0,0,0,.3.69v5.18c-.1.1-.3.22-.28.29a3.92,3.92,0,0,0,.27.7L10.76,134l0,2.73.09,6.06c-.1.1-.29.22-.28.29a4,4,0,0,0,.26.71l0,4.28c-.1.1-.31.22-.29.29a4.07,4.07,0,0,0,.28.71l.18,2.59c-.3,2.67-.58,5.34-.89,8-.35,3-.74,5.94-1.11,8.9C8.5,164.7,7.57,160.87,7.55,157c-.14-21.36-.07-42.73-.07-63.48l-.94.8c-.29-2.37-.69-4.73-.84-7.11C5.35,82,5.13,76.68,4.86,71.41Z" style="fill:#c7baa9"/><path d="M11.1,114.63a19.87,19.87,0,0,1-.89-4.08c-.08-8.66.07-17.33-.11-26-.05-2.51-1-5-1.38-7.51-.19-1.14-.65-2.65-.13-3.41.91-1.35,2.48-2.25,3.77-3.34.76,1.31,2.17,2.62,2.16,3.93-.07,9.22-.6,18.44-.66,27.66q-.21,30.18,0,60.36c0,1.92-1.28,5.85,3.5,4.36l.78,14.11c-2.67-.18-3.52,1.33-3.48,3.71,0,1.38,0,2.77,0,4.15L10.17,188l-1.79-3.48-.31-4.64-2.52,4.46.12,3.28.21.86-4.19.34c-.08-1.94-.31-3.89-.2-5.82s.57-4.11,1-6.93l3.28,1.43c2.06,2.75,5.51,2.13,8.57-2.64l-5.77,1.54-.4-3.35L4.95,174.4l1-4.45L9,168.54c.37-3,.76-5.93,1.11-8.91.32-2.67.6-5.34.89-8a9.28,9.28,0,0,0,.9-2.7q.12-15.76,0-31.53A10.08,10.08,0,0,0,11.1,114.63Z" style="fill:#998d81"/><path d="M8.39,184.57,10.17,188c-.44.37-1.23.69-1.28,1.11-.79,6.07-1.15,12.22-2.34,18.21C6,210,9,211.78,7,214.9c-1.06,1.69,1.21,5.38,1.76,8.21a25.48,25.48,0,0,1,.41,5.65c-.19,5.68-.44,11.36-.86,17A57.93,57.93,0,0,1,7,252.6c-.37.59-1,1.17-1.07,1.78-.18,2.77-.18,5.56-.25,8.34-.54-1.18-1.55-2.37-1.54-3.55,0-4.07.66-8.14.65-12.21a48.71,48.71,0,0,0-1.7-13.36v36h-1V217.81H3v11.67A13.48,13.48,0,0,0,4.7,217c-2.78-7.31-1.32-14.7-1-22.05.09-2.07.28-3.5-2.23-3.69l.22-2.43,4.19-.34a15.3,15.3,0,0,1,.92-2.89C7.07,185.14,7.84,184.92,8.39,184.57Z" style="fill:#2f3f3c"/><path d="M23.37,71.46l1.83-.89a35.43,35.43,0,0,1,.88,5.56c0,10.82-.22,21.64-.07,32.46.23,17.67.78,35.34,1,53,0,2.56-1.15,5.12-1.78,7.69l-1.58-.14q.08-5.56.16-11.12,0-.67,0-1.34-.1-7.36-.21-14.72c.09-.1.25-.21.24-.29a3.82,3.82,0,0,0-.25-.67q0-6.57,0-13.14c.09-.1.26-.2.25-.28a3.78,3.78,0,0,0-.23-.67q0-2.16,0-4.32c.09-.1.26-.21.24-.3a3.88,3.88,0,0,0-.24-.68q0-3.92.07-7.83c.08-.1.25-.21.24-.3a4,4,0,0,0-.23-.69Z" style="fill:#998d81"/><path d="M4.86,71.41c.27,5.28.49,10.56.83,15.83.15,2.38.56,4.74.84,7.11,0,2.09,0,4.18,0,6.28q0,9.26,0,18.51l-.72.77-2.48-.09q.46-22.29.94-44.58A26.63,26.63,0,0,1,4.86,71.41Z" style="fill:#998d81"/><path d="M2.33,170.08,3.5,130.24C4,131.51,5,132.75,5,134c.18,4,0,8,0,12l-.83,16.31q0,.26,0,.53Z" style="fill:#998d81"/><path d="M5.05,146.08c0-4,.18-8,0-12-.06-1.29-1-2.54-1.55-3.81v-1.36l.46-1.1-.1-3.44,1.89-4.44.72-.77c0,7.43.09,14.87,0,22.3a32.54,32.54,0,0,1-.77,4.91A.84.84,0,0,0,5.05,146.08Z" style="fill:#2f3f3c"/><path d="M20.51,181.18,25,173.4l1.21.21v10.46Z" style="fill:#998d81"/><path d="M8.56,176.45l5.77-1.54c-3.06,4.77-6.51,5.39-8.57,2.64Z" style="fill:#2f3f3c"/><path d="M14.61,188.57c0-1.38.05-2.77,0-4.15,0-2.38.8-3.89,3.48-3.71l-1.68,8.65Z" style="fill:#c7baa9"/><path d="M2.33,170.08l1.89-7.16,1.72,7-1,4.45H2.33Z" style="fill:#c7baa9"/><path d="M5.76,119.9l-1.89,4.44-.59-4.52Z" style="fill:#c7baa9"/><path d="M2.92,373,3,380Z" style="fill:#2f3f3c"/><path d="M23.62,169.15l1.58.14-.93,3.05-.87-.15Z" style="fill:#c7baa9"/><path d="M2.67,363.16,2.86,368Z" style="fill:#2f3f3c"/><path d="M0,268l.2,3.07Z" style="fill:#2f3f3c"/><path d="M23.77,156.69q0,.67,0,1.34Q23.77,157.36,23.77,156.69Z" style="fill:#c7baa9"/><path d="M23.55,141a3.82,3.82,0,0,1,.25.67c0,.08-.16.19-.24.29Q23.56,141.49,23.55,141Z" style="fill:#c7baa9"/><path d="M.32,273.86l0,1.33Z" style="fill:#2f3f3c"/><path d="M.38,276.61l.05,1.09A5,5,0,0,1,.21,277C.19,276.86.32,276.73.38,276.61Z" style="fill:#2f3f3c"/><path d="M2.91,369.87a4.82,4.82,0,0,1,.19.76c0,.11-.13.23-.21.34a4.45,4.45,0,0,1-.23-.76C2.65,370.1,2.82,370,2.91,369.87Z" style="fill:#2f3f3c"/><path d="M23.63,112.79a4,4,0,0,1,.23.69c0,.09-.15.2-.24.3Q23.63,113.29,23.63,112.79Z" style="fill:#c7baa9"/><path d="M23.55,121.61a3.88,3.88,0,0,1,.24.68c0,.08-.16.2-.24.3Q23.55,122.1,23.55,121.61Z" style="fill:#c7baa9"/><path d="M23.55,126.91a3.78,3.78,0,0,1,.23.67c0,.08-.16.19-.25.28Z" style="fill:#c7baa9"/><path d="M4,127.78l-.46,1.1Z" style="fill:#998d81"/><path d="M5.69,262.72c.07-2.78.07-5.57.25-8.34,0-.61.7-1.19,1.07-1.78q0,12.6,0,25.2l-.85.07Z" style="fill:#998d81"/><path d="M8.82,313.53c-.21,2-.57,4-.62,6-.1,3.92,0,7.84,0,11.63C5.39,322.42,6.07,314.51,8.82,313.53Z" style="fill:#2f3f3c"/><path d="M9.73,336.75l4.2-.21-.72,4.19-3.89-3Z" style="fill:#998d81"/><path d="M13.64,366.19l-3.13-2.92C13.64,362.29,13.88,362.52,13.64,366.19Z" style="fill:#998d81"/><path d="M12.64,314l-.38,3.35-.62,0V314Z" style="fill:#998d81"/><path d="M11.07,358.71l2.86,1.1c-1.9,2-3,2.07-3.17-.68C10.86,359,11,358.84,11.07,358.71Z" style="fill:#998d81"/><path d="M14.42,314.55v2.84l-.46,0-.21-2.75Z" style="fill:#2f3f3c"/><path d="M12.75,334.81l-2.29.12-.11-.85,2.29-.3Z" style="fill:#998d81"/><path d="M10.45,356.89l2.5-.91.2.68L11,357A.66.66,0,0,0,10.45,356.89Z" style="fill:#c7baa9"/><path d="M10.45,356.89A.66.66,0,0,1,11,357l.06,1.75c-.11.14-.21.28-.31.43C10.65,358.39,10.55,357.64,10.45,356.89Z" style="fill:#998d81"/><path d="M11.88,382.57l.07-.92,0,0a6.3,6.3,0,0,1,.07.84Z" style="fill:#2f3f3c"/><path d="M12,382.46a6.3,6.3,0,0,0-.07-.84l1.68.36Z" style="fill:#131414"/><path d="M5.94,170l-1.72-7q0-.26,0-.53c.77-2,2.09-4,2.2-6.07.19-3.3-.42-6.65-.69-10a32.54,32.54,0,0,0,.77-4.91c.06-7.43,0-14.87,0-22.3q0-9.26,0-18.51c0-2.09,0-4.18,0-6.28l.94-.8c0,20.76-.07,42.12.07,63.48,0,3.84,1,7.68,1.46,11.51Z" style="fill:#fdfdfc"/><path d="M11.1,114.63a10.08,10.08,0,0,1,.85,2.78q.07,15.76,0,31.53a9.28,9.28,0,0,1-.9,2.7L10.83,149q0-.5,0-1,0-2.14,0-4.28,0-.5,0-1,0-3-.09-6.06,0-1.37,0-2.73,0-2.59.08-5.19,0-.5,0-1,0-2.59,0-5.18l0-1Z" style="fill:#2f3f3c"/><path d="M10.76,134q0,1.37,0,2.73Q10.74,135.32,10.76,134Z" style="fill:#998d81"/><path d="M10.86,127.78q0,.5,0,1a3.9,3.9,0,0,1-.27-.7C10.56,128,10.76,127.88,10.86,127.78Z" style="fill:#998d81"/><path d="M10.81,142.75q0,.5,0,1a4,4,0,0,1-.26-.71C10.52,143,10.72,142.85,10.81,142.75Z" style="fill:#998d81"/><path d="M10.84,148q0,.5,0,1a4,4,0,0,1-.28-.71C10.54,148.26,10.74,148.14,10.84,148Z" style="fill:#998d81"/><path d="M10.85,121.61l0,1a4,4,0,0,1-.3-.69C10.55,121.83,10.75,121.71,10.85,121.61Z" style="fill:#998d81"/><path d="M8.39,184.57c-.55.35-1.32.57-1.59,1.06a15.3,15.3,0,0,0-.92,2.89l-.21-.86-.12-3.28,2.52-4.46Z" style="fill:#fdfdfc"/><path d="M5.55,184.39l.12,3.28Z" style="fill:#2f3f3c"/><path d="M5.74,146.35c.27,3.33.87,6.67.69,10-.12,2.06-1.43,4-2.2,6.07q.42-8.15.83-16.31A.84.84,0,0,1,5.74,146.35Z" style="fill:#c7baa9"/><polygon points="23.67 71.59 18.7 70.6 18.7 126.91 18.7 141.01 16.71 167.06 18.11 179.37 16.74 187.79 23.67 187.94 25.66 186.94 26.66 183.96 20.69 180.98 23.36 176.24 25.66 173.02 26.66 164.19 25.66 169.04 23.67 169.04 23.36 162.39 23.67 128.27 23.36 104.78 23.67 71.59" style="fill:#fdfdfc"/></svg>