<svg xmlns="http://www.w3.org/2000/svg" viewBox="0 0 49.82 328.78"><title>資產 20</title><path d="M32.72,284.07,27.39,242c.73,2.2,1.83,4.34,2.14,6.6,1,7.07,1.62,14.17,2.4,21.26l1.28-.12L30.38,244l1.12-.09.8,7.26c1.71.69,2.91.84,3.45,1.51a2.53,2.53,0,0,1-.56,2.43c-3.59,2.26-1.11,5.19-.94,7.81,0,.36,1.32,1.06,1.68.88A3.9,3.9,0,0,0,38,261.85a10.34,10.34,0,0,0-.18-3.48c-1.26-14.06-2.63-28.1-3.78-42.17-1.73-21.26-5.49-42.3-6.43-63.65-.37-8.44-2.14-16.83-3.27-25.24l1.44-2.18,1.32,2.25-.23.65.6-.37h1.28l.24,2.59c-.67,1.71-2.06,3.49-1.89,5.11.57,5.63,2,11.17,2.55,16.79,2.23,21.66,4.3,43.33,6.34,65,1.28,13.51,2.23,27,3.63,40.54,2.41,23.35,5.06,46.67,7.6,70l-6.13.67c.28-.92.55-1.85.83-2.77.6-2,1.55-3.87,1.73-5.86a46,46,0,0,0-.32-7l-3.65-1.52-3,8.79-1-8.75a23.2,23.2,0,0,0,1.17-4.33c.26-3.38.27-6.78.37-10.17a.31.31,0,0,1,.45.16,1.67,1.67,0,0,1,0,.68l1,4.15,2.93-.32-.46-4.21.09-1-.35-1.49,0,0-1.2-4.42c1.43-2.12.5-4.68-1.83-5.93a3.83,3.83,0,0,1-1.84-2.65c0-.73,1.17-1.6,1.94-2.28a5.79,5.79,0,0,1,1.61-.72l-.8-1.35c-1.45-.14-3-.6-4.29-.25-.49.13-.41,2.17-.7,3.32S33.09,282.87,32.72,284.07ZM39.45,267a4.5,4.5,0,0,0-1.09-.11c-.1,0-.25.63-.2.66a5.79,5.79,0,0,0,1,.37Zm-3.26.79-.34.61c.24.08.5.25.72.22s.18-.4.27-.61Z" style="fill:#2f3f3c"/><path d="M47.2,327.72c-2.55-23.33-5.19-46.66-7.6-70-1.4-13.5-2.35-27-3.63-40.54-2-21.68-4.12-43.35-6.34-65-.58-5.63-2-11.17-2.55-16.79-.17-1.62,1.22-3.4,1.89-5.11,2.9,19.8,6.62,39.52,8.53,59.41,4.28,44.5,7.65,89.08,11.42,133.63a31.06,31.06,0,0,0,.91,4.13Z" style="fill:#131414"/><path d="M36.65,320l3-8.79,3.65,1.52a46,46,0,0,1,.32,7c-.18,2-1.13,3.91-1.73,5.86-.28.92-.55,1.85-.83,2.77l-.88.1-.88.1-1.75.19L37.43,327l-.19-1.74Z" style="fill:#131414"/><path d="M39.31,328.59l.88-.1Z" style="fill:#2f3f3c"/><path d="M11,72.05c.52,4.49,1.06,9,1.56,13.48.16,1.46.19,2.93.28,4.4l-1.16.16a41.51,41.51,0,0,1-1.76-6Q5,48,.11,11.89c0-.15,0-.29,0-.44C-.69,3.23,4.8-1.69,12.86.54c1.71.47,3.7,3.08,4,5,1.82,11.11,3.19,22.29,4.71,33.44-.48.61-1.46,1.32-1.36,1.81.86,4.16-1.33,8.58,1.08,12.58-1.09,7.18-3.31,14.42-3,21.54.51,12.23,2.62,24.4,4,36.6.05.49-.77,1.07-1.19,1.61-.67-3.55-1.51-7.08-2-10.65C17.25,88,15.51,73.49,13.85,60c1.37-2.53,3.56-4.76,3.57-7,0-4.06-1.26-8.12-2.06-12.52a26.58,26.58,0,0,1-4.9.49c-4-.28-5.28,1.78-4.82,5.28.42,3.17,1.12,6.3,1.79,9.43C8.59,61.12,9.82,66.58,11,72.05Z" style="fill:#c7baa9"/><path d="M24.32,127.31c1.13,8.41,2.9,16.79,3.27,25.24.94,21.35,4.71,42.39,6.43,63.65,1.14,14.07,2.51,28.11,3.78,42.17a10.34,10.34,0,0,1,.18,3.48,3.9,3.9,0,0,1-2.06,1.94c-.36.18-1.66-.53-1.68-.88-.17-2.62-2.65-5.55.94-7.81a2.53,2.53,0,0,0,.56-2.43c-.53-.67-1.73-.82-3.45-1.51l-.8-7.26-1.12.09,2.83,25.73-1.28.12c-.78-7.09-1.44-14.2-2.4-21.26-.31-2.25-1.4-4.4-2.14-6.6l.17-1.12.35-.22-.36.18-.46-1.28c.26-2.12.94-4.3.7-6.36-.64-5.57-1.77-11.08-2.47-16.64-.14-1.12.78-2.38,1.21-3.57l3,27.39,1-.11-3-27.47-2.41-13.9-.73-6.94-.28-1.79-2-17.36-.48-10.68-1.36.08.37,7a20.4,20.4,0,0,1-1.24-5.49c-.68-4.23-1.44-8.45-2.16-12.67l-.22-2.65c2.48-4.22.78-8.27-.51-12.33l-.19-2.67,0-.88L16,130.15Z" style="fill:#131414"/><path d="M11,72.05c-1.2-5.47-2.43-10.93-3.6-16.41-.66-3.13-1.36-6.26-1.79-9.43-.47-3.5.82-5.57,4.82-5.28a26.58,26.58,0,0,0,4.9-.49c.8,4.4,2.08,8.46,2.06,12.52,0,2.24-2.2,4.48-3.57,7,1.66,13.53,3.4,28,5.26,42.46.46,3.58,1.3,7.1,2,10.65l-.92,1.08-3,.33c.26-2,.74-3.57.59-5-1-10.34-2.12-20.68-3.36-31-.13-1.08-1.38-2-2.11-3Z" style="fill:#998d81"/><path d="M21.31,53.33c-2.41-4-.23-8.42-1.08-12.58-.1-.49.88-1.2,1.36-1.81.52,3,1.3,5.94,1.53,8.95Q25.35,77,27.38,106.07c.51,7.2.9,14.4,1.35,21.6H27.45a.92.92,0,0,1-.37-.29l-1.32-2.24c-1-3.55.6-7.82-2.91-10.69-.08-.06,0-.28,0-.42.49-1.55,1.46-3.14,1.37-4.65-.46-7.6-1.4-15.18-1.78-22.78C21.86,75.51,21.66,64.42,21.31,53.33Z" style="fill:#998d81"/><path d="M22.81,114c0,.14,0,.36,0,.42,3.51,2.87,1.9,7.14,2.91,10.69l-1.44,2.18L16,130.15c-1.76-11.94-3.16-23.86-2.4-36C14,88,12.78,81.66,12.28,75.42c.73,1,2,1.95,2.11,3,1.24,10.32,2.34,20.65,3.36,31,.15,1.47-.33,3-.59,5l3-.33Z" style="fill:#c7baa9"/><path d="M24.11,190.15l.28,1.79q-.07,4.22-.15,8.44h.6l.27-1.51,2.41,13.9-1,.19c-.43,1.19-1.35,2.45-1.21,3.57.7,5.56,1.83,11.07,2.47,16.64.24,2.07-.44,4.24-.7,6.36l-9.82-88.5c.73,4.22,1.49,8.44,2.16,12.67a20.4,20.4,0,0,0,1.24,5.49l-.37-7,1.36-.08.48,10.68Z" style="fill:#2f3f3c"/><path d="M32.72,284.07c.37-1.2.8-2.38,1.1-3.6s.21-3.19.7-3.32c1.32-.35,2.85.11,4.29.25l.8,1.35a5.79,5.79,0,0,0-1.61.72c-.77.68-2,1.54-1.94,2.28a3.83,3.83,0,0,0,1.84,2.65c2.33,1.25,3.26,3.81,1.83,5.93l-2-.57.48,4.39.05-.06-1,2.66c-.11,3.39-.11,6.8-.37,10.18a23.2,23.2,0,0,1-1.17,4.33L35.14,306c.1-.09.31-.23.29-.27a4.4,4.4,0,0,0-.37-.62l-.82-7L34,296.37l-.18-1.76-.09-.88-.42-3.5,1.78-2.65-2.05,0Z" style="fill:#131414"/><path d="M16.55,136.08c1.29,4.06,3,8.11.51,12.33Z" style="fill:#2f3f3c"/><path d="M33.08,287.6l2.05,0-1.78,2.65Z" style="fill:#2f3f3c"/><path d="M34,296.37l.19,1.74Z" style="fill:#2f3f3c"/><path d="M37.24,325.27l.19,1.74Z" style="fill:#2f3f3c"/><path d="M27.56,240.83l.36-.18-.35.22Z" style="fill:#2f3f3c"/><path d="M33.77,293.73l.09.88Z" style="fill:#2f3f3c"/><path d="M16.35,132.52l0,.88Z" style="fill:#2f3f3c"/><path d="M35,305.11a4.4,4.4,0,0,1,.37.62s-.19.18-.29.27Z" style="fill:#2f3f3c"/><path d="M41.12,297.22l.46,4.21-2.93.32-1-4.14Z" style="fill:#998d81"/><path d="M38.16,294.16l-.48-4.39,2,.57,1.2,4.42Z" style="fill:#998d81"/><path d="M38.16,294.16l2.76.6-.05,0,.35,1.49-.09,1-3.44.39a1.66,1.66,0,0,0,0-.68l.56-2.83Z" style="fill:#131414"/><path d="M38.21,294.09l-.56,2.83a.31.31,0,0,0-.45-.16Z" style="fill:#998d81"/><path d="M39.45,267l-.28.91a5.78,5.78,0,0,1-1-.37s.1-.65.2-.66A4.5,4.5,0,0,1,39.45,267Z" style="fill:#998d81"/><path d="M41.22,296.2l-.35-1.49Z" style="fill:#998d81"/><path d="M36.2,267.79l.65.21c-.09.22-.15.59-.27.61s-.48-.13-.72-.22Z" style="fill:#998d81"/><path d="M27.45,127.67l-.6.37.23-.65A.92.92,0,0,0,27.45,127.67Z" style="fill:#131414"/><path d="M22.81,114l-2.67.13.93-1.08c.42-.54,1.24-1.12,1.19-1.61-1.35-12.2-3.45-24.37-4-36.6-.3-7.13,1.92-14.36,3-21.54.35,11.09.55,22.18,1.1,33.26.38,7.6,1.32,15.18,1.78,22.78C24.28,110.89,23.3,112.47,22.81,114Z" style="fill:#fdfdfc"/><path d="M26.54,213l1-.19,3,27.47-1,.11Z" style="fill:#998d81"/><path d="M24.11,190.15l-2-17.36Z" style="fill:#998d81"/><path d="M25.12,198.88l-.27,1.51h-.6q.07-4.22.15-8.44Z" style="fill:#998d81"/></svg>