<svg xmlns="http://www.w3.org/2000/svg" viewBox="0 0 136.2 330.7"><title>資產 3</title><path d="M13.8,284.78l5-15.08,2.46-7.56.42-1.27,1.37-4.56,6.19-18.44,2.3-6.84,1-3.63.35-1.28L36.15,216l.54-1.67.75-2.33.41-1.28.34-1.12c.11-.1.28-.19.3-.3a5.06,5.06,0,0,0,0-.83l3.27-10.12c.12,0,.35-.09.35-.13a4.36,4.36,0,0,0-.09-.7q10.28-26.89,20.54-53.78a67.31,67.31,0,0,1,2.29-6.46c1-1.92,1.94-4.48,5.08-3l.79.58.92,2.87,6.59,2.58,1.21.94-.14,1.28a22.37,22.37,0,0,0-2.35,4c-4.28,12.58-8.29,25.25-12.73,37.78-3.06,8.66-6.85,17.06-10,25.69C46.54,231.1,39,252.28,31.45,273.42c-1.17,3.26-2.41,6.5-3.74,9.69-3.28,7.89-6.63,15.74-10,23.61a28.52,28.52,0,0,0-3.33-1,13.85,13.85,0,0,0-.76,2.09l3.09-2.16-.72,3.2-2.52.58A55.06,55.06,0,0,0,11.58,315c-.46,2-.61,4.07-.89,6.1a1.32,1.32,0,0,0-.36,0c-.06,0-.1.13-.15.2l.49-.26,2.61.59-2.49,7-10-3.57,0-.9.77-2.59c.13,0,.36-.07.36-.11a4.56,4.56,0,0,0-.07-.7l7.07-20.9,3-9.27.55-1.66c.1,0,.29-.09.29-.14a3.61,3.61,0,0,0-.08-.61l.82-2.58c.12,0,.35-.09.35-.14A4.45,4.45,0,0,0,13.8,284.78ZM47.9,203.05l-1.06-.45c-3,3.09-3.92,7-4.35,11.25a10.74,10.74,0,0,1-1.24,3.77c-.64,1.21-1.83,2.15-2.38,3.39-.84,1.88-1.07,4.07-2,5.86-2.49,4.55-3.49,9.29-2,12.8Zm-1.56-2.95,2.13.74L57,172.6l-.78-.22Z" style="fill:#131414"/><path d="M10.79,328.62l2.49-7-2.61-.59,0,0c.28-2,.44-4.1.89-6.1a55.06,55.06,0,0,1,1.95-5.55l2.52-.58,1.71-2.14c3.32-7.87,6.67-15.73,10-23.61,1.33-3.2,2.57-6.43,3.74-9.69C39,252.28,46.54,231.1,54.23,210c3.14-8.63,6.93-17,10-25.69,4.43-12.52,8.44-25.2,12.73-37.78a22.36,22.36,0,0,1,2.35-4l1.71.52,1.92-.25,1.61.45,1.6,1.8c-3.57,11.47-6.59,23.15-10.82,34.38C63.82,210,51.83,240.45,40,270.92q-11.63,29.92-23.4,59.78Z" style="fill:#2f3f3c"/><path d="M.81,324.16l0,.9-.83-.3Z" style="fill:#2f3f3c"/><path d="M94.2,43.14c-.2-1-.85-2.21-.52-3,4-9.86,8-19.74,12.32-29.45a34.27,34.27,0,0,1,6-9A6.61,6.61,0,0,1,117.52.13c5.22,1.41,10.25,3.55,15.39,5.26,2.51.84,3.64,2.39,3.19,5-1.15,6.6-2,13.29-3.65,19.76-1.49,5.8-3.91,11.36-5.92,17h0c-2.2-2.45-2.86-.54-3.33,1.27-2.05,7.76-5.54,14.7-11.35,20.36a7.81,7.81,0,0,0-1.46,2.17C104.56,83,98.67,95,92.86,107c-2.57,5.34-5,10.77-7.44,16.16-.59-1.08-1.74-2.21-1.65-3.22a38.47,38.47,0,0,1,1.7-8.76A141.4,141.4,0,0,1,91.9,94.57c3.93-8,4.72-16.69,5.81-25.29.3-2.38-.64-4.9-.83-7.38a4.5,4.5,0,0,1,.66-2.74c2.89-4.08,7-3.54,11-2.49,2.89.75,4.75,1.1,5.66-2.92.71-3.14,3.23-5.88,5.28-9.38-6-3.94-13.62-5.95-20.57-7.23Z" style="fill:#c7baa9"/><path d="M94.2,43.14l4.74-6c7,1.28,14.61,3.29,20.57,7.23-2.05,3.5-4.57,6.23-5.28,9.38-.91,4-2.77,3.67-5.66,2.92-4.05-1-8.14-1.59-11,2.49a4.5,4.5,0,0,0-.66,2.74c.19,2.47,1.13,5,.83,7.38-1.09,8.6-1.88,17.25-5.81,25.29a141.4,141.4,0,0,0-6.42,16.63,38.47,38.47,0,0,0-1.7,8.76c-.1,1,1.06,2.15,1.65,3.22l-5.25,10.95,5,2.51-.46,1.09-5.06-1.35-1.41,3.94-6.59-2.58,1.29-3.08,1.76-3,5.21.29,0-1.58-1.63.15-2.63-1.51v-4.41l-1.54,1L72.91,121l3-10.59,6.35-14-.52,3.16-7.2,20.12,1.69.79c1.53-2.89,3.51-5.65,4.51-8.71,2.14-6.58,3.78-13.32,5.62-20,1.27-1.09,3.1-1.93,3.71-3.31,1.37-3.1,2.9-6.42.67-9.86q.09-.59.17-1.18.16-1.26.33-2.52v-.09l.44-3.59c1.84-7.48,2.57-15,1.07-22.65C92.43,46.9,93.68,44.95,94.2,43.14Z" style="fill:#998d81"/><path d="M84.7,137.73l.46-1.1,3.73-5.56-3.05-2.5C91,126.34,93,121.52,95,116.87c3.11-7.25,5.71-14.73,9-21.89,7.37-16,15-31.91,22.59-47.85h0c-.59,2.33-.87,4.79-1.81,7-6.55,15.15-13.21,30.25-19.88,45.35-4.42,10-9,19.92-13.29,30-1.59,3.77-2.3,7.91-3.54,11.84a26,26,0,0,1-1.87,3.76l-1.6-1.8Z" style="fill:#c7baa9"/><path d="M81.75,99.55l.52-3.16-6.35,14,3.3-9.82c1.06-3.4,2.17-6.79,3.18-10.2,2.16-7.31,4.42-14.59,6.31-22,.61-2.37.2-5,.26-7.51l.51-5,1.11-.45c.48,1.26,1.52,2.61,1.34,3.77-.91,6-1.89,12.05-3.32,18-1,4.32-2.94,8.43-4.28,12.68C83.33,93,82.6,96.32,81.75,99.55Z" style="fill:#c7baa9"/><path d="M89,60.9c-.06,2.51.35,5.14-.26,7.51-1.89,7.38-4.15,14.66-6.31,22-1,3.42-2.11,6.8-3.18,10.2l-1.72.24q2-7.55,4-15.11c1.87-7,3.7-14,5.64-21A23.4,23.4,0,0,1,89,60.9Z" style="fill:#998d81"/><path d="M77.5,100.81l1.72-.24-3.3,9.82-3,10.59-1.31-.34,3.85-13,.32-1.19Z" style="fill:#2f3f3c"/><path d="M90.73,78.57c2.23,3.44.7,6.76-.67,9.86-.61,1.38-2.43,2.22-3.71,3.31Z" style="fill:#c7baa9"/><path d="M71.6,120.64l1.31.34,1.14,4.71,1.55.43q0,1.46,0,2.93l-3.87.58-2.35-1.42L71,126.49l.12-2.65Z" style="fill:#c7baa9"/><path d="M12,290.59l-3,9.27Z" style="fill:#2f3f3c"/><path d="M21.29,262.14l-2.46,7.56Z" style="fill:#2f3f3c"/><path d="M31.57,231l-2.3,6.84Z" style="fill:#2f3f3c"/><path d="M69.39,128.21l2.35,1.42-.55,1.27-.21.2.15.25Z" style="fill:#131414"/><path d="M91.23,74.87q-.16,1.26-.33,2.52Q91.06,76.13,91.23,74.87Z" style="fill:#c7baa9"/><path d="M70.71,134.87l-.79-.58,1.2-2.94L71,131.1l.21-.2.82.55-.41,2Z" style="fill:#998d81"/><path d="M23.08,256.31l-1.37,4.56Z" style="fill:#2f3f3c"/><path d="M91.68,71.19l-.44,3.59Z" style="fill:#c7baa9"/><path d="M36.68,214.34,36.15,216Z" style="fill:#2f3f3c"/><path d="M71.1,123.84,71,126.49Z" style="fill:#2f3f3c"/><path d="M13.8,284.78a4.45,4.45,0,0,1,.11.69s-.23.09-.35.14Z" style="fill:#2f3f3c"/><path d="M12.74,288.18a3.61,3.61,0,0,1,.08.61s-.19.09-.29.14a3,3,0,0,1,0-.54C12.54,288.31,12.67,288.25,12.74,288.18Z" style="fill:#2f3f3c"/><path d="M75.77,106.46l-.32,1.19Z" style="fill:#998d81"/><path d="M42,197.52a4.36,4.36,0,0,1,.09.7s-.23.09-.35.13Z" style="fill:#2f3f3c"/><path d="M38.49,208.48a5.06,5.06,0,0,1,0,.83c0,.11-.2.2-.3.3Z" style="fill:#2f3f3c"/><path d="M37.85,210.73,37.44,212Z" style="fill:#2f3f3c"/><path d="M33,226.13l-.35,1.28Z" style="fill:#2f3f3c"/><path d="M1.87,320.76a4.56,4.56,0,0,1,.07.7s-.24.08-.36.11Z" style="fill:#2f3f3c"/><path d="M47.9,203.05,34.78,239.67c-1.47-3.51-.47-8.25,2-12.8,1-1.79,1.21-4,2-5.86.55-1.24,1.75-2.17,2.38-3.39a10.74,10.74,0,0,0,1.24-3.77c.43-4.22,1.37-8.16,4.35-11.25Z" style="fill:#2f3f3c"/><path d="M46.34,200.11l9.93-27.72.78.22-8.58,28.25Z" style="fill:#2f3f3c"/><path d="M84.7,137.73l-.15,5.52-1.61-.45-1.56-1.15-1.94-.4-1.21-.94,1.41-3.94Z" style="fill:#fdfdfc"/><path d="M70.71,134.87l.88-1.44,1.34,1.23-1.29,3.08Z" style="fill:#fdfdfc"/><path d="M17.76,306.73,16,308.87l.72-3.2-3.09,2.16a13.85,13.85,0,0,1,.76-2.09A28.52,28.52,0,0,1,17.76,306.73Z" style="fill:#998d81"/><path d="M79.44,141.26l1.94.4-.36,1.4-1.71-.52Z" style="fill:#998d81"/><path d="M10.67,321.08l-.49.26c0-.07.08-.18.15-.2a1.32,1.32,0,0,1,.36,0Z" style="fill:#2f3f3c"/><path d="M81,143.05l.36-1.4,1.56,1.15Z" style="fill:#c7baa9"/><path d="M126.59,47.13C119,63.07,111.38,79,104,95c-3.3,7.16-5.9,14.64-9,21.89-2,4.65-3.95,9.47-9.16,11.71l3.05,2.5-3.73,5.56-5-2.51,5.25-10.95c2.47-5.39,4.87-10.82,7.44-16.16C98.67,95,104.56,83,110.44,70.93a7.81,7.81,0,0,1,1.46-2.17c5.82-5.66,9.3-12.6,11.35-20.36C123.74,46.59,124.39,44.68,126.59,47.13Z" style="fill:#fdfdfc"/><path d="M72,131.45l-.82-.55.55-1.27,3.87-.58,2.63,1.51,1.63-.15,0,1.58-5.21-.29Z" style="fill:#2f3f3c"/><path d="M72,131.45l2.69.25-1.76,3-1.34-1.23Z" style="fill:#c7baa9"/><path d="M75.6,126.12l-1.55-.43,1.54-1Z" style="fill:#fdfdfc"/><polygon points="93.24 40.23 89.75 55.88 91.89 58.76 91.32 63.17 90.05 70.53 88.66 76.61 85.31 85.97 83.59 92.55 81.55 99.42 79.25 106.52 76.97 112.89 74.51 119.08 76.05 120.68 77.73 117.81 79.2 115.22 80.94 112.93 81.94 110.12 83.35 103.23 84.36 100.42 86.37 94.81 86.78 90.73 88.45 86.05 89.79 82.3 91.13 78.56 92.05 69.38 92.9 65.17 93.47 59.88 93.53 55.6 93.62 44.33 93.24 40.23" style="fill:#fdfdfc"/></svg>