<svg xmlns="http://www.w3.org/2000/svg" viewBox="0 0 50.91 361.87"><title>資產 18</title><path d="M0,360.37c1.66-25.88,3.63-51.74,4.9-77.64,1.93-39.52,3.52-79.06,9.64-118.24.81-.62,2.3-1.82,2.33-1.77,2.26,2.62,4.91,0,7.26.61l3.44.37c-.16,4.67-.12,9.35-.5,14-1.88,23-3.76,46.1-5.87,69.12-1,11.17-2.44,22.31-3.91,33.43-.34,2.6,1,6.2-3.09,7.47a22,22,0,0,0,.86,3.91c.16.54,1.07,1,1,1.45-.25,3.73-.65,7.45-1,11.17h0l-3.33-.32L14,305.51l.74,1.19-2.39,1.79,1.28,1-1.06,1.37,1.68,1.36-.21,3.65-1.45,1.46-1.94,2,2.71,1.88-2.45.9-1.5,15.72,3.49.33c-1.81,2-3.29,3.2-4.14,4.74-.42.77.31,2.17.52,3.28l0,0,.34,15.09ZM13.5,228c-.51.2-1.44.35-1.48.61-.55,4.28-1.05,8.57-1.38,12.88-.05.68.83,1.44,1.28,2.16l1.27-.25L13.49,228l.24-.34Zm1-2.19c.3-3.11.62-6.23.88-9.34s.7-6.54.67-9.8c0-3-.6-5.92-.94-9C13,205.37,11.94,223.28,14.54,225.8Z" style="fill:#131414"/><path d="M34,169.75C34.92,197.7,32,225.37,28.5,253,24,289.28,20,325.59,15.79,361.87l-2.63-.25c1.66-17.39,3.3-34.78,5-52.16.25-2.49.27-4.5-3.05-4.31v-.91h0c2.08.43,3.93.31,4.3-2.3.52-3.74.93-7.49,1.35-11.24,1.93-17.13,4.21-34.23,5.69-51.41,1.89-21.86,3.1-43.78,4.8-65.66C31.35,172.27,33.07,171,34,169.75Z" style="fill:#131414"/><path d="M15.12,305.14c3.32-.19,3.3,1.82,3.05,4.31-1.72,17.38-3.35,34.78-5,52.16l-3.51-.33-.34-15.09,1-1.49-.75-.18-.25,1.69c-.21-1.11-.95-2.52-.52-3.28.85-1.55,2.33-2.75,4.14-4.74l-3.49-.33,1.5-15.72,2.45-.9-2.71-1.88,1.95-2,2-.64-.59-.82.21-3.65.93-1-2.61-.32,1.06-1.37c2.49-.09,2.51-1.16,1.12-2.8L14,305.51Zm-3,26.68-1.25-.05,0,2.69,1,0Z" style="fill:#2f3f3c"/><path d="M46.82,63l-3.11-.82c-.18,4.66-.08,9-.63,13.36-.31,2.48-1.74,4.8-2.53,7.25-1.33,4.13-3,8.23-3.7,12.47-2.18,13.71-4,27.48-5.87,41.24-.56,4.13-.78,8.31-1.15,12.46l-.1,1.28L27,152.84a4.4,4.4,0,0,0-.42.56c-1.85-.3-3.95-2.48-5.37.78-.1.23-1.55-.13-2.37-.22l2.82-3.2c.93-1.07,2.51-2.05,2.67-3.22.53-4,.6-8.06.76-12.1C25.74,119,26.41,102.5,27,86c.19-5.58.92-6.12,5.92-3.62l-1,2.67c4.75.59,5.72-2,4-11.42l-4.27,5.51a36.72,36.72,0,0,1-3.5-4,2.81,2.81,0,0,1,.08-2.57c1.34-1.91,3-3.62,4.52-5.48l3.68,3.46,1.48-.53c-.71-2.74-.67-6.13-2.34-8s-5-2.2-7.54-3.19c-.95,3-4,.44-6.31.81l-1.83-.13-1.37-.88a7.15,7.15,0,0,1-.15-1.31c.81-11.69,1.35-23.41,2.6-35.05A55.39,55.39,0,0,1,24.88,8C26.77,3.25,30.49.06,35.94,0c5.62-.07,9.32,3.12,11.66,7.92,3.61,7.37,3.54,15.38,3.08,23.25C50.07,41.8,48.83,52.4,47.85,63Z" style="fill:#c7baa9"/><path d="M18.46,58.65l1.37.88-.75,18.34c0,21.16,0,42.32.13,63.48,0,1.63.94,3.25,1.45,4.88l1.31-.36c.16-1.13.41-2.26.46-3.4.2-4.82.22-9.65.54-14.47.15-2.15,1.34-4.28,1.24-6.38-.27-6.05-.89-12.09-1.5-18.12C21.86,95,20.89,86.6,20,78.15l1.69-18.49c2.27-.37,5.36,2.22,6.31-.81,2.56,1,5.92,1.34,7.54,3.19s1.63,5.29,2.34,8l-1.48.53-3.68-3.46c-1.56,1.86-3.18,3.57-4.52,5.48a2.81,2.81,0,0,0-.08,2.57,36.72,36.72,0,0,0,3.5,4l4.27-5.51c1.74,9.39.77,12-4,11.42l1-2.67c-5-2.5-5.73-2-5.92,3.62-.56,16.48-1.23,33-1.88,49.43-.16,4-.23,8.1-.76,12.1-.15,1.17-1.73,2.16-2.67,3.22L18.84,154l-2.55,2.35c4.89,2,8.07,1,10.29-2.92a4.4,4.4,0,0,1,.42-.56l1,5.68c2.19-1,5.33-1.54,5.79-2.93.89-2.7-.62-5.19-4.11-5.38l.1-1.28c3.11.6,4.34-.66,4.73-3.85q2.5-20.29,5.44-40.52c.89-6.15,2.21-12.25,3.34-18.37l1.1.07c-.07,2.37,0,4.76-.24,7.1-2,16.89-4,33.77-6.06,50.66-.43,3.65-.68,7.32-1.18,11a5.14,5.14,0,0,1-1.35,3.11c-2.89,2.34-1.58,4.11,1,6.17l-2.93,1.1L30.18,163,29,158.65l-3.8-.17-1.1,4.84c-2.35-.61-5,2-7.26-.61,0,0-1.52,1.16-2.33,1.77-.06-5.48-.75-10.86,1.08-16.38,1.18-3.57.38-7.79.5-11.72q.82-27.69,1.65-55.37Q18.1,69.84,18.46,58.65Z" style="fill:#998d81"/><path d="M30.18,163l3.53,2.39.33,4.38c-1,1.29-2.69,2.53-2.8,3.89-1.69,21.88-2.9,43.8-4.8,65.66-1.49,17.17-3.76,34.27-5.69,51.41-.42,3.75-.83,7.5-1.35,11.24-.36,2.61-2.22,2.73-4.3,2.3.35-3.72.75-7.44,1-11.17,0-.45-.88-.9-1-1.45a22,22,0,0,1-.86-3.91c4.11-1.27,2.75-4.87,3.09-7.47,1.47-11.12,2.89-22.26,3.91-33.43,2.11-23,4-46.08,5.87-69.12.38-4.65.35-9.34.5-14Z" style="fill:#2f3f3c"/><path d="M46.82,63l1,.05L46.12,81.21l-1-.12Z" style="fill:#998d81"/><path d="M14.54,225.8c-2.6-2.52-1.54-20.43.61-28.16.34,3.09.91,6,.94,9,0,3.26-.39,6.54-.67,9.8S14.84,222.68,14.54,225.8Z" style="fill:#2f3f3c"/><path d="M13.49,228l-.29,15.41-1.27.25c-.45-.72-1.34-1.47-1.28-2.16.32-4.3.83-8.6,1.38-12.88,0-.26,1-.41,1.48-.61Z" style="fill:#2f3f3c"/><path d="M30.18,163l-2.61.72-3.44-.37,1.1-4.84,3.8.17Z" style="fill:#c7baa9"/><path d="M14.78,306.69c1.39,1.64,1.37,2.71-1.12,2.8l-1.28-1Z" style="fill:#998d81"/><path d="M12.6,310.86l2.61.32-.93,1Z" style="fill:#998d81"/><path d="M15.12,305.14l-1.09.37-2.25-1.59,3.33.32Z" style="fill:#998d81"/><path d="M14.07,315.87l.59.82-2,.64Z" style="fill:#c7baa9"/><path d="M13.5,228l.23-.36-.24.34Z" style="fill:#2f3f3c"/><path d="M12.11,331.83l-.25,2.62-1,0,0-2.69Z" style="fill:#131414"/><path d="M9.32,346.21l.25-1.69.75.18-1,1.49Z" style="fill:#131414"/><path d="M29.73,150.2c3.5.19,5,2.68,4.11,5.38-.46,1.39-3.6,1.9-5.79,2.93l-1-5.68Z" style="fill:#fdfdfc"/><path d="M26.58,153.4c-2.23,3.95-5.41,5-10.29,2.92L18.84,154c.82.09,2.27.45,2.37.22C22.63,150.92,24.74,153.1,26.58,153.4Z" style="fill:#2f3f3c"/><path d="M19.08,77.88l.75-18.34,1.83.13L20,78.15Z" style="fill:#fdfdfc"/><path d="M19.08,77.88l.88.27c.92,8.45,1.9,16.89,2.76,25.35.61,6,1.23,12.07,1.5,18.12.09,2.1-1.1,4.23-1.24,6.38-.33,4.81-.35,9.64-.54,14.47,0,1.14-.3,2.27-.46,3.4l-1.31.36c-.5-1.62-1.44-3.25-1.45-4.88C19.09,120.2,19.1,99,19.08,77.88Z" style="fill:#c7baa9"/><path d="M43.34,61.84l.43.15L47.2,63.2,45.51,81l1,.09L44.44,86.5,43,86.77s4.82-38.16-2.09,12.46S36,149,29.81,149.11c-1.8,0,7.34-55.5,7.34-55.5" style="fill:#fdfdfc"/></svg>