<svg xmlns="http://www.w3.org/2000/svg" viewBox="0 0 75 75"><title>資產 28</title><rect width="75" height="75" rx="12" ry="12" style="fill:#f4f0eb;opacity:0.9"/><path d="M25.08,5.51c-.08-4,37.88-2.45,42.85,0C72,7.51,71,12,69,12c-3,0-2.89-3-5-3.74C59.41,6.58,46.22,7.14,41.1,7.2,37.08,7.25,25.13,8.07,25.08,5.51Z" style="fill:#fff"/><path d="M69.41,49c4.05,0,2.59,17.71,0,20.73-2,2.32-13.41,4-13.41.72,0-3,9.11-2.51,9.89-3.53,1.7-2.22,1.85-7.7,1.79-10.17C67.64,54.8,66.8,49,69.41,49Z" style="fill:#fff"/><path d="M20,6c0,1.38-1.46,2-4.5,2S10,6.88,10,5.5,14,3,17,3,20,4.62,20,6Z" style="fill:#fff"/><path d="M16,63.5c0-24.32,19.23-44,43-44" style="fill:none;stroke:#000;stroke-miterlimit:10;stroke-width:4.71872111220391px"/></svg>