<svg xmlns="http://www.w3.org/2000/svg" viewBox="0 0 98.5 56.76"><title>資產 4</title><ellipse cx="49.25" cy="28.38" rx="49.25" ry="28.38" style="fill:#f4f0eb;opacity:0.9"/><path d="M24.53,8.69c-2-3,11.59-6.26,25-6,14.23.28,29.63,6.42,32,8,15,10,14,18,11,18s-4-9.26-14-16c-4.05-2.73-23-6-32-6S26.53,11.69,24.53,8.69Z" style="fill:#fff"/><path d="M88.74,38.27c1.41,2-3.21,8.42-16.21,13.42-10.14,3.9-26,4-21,0,1.13-.9,16.63-2.18,21-4C84.53,42.69,87.13,36,88.74,38.27Z" style="fill:#fff"/><path d="M22.45,11.15c.42,1.32-.79,2.35-3.68,3.27s-5.58.6-6-.71,3-3.58,5.91-4.5S22,9.84,22.45,11.15Z" style="fill:#fff"/></svg>