<svg xmlns="http://www.w3.org/2000/svg" viewBox="0 0 107.32 150.79"><title>資產 17</title><path d="M50.05,115.58l-.27-.55.17-.36h-.34l-.27-.55c0-.13,0-.28,0-.39-.62-1.28-1.26-2.55-1.9-3.83l-.57-1.15-1.12-1.87-.08-.58-.34-.59c-2.14-4.56-4.26-9.12-6.42-13.67-1.4-3-2.84-5.89-4.3-8.81-.11-.23-.47-.33-.71-.49l-.17-.34c.27-.61-.95-3.09-1.6-3.28L32,78.75l.16-.35H31.8L31.61,78a1.75,1.75,0,0,0-1-2l-.26-.55.17-.19h-.26L30,74.75a1.08,1.08,0,0,0,0-.39c-.75-1.69-1.47-3.4-2.29-5.06q-4.2-8.54-8.47-17a4.14,4.14,0,0,0-.61-.74L16.86,47.9c.61-.36.7.17.95.52a2.53,2.53,0,0,0,.63.47c0-.28.15-.61,0-.84-.33-.79-.74-1.54-1.14-2.34a8.53,8.53,0,0,0,.91-.31q6-3,12.08-6c.21-.1.31-.42.46-.63l.56-.29a2.47,2.47,0,0,0,.87,0c.74-.31,1.44-.71,2.17-1.05.23-.11.58-.26.73-.17.88.56,1.61-.06,2.36-.28.48-.14,1.1-.33.72-1.12,0-.09.12-.38.26-.45.68-.37,1.37-.71,2.07-1a.54.54,0,0,1,.51.12c.34.65.75.35,1.17.14,2.07-1,4.12-2.12,6.23-3.06,1.4-.63,1.44-.53,1.25-2l-.14-.3.37-.2,5.39-2.29L52.38,28.6c.52.44.9,1,1.38,1.11a2.37,2.37,0,0,0,1.5-.47c.76-.46,1.24-.26,1.44.15.64.13,1.21.08,1.38.32a18.88,18.88,0,0,1,1.23,2.38c-.51-.13-.8-.3-1-.23-.57.19-1.61.55-1.59.71.15,1-.69,1.23-1.28,1.71l.69,1.39c.64,1.28.64,1.28-.59,2a.84.84,0,0,0,0,1.52,4.65,4.65,0,0,0,.72.3c-1.19,1.37-1.11,1.34-.64,2.45s1.29.24,1.91.31c.52.71,1,1.35-.23,1.81-.14.06-.11.58-.15.89s0,.79-.15,1c-.39.39-1,.6-1.38,1a3.91,3.91,0,0,0-.59,1c.54.24.71,1.18,1.62.74,1.42-.67,1.44-.64,2.05.79.11.27.2.55.38,1.07l.72-1.18.79.74A24.57,24.57,0,0,1,63.3,49c.93-.26.9-1.88,2.08-1.55a5.89,5.89,0,0,1,.3,1.16c0,.69.23,1.41-.73,1.83-1.53.67-1.62,1.08-.88,2.56l.27.54c.78,1.57,1,1.66,2.53.86.61-.32,1.05-.31,1.48.26a10.87,10.87,0,0,0,.91.93l-1.34.67c-.79.42-1.6.8-2.37,1.27A11.67,11.67,0,0,0,64,58.68c-.18.16-.45.49-.39.61a48.87,48.87,0,0,0,2.46,4.86,2,2,0,0,0,1.77.5c.78-.25.37-1,.12-1.54a3.59,3.59,0,0,1-.16-.8l.34-.23,1.25,1.21c.73,0,1.46,1.36.75,2.41-.4.58-.74,1.57-1.93,1.39-.43-.06-1,.45-1.42.85s-.58.7-1.22.48-1.21-.13-.9.81l-.46-.07c-.28-.06-.62-.25-.82-.15s-.36.48-.53.74c.57.35,1.27-.26,1.44.57l-.72.35-.35.17a.07.07,0,0,1-.09-.08c-.4-.28-.87-.86-1.18-.79-.93.23-1.14-.36-1.45-.92l1.56-.77-3.66-7.35-1.79.89,1,2L51.2,67.06l.12,2,.25.64c.44.25,1.09-.72,1.12.41-.52,1.28.2,2.16,1.87,2.3.05.12.08.33.16.36,1.32.39,1.67,1.59,2.17,2.64a1.12,1.12,0,0,1,.06.89c-.11.18-.54.17-1,.29l.23-.84c-.39-.39-.65-.67-.94-.92a7,7,0,0,0-.71-.48,2.75,2.75,0,0,0,0,.87c.2.53.55,1,.72,1.55a.94.94,0,0,1-.23.85c-1,.59-2.12,1.09-3.33,1.69-.34-1.41-.66-2.65-2-3.13a.1.1,0,0,1,0-.14l.15-.85a2.08,2.08,0,0,0-3,1L45,77.27c-.59-.58-1.11,0-1.36.29a1.56,1.56,0,0,0,.08,2c1.72-.44,1.73-.43,2,.91-.74.45-1.47,1.09-2.17-.12-.09-.15-.47-.21-.69-.17a.65.65,0,0,0-.4.47c0,.78,1.51,2.23,2.35,2.23s.79.78,1.1,1.25c-.31.2-.61.42-.94.59a15.91,15.91,0,0,0-2,1,5.55,5.55,0,0,0-1,1.37c.08.39.38.58.95.25.29-.17.6-.3.9-.45,1.47-.72,1.24-.81,2,.63.2.39.31.9.63,1.13s.84.15,1.48.23a5,5,0,0,1-.79.67c-1.05.53-1.13.82-.49,1.86.1.16,0,.41.05.62l-.54-.63L46,91.29l0,.05h.1l.54.63c.19.07.4.24.57.2.57-.12,1-.05,1.18.57a2.38,2.38,0,0,0,.38.56l.87-.26c.45.32.81.55,1.15.81.76.58.52,1.4.4,2.12A.84.84,0,0,0,52.16,97c1.15-.41,1,.24,1.16,1s-.14,1.1-.77,1c-1-.11-.87.29-.57.91.1.2.16.43.25.68l-1.26.8c.3.71.66,1.38-.31,1.89s-1.37-.19-1.85-.91c-.77.57-1.92.48-2.2,1.6l-.89,0a3.84,3.84,0,0,0,.17.91c.37.83.8,1.63,1.2,2.45.73,1.48,1.45,3,2.22,4.42.1.2.43.28.65.41,0-.26,0-.52,0-.78,0-.06-.06-.12-.08-.18-.57-1.44-1.15-2.88-1.68-4.34a.7.7,0,0,1,.2-.64c.78-.44,1.59-.81,2.36-1.2.89,1.35.89,1.35,2.22.7l2-1c.22.93.34,1.66.58,2.35s1,1.56.83,2.07-1.23.9-1.94,1.24-.58.59-.33,1.11a11.91,11.91,0,0,1,.77,2.06c.14.53,0,.85-.73.82-1.41-.05-1.85.7-1.24,1.93.16.33.35.65.49,1,.21.53.52.61,1,.34,1-.53,2-1,3.07-1.54,2.08-1,2-1,3.11,1.09.43.85.16,1.25-.62,1.5a9,9,0,0,0-.87.23c-.57.25-1.28.42-.9,1.36.07.17-.14.65-.26.67a.94.94,0,0,1-.77-.26c-.36-.53-.74-.47-1.21-.22a6.34,6.34,0,0,1-.77.29l-.61-1.05-1.11.43c-1.29-.3-1.31-1.52-1.81-2.41a19,19,0,0,0-1.08-1.57L50.5,116ZM38.31,65.22c-.53.19-.86.55-.68,1.12.07.21.4.33.62.5l.31.14c.19.11.39.3.58.3,1,0,2.06,0,3,0l-2.31,1.81.11,1.48,7.71-3.83L46.75,65c-.66-.6-1.52-.57-2.66.12h0a15.31,15.31,0,0,0-1.51-.42,6.57,6.57,0,0,0-1.16,0l-.1-.36a9.61,9.61,0,0,1,1.24-.89c.57-.29.76-.62.38-1.17.33-.38.64-.77,1-1.13a1.48,1.48,0,0,0-.64-2.37l.17-.43c-1,.48-1.83.93-2.72,1.35-1.47.69-3,1.34-4.43,2.05-.12.06-.09.41-.13.62a.23.23,0,0,1,0,.11l-.62-.19c.74,1.77,1,1.83,2.51.86a20.55,20.55,0,0,1,2.1-1.06l.56.63-.45.49a3.08,3.08,0,0,0-2,2Zm9.38,8.55.06,0-.05,0a1.33,1.33,0,0,0,1-1.61c-.16-.57-1-1-1.48-1.42-.28-.24-.53-.63-.85-.68s-.69.22-1,.35l.32.41.8,1.61-.28.24-.93-.48c-.2-.23-.4-.45-.59-.68a1.87,1.87,0,0,0-2.3-.5,1.59,1.59,0,0,0-1,2.07,16.44,16.44,0,0,0,1.4,2.32c-.18.31-.31.81.63.89.4-.1,1.07.36,1.09-.53l.36-.18.31.17,0-.35,1.45-.73.35-.19.31-.23Zm6.49-12,.07-.8c-.47-1.11-.93-2.22-1.41-3.32-.42-.95-.26-1.28.77-1.54l2.65,4.61,1.87-.93c-.72-1.45-1.4-2.72-2-4a2.94,2.94,0,0,0-3.32-2,1.53,1.53,0,0,0,0-.18s0-.07,0-.07c-.4.17-.8.33-1.19.52a2.9,2.9,0,0,0-1.19,4.21,11.41,11.41,0,0,1,1,2c.09.26-.11.63-.18,1-.26-.2-.63-.35-.78-.61-.58-1.09-1.07-2.24-1.65-3.33-.12-.24-.45-.37-.68-.55s-.56-.41-.63-.35c-.44.36-1.33.19-1.3,1.09,0,.23-.16.51-.08.68Q47,60.09,48,62c.09.17.39.24.59.36l.19.36a2.06,2.06,0,0,0,.21.7c.9,1.13,1.78,1.31,3.76.47.87-.37,1.65-.91,1.41-2.09ZM53.1,47.72c.07-.33.28-.71.18-1-.3-.9-.78-1.74-1.07-2.65-.4-1.27-1.51-1.63-2.53-2-.53-.22-1.14-.09-.82.79A1.25,1.25,0,0,0,48,44.38c0,.17-.14.38-.21.57l-3-1.73.26,1.73c-.8-.92-1.55-1.15-2.41-.56-.29.14-.73.21-.83.43a6.8,6.8,0,0,0-.67,2.07,5.47,5.47,0,0,0,1.41,3.9.63.63,0,0,0,.3.25c.53.11,1.06.18,1.6.26l.37.65a30.6,30.6,0,0,0,3.41,0,7.79,7.79,0,0,0,4.45-2.28c.14-.14,0-.57,0-.86A.66.66,0,0,0,53.1,47.72Zm6.26,6.64c.58-.23,1.11-.39,1.59-.64a1,1,0,0,0,.45-1.5c-.18-.3-.71-.74-.81-.68-.52.33-1.21.6-1,1.49A4.69,4.69,0,0,1,59.36,54.36ZM62.66,64l.18-.09-1.58-3.18-.18.09Zm-3.15-5.48c.18,1,.77,1,1.48.82C60.86,58.27,60.08,58.74,59.51,58.53Zm3.79,9.54c1.14.37,1.36.21,1.31-.87ZM58.62,54.93c.1-.2.2-.31.2-.41s-.14-.16-.22-.23c-.08.09-.2.18-.21.27S58.49,54.75,58.62,54.93Zm4.66,10c0-.06,0-.15,0-.18s-.12,0-.18,0,0,.15,0,.18S63.22,64.91,63.28,64.91Z" style="fill:#3d435e"/><path d="M64.7,69.25c-.31-.94.32-1,.9-.81s.85-.09,1.22-.48,1-.91,1.42-.85c1.19.17,1.54-.81,1.93-1.39.71-1,0-2.44-.75-2.41l-1.25-1.21-.34.23a3.59,3.59,0,0,0,.16.8c.25.56.66,1.29-.12,1.54a2,2,0,0,1-1.77-.5,48.87,48.87,0,0,1-2.46-4.86c-.06-.12.21-.46.39-.61a11.67,11.67,0,0,1,1.51-1.16c.76-.47,1.57-.85,2.37-1.27l1.34-.67a10.87,10.87,0,0,1-.91-.93c-.42-.57-.86-.57-1.48-.26-1.55.8-1.74.71-2.53-.86L64.06,53c-.73-1.48-.65-1.89.88-2.56,1-.42.75-1.13.73-1.83a5.89,5.89,0,0,0-.3-1.16c-1.17-.33-1.14,1.29-2.08,1.55a24.57,24.57,0,0,0-2.72,1.11l-.79-.74-.72,1.18c-.18-.52-.26-.81-.38-1.07-.61-1.43-.63-1.46-2.05-.79-.91.43-1.08-.5-1.62-.74a3.91,3.91,0,0,1,.59-1c.42-.38,1-.58,1.38-1,.19-.19.11-.64.15-1s0-.83.15-.89c1.2-.46.76-1.1.23-1.81-.61-.07-1.39.93-1.91-.31s-.55-1.07.64-2.45a4.65,4.65,0,0,1-.72-.3.84.84,0,0,1,0-1.52c1.23-.75,1.23-.75.59-2l-.69-1.39c.59-.48,1.43-.68,1.28-1.71,0-.16,1-.52,1.59-.71.21-.07.49.1,1,.23a18.88,18.88,0,0,0-1.23-2.38c-.17-.24-.74-.19-1.38-.32-.2-.42-.68-.62-1.44-.15a2.37,2.37,0,0,1-1.5.47c-.48-.11-.86-.67-1.38-1.11l2.93-1.84L56.73,26q6.38,12.79,12.75,25.59Q88.22,89.31,106.95,127c.27.55.71,1.14-.07,1.66l-3.29,1.57c-.15,0-.34-.11-.46-.05-4.11,2-8.22,4-12.3,6Q81,141,71.19,145.93c-1.16.57-2.32,1.16-3.5,1.71-.56.27-1.15.47-1.73.7l-3.17-6.63-3.48-7.27c.19.15.46.26.56.46,1.1,2.16,2.17,4.34,3.29,6.59l.93,0,.09.18,2.09,4.21c1.18-.3,2.4-.18,3.09-1.34.1-.17.41-.22.63-.3,1-.35,1.93-.67,2.88-1a.84.84,0,0,0,.37-.51c.18-.6,1.81-2,2.36-1.83.81.29,1.35-.15,2-.43a9.56,9.56,0,0,1,1.91-.9,2.4,2.4,0,0,0,2.23-2.07c0-.23.47-.51.76-.57a9.81,9.81,0,0,1,2.14-.25c1.47,0,1.61-.13,1.38-1.57a.89.89,0,0,1,.36-.77,1.24,1.24,0,0,1,.9.25c.22.15.32.47.61.94.69-1.12,2.78-.46,2.46-2.66a8.77,8.77,0,0,0,1.5-.32,10.84,10.84,0,0,0,1.44-.82,10.47,10.47,0,0,0-.64-.94c-.58-.69-.5-1.17.3-1.59a5.46,5.46,0,0,0,1.5-.8,5.15,5.15,0,0,0,.69-1.55,9.41,9.41,0,0,1-1.25.06,5.71,5.71,0,0,1-1.39-.27.62.62,0,0,1-.24-.57.66.66,0,0,1,.57-.27,9.25,9.25,0,0,1,1.27.33l.6-.89-1.59-1.59,1.54-2c-.68-.27-1.17-.45-1.27-.76a7.9,7.9,0,0,0-1-2.16,1.09,1.09,0,0,0-1.33-.47c-.51.09-1,.26-1.5.39l-.12-.27a10.12,10.12,0,0,0,1.09-1.11,2.88,2.88,0,0,0,.28-.94l-.86-.08c-.14,0-.28,0-.47,0l.9-1.17a2,2,0,0,1,3,.15c.67,1.34,1.22,2.73,1.86,4.08.22.46.62.84.89,1.29a2.67,2.67,0,0,1,.52,1.13c.06,1.42.16,1.65,1.4,2.3,0-.31,0-.62,0-.94s0-.78.06-1.17.09-.52.12-.78.21-.79.06-1a1.73,1.73,0,0,0-1-.47c-.23,0-.5.12-.72.19-1.06-.93-.19-1.37.44-1.83l-.4-1.18c.64-.44,1.5-.77,1-1.71s-1.32-.4-2-.24l-.49-1c1.16-.4,1.47-1.16,1-2.19,1-.68,1.17-.66,1.64.33.16.33.18.72.36,1s.56.86.85,1.29l.22-.16L96.1,108.1a6.94,6.94,0,0,1-1.43.89c-.12,0-.75-.69-.73-1a6,6,0,0,1,.78-1.75l-1.26-2.54c-1.06.87-1.64.26-2.08-.59l-1.2.15c.25-.33.33-.52.47-.6a10.16,10.16,0,0,0,1.07-.57,3.92,3.92,0,0,0,.62-.82l-.93-.19-.19,0-.94-1.28c-.43.8.85,1.65-.33,2.08a19.87,19.87,0,0,1-2,.52,3.74,3.74,0,0,0-.9-.69,3.78,3.78,0,0,0-1.24.1,3.8,3.8,0,0,0,.52-.58,6.59,6.59,0,0,0,.25-.73c-.25,0-.54-.2-.75-.12-.46.16-.86.4-1.2-.2-.54-.93-.71-2.18-.18-2.48.8-.45.58-1,.23-1.5s-.82-1.2-1.27-1.86c-1,.72-1.65.3-2.12-.76a17,17,0,0,1-1.58.77c-.26.1-.77.12-.84,0a1.13,1.13,0,0,1-.07-1c.28-.38.78-.59,1.12-.93s.51-.63.44-.79c-.82-1.76-1.7-3.49-2.57-5.25-.44.14-.77.37-1.06.32a2.1,2.1,0,0,1-.95-.57.65.65,0,0,1,0-.58,9,9,0,0,1,2.65-1c1.11-.1,1.62-.38,1.56-1.35L82.69,82c-.15-.37-.23-.59-.33-.8a7.08,7.08,0,0,0-.74-1.43,1.07,1.07,0,0,0-.94-.33c-.68.29-1,.05-1.26-.53-.16-.35-.58-.94-.65-.9a7,7,0,0,0-2.58,1.41c-.75.9-.9,1.06-1.87.25a1.49,1.49,0,0,0-1.16-.07c-.13,0-.21.63-.13.92a4.52,4.52,0,0,0,.61,1.27c.45.69.29,1.1-.47,1.36a4.41,4.41,0,0,0-.54.27L71.2,80.5c1.2-.44,1.36-1.21.83-2.12.44-.51,1.44-.58.95-1.56s-1.16,0-1.76-.13l-.63-1.27a2.59,2.59,0,0,0,.59-.36,6.89,6.89,0,0,0,.52-.78c-.32,0-.72-.21-1-.09-.84.41-1.62.92-2.43,1.4l-.5-1c1.21-.1,1.18-.14.82-1.11s-1.07-1.29-2.17-1.54c.3.48.51.77.67,1.09s.23.6.15.68a2.08,2.08,0,0,1-.95.47c-.11,0-.3-.35-.46-.53s-.5-.54-.77-.79-.55-.29-.54-.37c.2-.88-.72-1.15-.94-1.79l.72-.35,1.22,1.57a2.34,2.34,0,0,0,.06-1.49A5.78,5.78,0,0,0,64.7,69.25Zm37,50.08c-.78-1.5-1.14-3.22-2.52-4.48C98.86,116.34,99.61,117.69,101.67,119.32Z" style="fill:#3e4467"/><path d="M64.18,141.73l-.09-.18c-.28-.57-.6-1.13-.85-1.72-1.11-2.68-3-5-3.52-7.95a1.05,1.05,0,0,0-.19-.35c-.57-.88-1.14-1.77-1.73-2.63s-1.09-1.5-1.64-2.24l-.3.17,2.19,4.4-.28.15-3.19-6.58-.1-.24-.66-1.34h0l.25.07,1.39,2.81a24.08,24.08,0,0,0,0-2.54,3.38,3.38,0,0,0-.54-1c-.22-.41-.4-.85-.65-1.24a5.44,5.44,0,0,0-.65-.72l-.18-.36,1.11-.43.61,1.05a6.34,6.34,0,0,0,.77-.29c.47-.25.85-.31,1.21.22A.94.94,0,0,0,58,121c.12,0,.33-.49.26-.67-.38-.93.33-1.1.9-1.36a9,9,0,0,1,.87-.23c.78-.26,1.06-.65.62-1.5-1.07-2.1-1-2.12-3.11-1.09-1,.51-2.06,1-3.07,1.54-.5.27-.81.18-1-.34-.14-.34-.33-.66-.49-1-.61-1.23-.17-2,1.24-1.93.72,0,.87-.3.73-.82a11.91,11.91,0,0,0-.77-2.06c-.25-.52-.25-.83.33-1.11s1.72-.66,1.94-1.24-.58-1.34-.83-2.07-.36-1.42-.58-2.35l-2,1c-1.32.66-1.32.66-2.22-.7-.77.38-1.59.76-2.36,1.2a.7.7,0,0,0-.2.64c.53,1.46,1.11,2.89,1.68,4.34,0,.06.09.12.08.18,0,.26,0,.52,0,.78-.22-.14-.54-.22-.65-.41-.76-1.46-1.48-2.94-2.22-4.42-.4-.81-.83-1.62-1.2-2.45a3.84,3.84,0,0,1-.17-.91l.89,0c.28-1.13,1.43-1,2.2-1.6.48.72.84,1.44,1.85.91s.61-1.19.31-1.89l1.26-.8c-.09-.25-.15-.47-.25-.68-.3-.62-.41-1,.57-.91.63.07.91-.26.77-1s0-1.39-1.16-1A.84.84,0,0,1,51.23,96c.12-.72.36-1.54-.4-2.12-.34-.26-.7-.49-1.15-.81l-.87.26a2.38,2.38,0,0,1-.38-.56c-.2-.62-.61-.69-1.18-.57-.17,0-.38-.13-.57-.2h0c0-.21,0-.46-.05-.62-.64-1-.56-1.33.49-1.86a5,5,0,0,0,.79-.67c-.65-.08-1.17,0-1.48-.23s-.43-.74-.63-1.13c-.73-1.44-.5-1.34-2-.63-.3.15-.61.28-.9.45-.57.34-.86.14-.95-.25a5.55,5.55,0,0,1,1-1.37,15.91,15.91,0,0,1,2-1c.33-.17.63-.39.94-.59-.31-.47-.25-1.25-1.1-1.25s-2.39-1.45-2.35-2.23a.65.65,0,0,1,.4-.47c.22,0,.6,0,.69.17.7,1.21,1.42.57,2.17.12-.25-1.34-.26-1.35-2-.91a1.56,1.56,0,0,1-.08-2c.26-.3.78-.87,1.36-.29-.5.43-1.81.51-.58,1.74.69-.34,1.42-.74,2.18-1.08,1.8-.82,2.2-.72,3.47.82a5.49,5.49,0,0,0,.67-.57c-.38-.6-.81-1.16-1.26-1.76l.27-.24c1.36.48,1.67,1.71,2,3.13,1.22-.6,2.3-1.1,3.33-1.69a.94.94,0,0,0,.23-.85c-.17-.54-.52-1-.72-1.55a2.75,2.75,0,0,1,0-.87,7,7,0,0,1,.71.48c.29.25.55.53.94.92l-.23.84c.43-.11.86-.11,1-.29a1.12,1.12,0,0,0-.06-.89c-.5-1-.85-2.24-2.17-2.64-.08,0-.11-.23-.16-.36.42.09,1.08,0,1.23.3.7,1.17,1.26,2.43,1.89,3.69L56.41,77c-.58.27-.71.65-.33,1.2s.51,1.15,1.33.74c1.38-.69,2.78-1.37,4.16-2.05l3.92-1.95-1.78-3.58-.13-.16-.31-.34.35-.17c.22.63,1.14.9.94,1.79,0,.08.37.22.54.37s.52.52.77.79.35.55.46.53a2.08,2.08,0,0,0,.95-.47c.09-.08,0-.47-.15-.68s-.37-.61-.67-1.09c1.09.26,1.81.57,2.17,1.54s.38,1-.82,1.11l.5,1,.18.36.27.54.09.18L69,77l0,1.54L67.44,77c-.53.52-.2,1,.07,1.5.46.83,1,1.64,1.38,2.49.11.23,0,.59-.07.89l-2.38-5-.26-.27-3.69,1.76c.07-1,.93-1,1.57-1.28s1-.48,1.45-.72l-.14-.28a19.43,19.43,0,0,0-6,2.4c-.06,0,.1.47.16.73a8.66,8.66,0,0,1,1-.34c.41-.09.83-.12,1.24-.17l-4.14,2.06c.24.48.43.83.59,1.19.38.87.73,1.74,1.1,2.62-.66-.17-2-2.51-1.9-3.4s.42-1.86-1.06-1.84c-.12,0-.22-.34-.37-.43-.5-.3-1.28-.58-1.45.07-.33,1.33-1.07,1.06-1.95.82-.2-.05-.44.07-.67.12a3.49,3.49,0,0,0-1-.45c-1.66-.19-2.3.39-2.37,2a2.69,2.69,0,0,1,0,.8c-.12.31-.36.81-.55.81a1.29,1.29,0,0,1-.95-.53A7,7,0,0,1,46.53,81c-.33.34-.73.56-.79.85a2.9,2.9,0,0,0,1.67,2.55c.91.28,1.67-.09,2.3-1.14.46.14,1.07.15,1.37.46.79.8.36,1.49-.54,2l.55,1c.63.09,1.31-.94,1.63.36a7.77,7.77,0,0,1,.3-.81,2.31,2.31,0,0,1,.75-.6c.06,0,.27.18.4.29s.32.3.48.45L47,90.16l.5,1,1.29-.64,1.43-.71c0,.26-.06.41-.07.56-.09,1.46.89,3.19,2.76,2.89a14.84,14.84,0,0,0,2.55-.89l.21,1.23c1.1-.55,2.11-1.08,3.16-1.56a7.47,7.47,0,0,1,1.27-.34l-7.72,3.84.52,1,2.47-1.23-.12.54,1.34,1.15c-1.24-.09-2.18.34-2.46,1.12-.39,1.08.17,2.23,1.46,3.09l-.18.92a2.68,2.68,0,0,0,1,.06c.75-.29,1.44-.72,2.19-1a3.43,3.43,0,0,0,2.28-2.35L61,100.8l1.75.35h0c.45.57.89,1.38,1.74.9a22.12,22.12,0,0,0,2.5-1.88c.36,1.82.75,2,2.38,1.23l5.3-2.63c.32.63.53,1.16.83,1.64s.66.92.76.87a10.13,10.13,0,0,0,1.52-1l.39-.12V100l-.58-.1-3.19-6.53c.94-.61,1.36,0,1.47.76.23,1.58,1.8,2.51,1.89,4.12,0,.09.1.17.15.26a19,19,0,0,1,1.38,2c.35.66.63,1.08,1.42.57a.69.69,0,0,1,.67.06,1,1,0,0,1,.15.79,12.88,12.88,0,0,1-1.11,2.45c-.41.63-.18,1.66-1.19,1.92a4.15,4.15,0,0,0-1.31.46c-.24.17-.3.6-.44.92a2.64,2.64,0,0,0,.9.14,4.84,4.84,0,0,0,1-.47c1.14-.53,1.29-.48,1.85.62L73,112l3.22,6.48,1.67-.83-2.22-4.46,1.66-.83,2,3.93,1.76-.88-1.93-3.88,1.59-.79c.35.82.74,1.56,1,2.34.78,2.44,1,2.59,3,1.17a2,2,0,0,1,.37.34c.41.62.8,1.25,1.22,1.87,0,0,.24-.06.36-.1a10.11,10.11,0,0,1,.59,1c.16.37.21.77.35,1.15a2.13,2.13,0,0,0,3,1.23,2.54,2.54,0,0,1,.94.05c-.09.25-.11.56-.27.73a4,4,0,0,1-1.21.93c-.87.35-1.58.75-1.78,1.78a2.41,2.41,0,0,1-2,1.91l-.69-.79-.22.14c.19.37.52.75.53,1.13,0,.58,0,1.47-.35,1.7a36.2,36.2,0,0,1-3.85,2c-.15-.9-.4-1.54-1.4-1.37-.18,0-.45-.15-.6-.31a1,1,0,0,0-1.3-.33,1,1,0,0,1-1.47-.72,5.56,5.56,0,0,0-.4-.81c-.29-.56-.68-.82-1.3-.44s-1.46.83-2.12,1.33a1,1,0,0,0-.13.91,20.54,20.54,0,0,0,.94,1.94,11.85,11.85,0,0,1-2.77,1.27c-.26,0-.74-1.13-1.12-1.75L70,129a1.14,1.14,0,0,0-1.62-.2c-.64.34-1.53.58-1.24,1.55.23.76.41,1.73,1.64,1.76a12.18,12.18,0,0,1-1.43.82,1.84,1.84,0,0,1-2.6-.39,25.29,25.29,0,0,1-1.32-2.24c-.19-.32-.43-.61-.77-1.09L61,132.84l-.38,0,.48,1c1.08,2.17,2.16,4.34,3.23,6.51C64.6,140.78,65,141.33,64.18,141.73Zm14.55-41.54v0l-.2.19.08,0ZM61.18,113.46l5.38-2.67L66,109.7l-4.8,2.38c-1,.49-1,.59-.17,1.36-.81,1.1-.72,1.62.56,3l.39-2.31Zm19.17,14,3.19-4.17a2.46,2.46,0,0,0,3.25,0c1.09-.94,1.21-1.92.43-3.53-.54-1.12-1.1-2.24-1.59-3.38-.28-.66-.61-.73-1.24-.42-2.32,1.15-4.67,2.25-7,3.38-.45.22-1.13.38-.72,1.15.31.58.46,1.43,1.5.93a11.12,11.12,0,0,1,1.76-.64c.41-.12,1.16-.3,1.22-.18a3.56,3.56,0,0,1,.39,1.67c0,.34-.4.67-.65,1-.59.72-1.19,1.43-1.83,2.19Zm-7.93-20.87,6.7-3.33-1-2-8.52,4.23L72.31,111l1.62-.81ZM60.94,111c-.57-.86-1-1.49-.14-2s2-1,3.09-1.55l.71,1.43.81-.47-.51-1.17,1.32-1c-.43-1.34-1.27-.54-2-.42l-.66-1.1-.78.46.45,1.19-1.22.61a23.94,23.94,0,0,0-2.39,1.28,2,2,0,0,0,0,2.72C59.79,111.23,60.35,111,60.94,111Zm-3.61-7.68c-.78,0-1,.43-.75,1.07a5.68,5.68,0,0,0,.58,1.27,1.71,1.71,0,0,0,2,.81,1.75,1.75,0,0,0,1.39-1.85,4.18,4.18,0,0,1,0-1.1c.08-.28.34-.66.57-.7a1,1,0,0,1,.79.44,5.19,5.19,0,0,1,.43,1.2c.9,0,1-.43.79-1.08a4,4,0,0,0-.52-1,1.79,1.79,0,0,0-2-.82,1.68,1.68,0,0,0-1.29,1.72,6.79,6.79,0,0,1-.07,1.2c-.07.28-.32.7-.53.72a1.12,1.12,0,0,1-.91-.4A6.51,6.51,0,0,1,57.34,103.34Zm10.93,13.29c.36-.37.7-.56.74-.8.12-.72-1.2-2.45-2-2.64a3.46,3.46,0,0,0-3.74,1.11,2.9,2.9,0,0,0-.09,3.72c.5.82.53.85,1.29.11a1.93,1.93,0,0,1-.66-2.49,2.55,2.55,0,0,1,2.43-1.33C67.55,114.34,67.89,115.35,68.27,116.63Zm.1-8.09c-.36.22-.89.36-1,.65s.23.73.37,1.12l1.2-.6Zm-10.79-1.27a3.93,3.93,0,0,0-.52,1c0,.16.32.56.45.54a8.34,8.34,0,0,0,1.41-.51Zm-9.37-19,.14.31,1.26-.47a4.8,4.8,0,0,0-.28-.46C48.95,87.81,48.58,88,48.21,88.24ZM66.65,75.49l-.24.31.56.37.17-.22Zm20.62,48.68,0-.15-.72.15.05.21Z" style="fill:#3b4155"/><path d="M66,148.34c.58-.23,1.17-.44,1.73-.7,1.17-.55,2.33-1.14,3.5-1.71a2.82,2.82,0,0,0,.72-.14c4.79-2.3,9.58-4.58,14.35-6.93,5.79-2.85,11.55-5.75,17.33-8.64l3.29-1.57c.19.79-.18,1.2-.88,1.55q-20.5,10.16-41,20.36a2,2,0,0,1-2.8-1L44,112.95Q27.86,80.47,11.72,48c-.25-.51-.87-1-.13-1.69.11-.1-.16-.67-.32-1q-5.45-11-10.92-22a2.1,2.1,0,0,1,1.06-3.18L41.3.31c.59-.3,1.15-.6,1.79.18-.35.2-.67.4-1,.56L2.38,20.8c-1.19.59-1.19.59-.61,1.75Q7.35,33.77,12.92,45c.24.49.83,1,.07,1.58-.06,0,0,.32.06.47s.23.49.35.73Q38.49,98.23,63.6,148.7c.18.37.58,1,.73.95a8.31,8.31,0,0,0,1.79-.86A2.4,2.4,0,0,0,66,148.34Z" style="fill:#f3f3f4"/><path d="M58,131.22l-2.19-4.4.3-.17c.55.75,1.11,1.48,1.64,2.24s1.16,1.75,1.73,2.63a1.05,1.05,0,0,1,.19.35c.51,2.94,2.41,5.27,3.52,7.95.24.59.56,1.15.85,1.72l-.93,0c-1.12-2.26-2.2-4.43-3.29-6.59-.1-.2-.37-.31-.56-.46l-.45-.91Z" style="fill:#3d435e"/><path d="M31.35,38.47l-.56.29c-4.08,2-8.15,4.06-12.26,6-1.07.52-2,1-2,2.38l-.78-1.38c2.14-1.06,4.2-2.1,6.27-3.12L49.08,29.42a5,5,0,0,1,.47-.18l.14.3-.91.44-.54.27L44.81,32,42.2,33.06Z" style="fill:#3b4155"/><path d="M18.62,51.53a4.14,4.14,0,0,1,.61.74q4.25,8.51,8.47,17c.82,1.66,1.54,3.37,2.29,5.06a1.08,1.08,0,0,1,0,.39c-2.4-4.84-4.82-9.67-7.2-14.52C21.39,57.34,20,54.43,18.62,51.53Z" style="fill:#3b4155"/><path d="M33.91,82.74c.24.16.6.27.71.49,1.45,2.93,2.9,5.86,4.3,8.81,2.16,4.55,4.28,9.11,6.42,13.67v0a3.71,3.71,0,0,1-.47-.6q-5.43-11-10.84-22A2.14,2.14,0,0,1,33.91,82.74Z" style="fill:#3b4155"/><path d="M16.51,47.17c0-1.37,1-1.86,2-2.38,4.1-2,8.18-4,12.26-6-.15.22-.26.53-.46.63q-6,3-12.08,6a8.53,8.53,0,0,1-.91.31c.4.8.81,1.55,1.14,2.34.1.23,0,.56,0,.84a2.53,2.53,0,0,1-.63-.47c-.24-.35-.34-.87-.95-.52Z" style="fill:#3e4467"/><path d="M53.65,120.56a5.44,5.44,0,0,1,.65.72c.25.39.43.82.65,1.24a3.38,3.38,0,0,1,.54,1,24.08,24.08,0,0,1,0,2.54l-1.39-2.81,0-.29-.23.23h0l-.47-.93a6.37,6.37,0,0,1,0-1A4.33,4.33,0,0,1,53.65,120.56Z" style="fill:#3d435e"/><path d="M53.65,120.56a4.33,4.33,0,0,0-.28.78,6.37,6.37,0,0,0,0,1L51,117.38l-.37-1.17a19,19,0,0,1,1.08,1.57c.49.89.52,2.12,1.81,2.41Z" style="fill:#3e4467"/><path d="M56.73,26l-1.42.71-5.39,2.29C52.06,28,54.2,27,56.34,26,56.43,25.91,56.6,26,56.73,26Z" style="fill:#3b4155"/><path d="M32.14,79.12c.66.19,1.87,2.67,1.6,3.28Z" style="fill:#3b4155"/><path d="M30.64,76a1.75,1.75,0,0,1,1,2Z" style="fill:#3b4155"/><path d="M47.44,109.9c.63,1.28,1.27,2.55,1.9,3.83.05.1,0,.26,0,.39l-.39-.79,0-.06-1.63-3.33Z" style="fill:#3b4155"/><path d="M58,131.22l.82,2.31-1.1-2.16Z" style="fill:#3e4467"/><path d="M47.44,109.9l-.15,0-.48-1.09.06-.09Z" style="fill:#3e4467"/><path d="M46.87,108.76l-.06.09-1.06-2Z" style="fill:#3b4155"/><path d="M50.59,116.21l.37,1.17-.81-1.62.35.27Z" style="fill:#3b4155"/><path d="M45.33,105.74v0l.34.59Z" style="fill:#3e4467"/><path d="M49.61,114.67H50l-.17.36Z" style="fill:#3e4467"/><path d="M31.8,78.39h.34l-.16.35Z" style="fill:#3b4155"/><path d="M50.5,116l-.35-.27-.1-.18Z" style="fill:#3e4467"/><path d="M30.29,75.3h.26l-.17.19Z" style="fill:#3b4155"/><polygon points="48.92 113.27 48.96 113.33 48.88 113.33 48.92 113.27" style="fill:#3e4467"/><path d="M54.48,124.56l.1.24Z" style="fill:#3e4467"/><path d="M63.71,71.37l1.78,3.58-3.92,1.95c-1.39.69-2.78,1.36-4.16,2.05-.82.41-1-.26-1.33-.74s-.24-.92.33-1.2l1.27-.63c-.63-1.27-1.19-2.52-1.89-3.69-.15-.25-.8-.21-1.23-.3-1.67-.14-2.39-1-1.87-2.3,1.75.08,3.5.12,5.24.24s3.5.31,5.25.47a.07.07,0,0,0,.09.08l.31.34Zm-4.22,4.12,3.13-1.55c-.49-1.37-2.38-1.89-4.55-1.3Z" style="fill:#f3f3f4"/><path d="M48.81,62.71l-.19-.36-2.43-4.89c0-.9.87-.73,1.3-1.09.07-.06.41.23.63.35.69,1.42,1.38,2.84,2.06,4.27.28.58.73.84,1.3.58s.61-.82.35-1.38-.61-1.27-.92-1.91c-1-2.16-.38-3.66,1.89-4.47a2.94,2.94,0,0,1,3.32,2c.59,1.31,1.27,2.58,2,4l-1.87.93-2.65-4.61c-1,.26-1.18.59-.77,1.53.48,1.1.94,2.21,1.41,3.32l-.07.8h0C52.88,64.41,50.75,64.77,48.81,62.71Z" style="fill:#f3f3f4"/><path d="M46.75,65l.86,1.73-7.71,3.83-.11-1.48,5.65-2.81L38.56,67l-.31-.14c-.3-.55-.47-1.1.06-1.62h0l2-2,.45-.49,2-2a39.85,39.85,0,0,0-5,2.29c-.82.45-1.3.37-1.53-.57a.22.22,0,0,0,0-.11c.35-.19.68-.4,1-.58l6.06-3a1.48,1.48,0,0,1,.64,2.37c-.34.36-.66.75-1,1.13L39.71,65.5l.11.21,4.27-.6h0Z" style="fill:#f3f3f4"/><path d="M51.31,69l-.12-2,6.47-3.22-1-2,1.79-.89,3.66,7.35-1.56.77-2.38-3c-1.62.81-3.32,1.69-5.05,2.49A9.42,9.42,0,0,1,51.31,69Z" style="fill:#f3f3f4"/><path d="M42.69,44.39c.86-.6,1.61-.36,2.41.56l-.26-1.73,3,1.73c.33.23.67.44,1,.7.82.68.92,2.16,0,2.5a5.83,5.83,0,0,1-3,.25c-.45-.08-.75-1-1.17-1.67l1.26-.38-.43-1.09-1.77,1.13a6.2,6.2,0,0,1,.72,2.32c-.07.76-.78,1.45-1.17,2.11-1.77-1.48-1-3.47-1.43-5.17,0-.12.39-.31.53-.51A3.79,3.79,0,0,0,42.69,44.39Z" style="fill:#f3f3f4"/><path d="M45.62,70.82l-.32-.41c.35-.13.72-.4,1-.35s.57.44.85.68c.43,1,1.13,1.89.52,3l.05,0-.06,0-.4.46-.31.23-.35.19-1.45.73-.36.18-.36.18-1.09.53c-.94-.08-.82-.58-.63-.89a16.44,16.44,0,0,1-1.4-2.32,1.59,1.59,0,0,1,1-2.07,1.87,1.87,0,0,1,2.3.5c.19.23.4.46.59.68l.7,1.41C47.11,72.73,47,71.79,45.62,70.82ZM45,74c-.34-.54-.64-1.08-1-1.56s-.93-.65-1.27-.15a1.64,1.64,0,0,0-.08,1.41C43.08,74.52,43.82,74.58,45,74Z" style="fill:#f3f3f4"/><path d="M44.81,32l3.44-1.71.54-.27.91-.44c.19,1.47.15,1.38-1.25,2-2.11.95-4.16,2-6.23,3.06-.42.21-.83.51-1.17-.14a.54.54,0,0,0-.51-.12c-.7.31-1.4.66-2.07,1-.14.07-.31.36-.26.45.38.79-.24,1-.72,1.12-.76.22-1.48.83-2.36.28-.15-.1-.5.06-.73.17-.73.34-1.43.74-2.17,1.05a2.47,2.47,0,0,1-.87,0L42.2,33.06Z" style="fill:#3e4467"/><path d="M42.69,44.39a3.79,3.79,0,0,1-.3.75c-.14.2-.55.39-.53.51.4,1.7-.34,3.69,1.43,5.17.39-.66,1.1-1.35,1.17-2.11a6.2,6.2,0,0,0-.72-2.32l1.77-1.13.43,1.09-1.26.38c.42.64.72,1.58,1.17,1.67a5.83,5.83,0,0,0,3-.25c.88-.34.77-1.82,0-2.5-.31-.26-.65-.47-1-.7.08-.19.24-.4.21-.57a1.25,1.25,0,0,1,.83-1.56l.1,0-.61,1.31c.5.39,1,.7,1.38,1.09A2.4,2.4,0,0,1,50.35,48a2.24,2.24,0,0,1-2.3,1.27l-1.7-.06a1.8,1.8,0,0,0-1.84,2l0,.06c-.53-.08-1.07-.16-1.6-.26a.63.63,0,0,1-.3-.25,5.47,5.47,0,0,1-1.41-3.9,6.8,6.8,0,0,1,.67-2.07C42,44.6,42.4,44.53,42.69,44.39Z" style="fill:#3b4155"/><path d="M51.31,69a9.42,9.42,0,0,0,1.8-.44c1.73-.8,3.43-1.68,5.05-2.49l2.38,3c.31.57.52,1.16,1.45.92.31-.08.78.51,1.18.79-1.75-.16-3.5-.35-5.25-.47s-3.49-.16-5.24-.24c0-1.13-.68-.16-1.12-.41Zm2.11.17.21.38c.54-.24,1.27-.33,1.59-.74.7-.9,1-1.08,2.4-.47l-1.27,1,3.09.36c-.09-.24-.2-.47-.28-.71a3.21,3.21,0,0,1-.24-.85c0-1.12-.61-1.52-1.62-1S55,68.2,53.87,68.78A2.22,2.22,0,0,0,53.42,69.2Z" style="fill:#3b4155"/><path d="M49.74,76.17l-.27.24c.45.6.89,1.16,1.26,1.76a5.49,5.49,0,0,1-.67.57c-1.27-1.54-1.67-1.64-3.47-.82-.75.34-1.49.73-2.18,1.08-1.24-1.23.08-1.31.58-1.74l1.89-1.08,2.43-.81.41.66A.1.1,0,0,0,49.74,76.17Z" style="fill:#f3f3f4"/><path d="M52.81,53.82c-2.27.81-2.91,2.31-1.89,4.47.3.64.61,1.27.92,1.91s.25,1.1-.35,1.38-1,0-1.3-.58c-.68-1.43-1.37-2.85-2.06-4.27.23.18.55.32.68.55.57,1.1,1.07,2.24,1.65,3.33.14.27.51.41.78.61.07-.32.27-.69.18-1a11.41,11.41,0,0,0-1-2,2.9,2.9,0,0,1,1.19-4.21c.39-.19.79-.35,1.19-.52,0,0,0,0,0,.07A1.53,1.53,0,0,1,52.81,53.82Z" style="fill:#3b4155"/><path d="M38.56,67l6.88-.71-5.65,2.81,2.31-1.81c-.89,0-1.92,0-3,0C38.95,67.27,38.76,67.08,38.56,67Z" style="fill:#3b4155"/><path d="M52.73,48.8c0,.3.14.73,0,.86a7.79,7.79,0,0,1-4.45,2.28,30.6,30.6,0,0,1-3.41,0l-.37-.65,0-.06c1.14.05,2.28.13,3.41.15a4.86,4.86,0,0,0,4.74-2.63Z" style="fill:#3b4155"/><path d="M44.09,65.11l-4.27.6-.11-.21,3.23-3.25c.38.56.18.88-.38,1.17a9.61,9.61,0,0,0-1.24.89l.1.36a6.57,6.57,0,0,1,1.16,0A15.31,15.31,0,0,1,44.09,65.11Z" style="fill:#3b4155"/><path d="M59.36,54.36a4.69,4.69,0,0,0,.2-1.33c-.18-.89.51-1.16,1-1.49.1-.06.63.38.81.68a1,1,0,0,1-.45,1.5C60.47,54,59.94,54.13,59.36,54.36Z" style="fill:#3e4467"/><path d="M36.18,62.45c.23.94.71,1,1.53.57a39.85,39.85,0,0,1,5-2.29l-2,2-.56-.63a20.55,20.55,0,0,0-2.1,1.06c-1.51,1-1.77.92-2.51-.86Z" style="fill:#3b4155"/><path d="M64.7,69.25a5.78,5.78,0,0,1,.91,1.17,2.34,2.34,0,0,1-.06,1.49l-1.22-1.57c-.17-.84-.87-.23-1.44-.57.17-.26.29-.62.53-.74s.54.1.82.15Z" style="fill:#3b4155"/><path d="M48.85,42.83c-.32-.88.29-1,.82-.79,1,.42,2.13.78,2.53,2,.29.9.77,1.75,1.07,2.65.09.28-.11.66-.18,1l-.14,0a5.51,5.51,0,0,0-3-5c-.51-.31-.77-.21-1,.22Z" style="fill:#3b4155"/><path d="M43.29,58.75l-6.06,3c-.35.18-.69.39-1,.58,0-.21,0-.57.13-.62,1.46-.71,3-1.36,4.43-2.05.89-.42,1.76-.87,2.72-1.35Z" style="fill:#3b4155"/><path d="M48.81,62.71c1.94,2.06,4.07,1.7,5.38-.91.24,1.18-.54,1.72-1.41,2.09-2,.84-2.85.66-3.76-.47A2.06,2.06,0,0,1,48.81,62.71Z" style="fill:#3b4155"/><path d="M46.19,57.47l2.43,4.89c-.2-.12-.5-.18-.59-.36q-1-1.9-1.91-3.84C46,58,46.16,57.7,46.19,57.47Z" style="fill:#3b4155"/><path d="M49.73,76l-.41-.66-2.43.81a2.08,2.08,0,0,1,3-1Z" style="fill:#3b4155"/><path d="M47.69,73.78c.61-1.14-.09-2.06-.52-3,.52.46,1.32.85,1.48,1.42A1.33,1.33,0,0,1,47.69,73.78Z" style="fill:#3b4155"/><path d="M62.66,64l-1.58-3.18.18-.09,1.58,3.18Z" style="fill:#3e4467"/><path d="M45.62,70.82c1.36,1,1.49,1.91.28,2.77l-.7-1.41.93.48.28-.24Z" style="fill:#3b4155"/><path d="M59.51,58.53c.57.21,1.35-.27,1.48.82C60.28,59.49,59.69,59.56,59.51,58.53Z" style="fill:#3e4467"/><path d="M63.3,68.07l1.31-.87C64.66,68.28,64.44,68.45,63.3,68.07Z" style="fill:#3e4467"/><path d="M46.75,65l-2.66.12C45.23,64.43,46.09,64.39,46.75,65Z" style="fill:#3b4155"/><path d="M40.28,63.19l-2,2A3.08,3.08,0,0,1,40.28,63.19Z" style="fill:#3b4155"/><path d="M38.31,65.22c-.53.52-.36,1.07-.06,1.62-.21-.16-.55-.29-.62-.5C37.45,65.77,37.78,65.41,38.31,65.22Z" style="fill:#3b4155"/><path d="M53.1,47.72a.66.66,0,0,1-.36,1.08l-.06,0,.29-1.1Z" style="fill:#3b4155"/><path d="M43.37,76.27l1.09-.53C44.45,76.63,43.77,76.17,43.37,76.27Z" style="fill:#3b4155"/><path d="M58.62,54.93c-.12-.18-.25-.28-.24-.37s.14-.18.21-.27c.08.08.21.15.22.23S58.72,54.73,58.62,54.93Z" style="fill:#3e4467"/><path d="M54.18,61.81l.07-.8Z" style="fill:#3b4155"/><path d="M47.29,74.23l.4-.46Z" style="fill:#3b4155"/><path d="M63.28,64.91c-.06,0-.14,0-.18,0s0-.11,0-.18.14,0,.18,0S63.28,64.85,63.28,64.91Z" style="fill:#3e4467"/><path d="M46.13,91.35l.54.63h0Z" style="fill:#3b4155"/><path d="M44.82,75.56l.36-.18,0,.35Z" style="fill:#3b4155"/><path d="M46.63,74.65l.35-.19Z" style="fill:#3b4155"/><polygon points="46.13 91.35 46.03 91.35 46.05 91.3 46.13 91.35" style="fill:#3b4155"/><path d="M68.48,75.95l-.18-.36c.8-.47,1.59-1,2.43-1.4.25-.12.64.05,1,.09a6.89,6.89,0,0,1-.52.78,2.59,2.59,0,0,1-.59.36l.63,1.27c.6.09,1.25-.9,1.76.13s-.51,1-.95,1.56c.52.92.37,1.69-.83,2.12.5,1,1,1.94,1.4,2.88l-.23.09.57,1.36.29-.12c-.22-.44-.44-.88-.63-1.34a4.79,4.79,0,0,1,.57-.28c.75-.25.92-.67.47-1.36A4.52,4.52,0,0,1,73,80.48c-.08-.29,0-.88.13-.92a1.49,1.49,0,0,1,1.16.07c1,.81,1.12.65,1.87-.25A7,7,0,0,1,78.75,78c.07,0,.49.56.65.9.28.58.58.82,1.26.53a1.07,1.07,0,0,1,.94.33,7.08,7.08,0,0,1,.74,1.43c.1.21.18.43.33.8l-2.77,1.2c.06,1-.46,1.26-1.56,1.35a9,9,0,0,0-2.65,1,.65.65,0,0,0,0,.58,2.1,2.1,0,0,0,.95.57c.29.05.62-.17,1.06-.32.87,1.75,1.76,3.48,2.57,5.25.08.17-.22.58-.44.79s-.85.55-1.12.93a1.13,1.13,0,0,0,.07,1c.07.12.58.1.84,0a17,17,0,0,0,1.58-.77c.47,1.06,1.12,1.48,2.12.76.45.66.88,1.25,1.27,1.86s.57,1-.23,1.5c-.53.3-.36,1.55.18,2.48.35.6.74.36,1.2.2.21-.07.5.07.75.12a6.59,6.59,0,0,1-.25.73,3.8,3.8,0,0,1-.52.58,3.78,3.78,0,0,1,1.24-.1,3.74,3.74,0,0,1,.9.69,19.87,19.87,0,0,0,2-.52c1.18-.43-.1-1.27.33-2.08l.94,1.28.19,0,.93.19a3.92,3.92,0,0,1-.62.82,10.16,10.16,0,0,1-1.07.57c-.14.08-.22.27-.47.6l1.2-.15c.44.85,1,1.45,2.08.59l1.26,2.54a6,6,0,0,0-.78,1.75c0,.35.61,1.08.73,1a6.94,6.94,0,0,0,1.43-.89l3.06,6.15-.22.16c-.29-.43-.61-.84-.85-1.29s-.2-.71-.36-1c-.47-1-.6-1-1.64-.33.51,1,.2,1.78-1,2.19l.49,1c.71-.17,1.55-.76,2,.24s-.4,1.27-1,1.71l.4,1.18c-.63.46-1.5.9-.44,1.83.22-.06.5-.23.72-.19a1.73,1.73,0,0,1,1,.47c.15.2,0,.65-.06,1s-.1.52-.12.78-.05.78-.06,1.17,0,.62,0,.94c-1.24-.64-1.34-.88-1.4-2.3a2.67,2.67,0,0,0-.52-1.13c-.27-.44-.67-.82-.89-1.29-.65-1.35-1.19-2.75-1.86-4.08a2,2,0,0,0-3-.15l-.9,1.17c.19,0,.33,0,.47,0l.86.08a2.88,2.88,0,0,1-.28.94,10.12,10.12,0,0,1-1.09,1.11l.12.27c.5-.13,1-.3,1.5-.39a1.09,1.09,0,0,1,1.33.47,7.9,7.9,0,0,1,1,2.16c.11.31.6.49,1.27.76l-1.54,2,1.59,1.59-.6.89a9.25,9.25,0,0,0-1.27-.33.66.66,0,0,0-.57.27.62.62,0,0,0,.24.57,5.71,5.71,0,0,0,1.39.27,9.41,9.41,0,0,0,1.25-.06,5.15,5.15,0,0,1-.69,1.55,5.46,5.46,0,0,1-1.5.8c-.8.42-.88.91-.3,1.59a10.47,10.47,0,0,1,.64.94,10.84,10.84,0,0,1-1.44.82,8.77,8.77,0,0,1-1.5.32c.31,2.19-1.77,1.53-2.46,2.66-.29-.46-.39-.78-.61-.94a1.24,1.24,0,0,0-.9-.25.89.89,0,0,0-.36.77c.23,1.44.09,1.58-1.38,1.57a9.81,9.81,0,0,0-2.14.25c-.29.06-.72.34-.76.57a2.4,2.4,0,0,1-2.23,2.07,9.56,9.56,0,0,0-1.91.9c-.62.28-1.15.72-2,.43-.55-.2-2.18,1.22-2.36,1.83a.84.84,0,0,1-.37.51c-.95.37-1.92.7-2.88,1-.22.08-.53.13-.63.3-.69,1.15-1.91,1-3.09,1.34l-2.09-4.21c.78-.4.42-.95.18-1.45-1.07-2.17-2.15-4.34-3.23-6.51l-.48-1,.38,0,1.66-3.64c.34.48.58.77.77,1.09a25.29,25.29,0,0,0,1.32,2.24,1.84,1.84,0,0,0,2.6.39,12.18,12.18,0,0,0,1.43-.82c-1.23,0-1.41-1-1.64-1.76-.3-1,.59-1.2,1.24-1.55A1.14,1.14,0,0,1,70,129l.05.08c.38.62.86,1.8,1.12,1.75A11.85,11.85,0,0,0,74,129.56a20.54,20.54,0,0,1-.94-1.94,1,1,0,0,1,.13-.91c.66-.5,1.41-.89,2.12-1.33s1-.12,1.3.44a5.56,5.56,0,0,1,.4.81,1,1,0,0,0,1.47.72,1,1,0,0,1,1.3.33c.15.16.42.34.6.31,1-.17,1.25.47,1.4,1.37a36.2,36.2,0,0,0,3.85-2c.35-.23.36-1.12.35-1.7,0-.38-.34-.75-.53-1.13l.22-.14.69.79a2.41,2.41,0,0,0,2-1.91c.2-1,.91-1.42,1.78-1.78a4,4,0,0,0,1.21-.93c.17-.17.19-.48.27-.73a2.54,2.54,0,0,0-.94-.05,2.13,2.13,0,0,1-3-1.23c-.14-.37-.2-.78-.35-1.15a10.11,10.11,0,0,0-.59-1c-.12,0-.33.13-.36.1-.42-.61-.81-1.25-1.22-1.87a2,2,0,0,0-.37-.34l-.31-.69.52-.2a12.07,12.07,0,0,1-.69-1.05c-.74-1.44-1.45-2.89-2.18-4.33l-.29.17-.62-.22c-.56-1.1-.71-1.16-1.85-.62a4.84,4.84,0,0,1-1,.47,2.64,2.64,0,0,1-.9-.14c.14-.32.2-.75.44-.92a4.15,4.15,0,0,1,1.31-.46c1-.26.78-1.29,1.19-1.92a12.88,12.88,0,0,0,1.11-2.45,1,1,0,0,0-.15-.79.69.69,0,0,0-.67-.06c-.79.51-1.07.09-1.42-.57a19,19,0,0,0-1.38-2c-.06-.08-.15-.17-.15-.26-.09-1.62-1.65-2.55-1.89-4.12-.11-.74-.53-1.38-1.47-.76l0,0-1.45-1.69-.18-1.72h.44l.23.12-.23-.12L73,89.51c.56-.19.72-.53.37-1s-.67-1-1-1.55l-.17.11L73,88.61h0c-.24-.33-.49-.66-.72-1-.36-.56-.71-1.14-1.06-1.71l-.56-1.54h0c-.33-.62-.64-1.26-1-1.85-.1-.16-.42-.18-.64-.26l-.16-.37c0-.3.18-.66.07-.89-.41-.85-.91-1.66-1.38-2.49-.27-.49-.6-1-.07-1.5L69,78.57,69,77l.21-.28-.39-.08-.09-.18C68.95,76.17,69.14,75.84,68.48,75.95ZM66,135.39c-.77-1.51-.52-1.54-1.88-.85-1.89,1-1.84.62-1.11,2.09.92,1.83.58,1.78,2.12,1C66.93,136.73,66.82,137.1,66,135.39Z" style="fill:#3d435e"/><path d="M103.59,130.23c-5.78,2.88-11.54,5.78-17.33,8.64-4.76,2.35-9.56,4.63-14.35,6.93a2.82,2.82,0,0,1-.72.14Q81,141,90.83,136.16c4.09-2,8.2-4,12.3-6C103.25,130.12,103.44,130.21,103.59,130.23Z" style="fill:#3b4155"/><path d="M101.67,119.32c-2.06-1.63-2.81-3-2.52-4.48C100.52,116.1,100.88,117.83,101.67,119.32Z" style="fill:#3d435e"/><path d="M62.73,101.15,61,100.8l-.08-1.94-.26-.94c.23-.82-1.08-1.55.13-2.4l-1-.21.9-2.38.23-.39.34-.21-.67-.48-.51-.12a7.47,7.47,0,0,0-1.27.34c-1,.48-2.06,1-3.16,1.56l-.21-1.23A2.61,2.61,0,0,0,55.09,88l-.45-1.6c-.16-.15-.32-.3-.48-.45s-.34-.32-.4-.29a2.31,2.31,0,0,0-.75.6,7.77,7.77,0,0,0-.3.81c-.32-1.3-1-.27-1.63-.36l-.55-1c.9-.5,1.33-1.19.54-2-.3-.31-.9-.31-1.37-.46a10.38,10.38,0,0,1,.06-1.55c0-.27.31-.69.5-.71s.58.25.81.46.19.42.34.57.49.36.58.3a.84.84,0,0,0,.37-.64,15,15,0,0,0-.48-1.72c.22,0,.47-.17.67-.12.88.24,1.61.51,1.95-.82.16-.65.95-.37,1.45-.07.16.1.25.43.37.43,1.48,0,1.17.94,1.06,1.84s1.23,3.23,1.9,3.4l.58,1.28c0,1.54.47,1.94,1.94,1.77.53-.06.75.2.68.72l-.72.36c-.38-.33-.38-.33-1.36,1l1.13.69c-.06.35-.27.75-.15.95.46.75,1,1.43,1.56,2.13.32.42.65.83,1.07,1.35a26,26,0,0,0-2.53,1.29,1.19,1.19,0,0,0-.42,1c.11.48.6.88.73,1.36.25.94.79.62,1.3.39.73-.33,1.43-.7,1.92-.94l1.35.54c.54.29,1,.75.6,1.5l0,.06v.07a22.12,22.12,0,0,1-2.5,1.88c-.85.48-1.29-.33-1.74-.9v0Z" style="fill:#3d435e"/><path d="M80.35,127.5l-1.28-2c.64-.76,1.25-1.47,1.83-2.19.25-.31.64-.65.65-1a3.56,3.56,0,0,0-.39-1.67c-.06-.12-.81.07-1.22.18a11.12,11.12,0,0,0-1.76.64c-1,.5-1.19-.35-1.5-.93-.4-.76.27-.93.72-1.15,2.33-1.14,4.68-2.23,7-3.38.62-.31,1-.24,1.24.42.49,1.14,1,2.26,1.59,3.38.78,1.61.66,2.59-.43,3.53a2.46,2.46,0,0,1-3.25,0Zm4-8.95-1.57.78a10.18,10.18,0,0,0,1,1.85c.24.3.79.36,1.2.53.13-.4.43-.85.34-1.19A11.64,11.64,0,0,0,84.38,118.55Z" style="fill:#f3f3f4"/><path d="M81.23,107.94l.63.22.14.35.09.17,2.41,4.9.31.69c-2,1.42-2.27,1.28-3-1.17-.25-.79-.64-1.53-1-2.34l-1.59.79,1.93,3.88-1.76.88-2-3.93-1.66.83,2.22,4.46-1.67.83L73,112Z" style="fill:#f3f3f4"/><path d="M59.86,85.88l-.58-1.28c-.37-.87-.72-1.75-1.1-2.62-.16-.36-.35-.71-.59-1.19l4.14-2.06.74-.34,3.69-1.76.26.27,2.38,5,.16.37L69,83.44l-1.47.6-2.23-4.48-1.54.76,1.94,3.9-.6.38c-1.05.72-1.05.72-1.66-.48L62,81.2,60.34,82c.53,1.06,1,2.05,1.51,3,.78,1.56.79,1.56-.83,2.2-.05,0-.13,0-.17,0Z" style="fill:#f3f3f4"/><path d="M67,100.16v-.07l0-.06c1.84-.86,3.67-1.74,5.52-2.57.88-.39,1-.87.51-1.71-.87-1.47-1-1.47.8-2.29a4.66,4.66,0,0,1,.57-.18l0,0,3.19,6.53.19.37a10.13,10.13,0,0,1-1.52,1c-.1,0-.55-.53-.76-.87s-.51-1-.83-1.64l-5.3,2.63C67.74,102.2,67.34,102,67,100.16Z" style="fill:#f3f3f4"/><path d="M72.42,106.63l1.51,3.52-1.62.81-2.69-5.41,8.52-4.23,1,2Z" style="fill:#f3f3f4"/><path d="M54.63,86.35l.45,1.6a2.61,2.61,0,0,1,.35,4.42,14.84,14.84,0,0,1-2.55.89c-1.87.3-2.85-1.43-2.76-2.89,0-.15,0-.3.07-.56l-1.43.71-1.29.64-.5-1ZM52.55,88.7a8.57,8.57,0,0,0-.79.52,1.66,1.66,0,0,0-.61,2A1.35,1.35,0,0,0,52.9,92a4.73,4.73,0,0,0,2-1.14,1.36,1.36,0,0,0-.95-2.3A5.61,5.61,0,0,0,52.55,88.7Z" style="fill:#f3f3f4"/><path d="M60.64,97.92l.26.94a3.43,3.43,0,0,1-2.28,2.35c-.74.31-1.44.75-2.19,1a2.68,2.68,0,0,1-1-.06l.18-.92c-1.28-.86-1.85-2-1.46-3.09.28-.78,1.22-1.21,2.46-1.12h0l2.33,2.62c.05-.06.41-.29.37-.44-.21-.93-.51-1.83-.82-2.89.24-.31.65-.32,1.06.17S60.27,97.45,60.64,97.92Zm-2.82,2.25a7.41,7.41,0,0,0-1.06-1.52,1.25,1.25,0,0,0-1.2-.13,1.39,1.39,0,0,0-.22,1.24C55.65,100.65,56.67,100.82,57.82,100.16Z" style="fill:#f3f3f4"/><path d="M51.89,79.94a15,15,0,0,1,.48,1.72.84.84,0,0,1-.37.64c-.09.06-.42-.15-.58-.3s-.18-.43-.34-.57-.55-.48-.81-.46-.45.44-.5.71a10.38,10.38,0,0,0-.06,1.55c-.63,1-1.39,1.43-2.3,1.14a2.9,2.9,0,0,1-1.67-2.55c.06-.29.47-.51.79-.85A7,7,0,0,0,47,82.61a1.29,1.29,0,0,0,.95.53c.19,0,.43-.5.55-.81a2.69,2.69,0,0,0,0-.8c.07-1.65.72-2.22,2.37-2A3.49,3.49,0,0,1,51.89,79.94Z" style="fill:#f3f3f4"/><path d="M60.94,111c-.59,0-1.15.2-1.32,0a2,2,0,0,1,0-2.72A23.94,23.94,0,0,1,62.05,107l1.22-.61-.45-1.19.78-.46.66,1.1c.69-.12,1.53-.92,2,.42l-1.32,1,.51,1.17-.81.47-.71-1.43c-1.07.53-2.1,1-3.09,1.55S60.37,110.16,60.94,111Z" style="fill:#f3f3f4"/><path d="M57.34,103.34a6.51,6.51,0,0,0,.49,1.49,1.12,1.12,0,0,0,.91.4c.21,0,.45-.44.53-.72a6.79,6.79,0,0,0,.07-1.2,1.68,1.68,0,0,1,1.29-1.72,1.79,1.79,0,0,1,2,.82,4,4,0,0,1,.52,1c.22.65.11,1.12-.79,1.08a5.19,5.19,0,0,0-.43-1.2,1,1,0,0,0-.79-.44c-.23,0-.49.42-.57.7a4.18,4.18,0,0,0,0,1.1,1.75,1.75,0,0,1-1.39,1.85,1.71,1.71,0,0,1-2-.81,5.68,5.68,0,0,1-.58-1.27C56.36,103.77,56.56,103.37,57.34,103.34Z" style="fill:#f3f3f4"/><path d="M68.27,116.63c-.38-1.28-.73-2.29-2-2.32a2.55,2.55,0,0,0-2.43,1.33,1.93,1.93,0,0,0,.66,2.49c-.76.74-.8.71-1.29-.11a2.9,2.9,0,0,1,.09-3.72A3.46,3.46,0,0,1,67,113.19c.76.19,2.08,1.92,2,2.64C69,116.07,68.63,116.26,68.27,116.63Z" style="fill:#f3f3f4"/><path d="M60.91,92.53l-.23.39-5.15,2.36-.18.09L52.88,96.6l-.52-1,7.72-3.84.51.12Z" style="fill:#f3f3f4"/><path d="M61.06,113.45c-.82-.77-.81-.88.17-1.36L66,109.7l.54,1.08-5.38,2.67A.08.08,0,0,0,61.06,113.45Z" style="fill:#f3f3f4"/><path d="M62.48,78.39l-.74.34c-.42.05-.84.08-1.24.17a8.66,8.66,0,0,0-1,.34c-.06-.25-.22-.69-.16-.73a19.43,19.43,0,0,1,6-2.4l.14.28c-.48.24-1,.49-1.45.72S62.55,77.41,62.48,78.39Z" style="fill:#3d435e"/><path d="M55.35,95.37l.18-.09a5.06,5.06,0,0,0,1.14-.15c1.23-.46,1.3-.45,1.89.94l-2,1h0l-1.34-1.15Z" style="fill:#3d435e"/><path d="M61.06,113.45a.08.08,0,0,1,.12,0l.83.65-.39,2.31C60.34,115.07,60.25,114.55,61.06,113.45Z" style="fill:#3e4467"/><path d="M68.37,108.54l.58,1.17-1.2.6c-.15-.39-.48-.83-.37-1.12S68,108.76,68.37,108.54Z" style="fill:#f3f3f4"/><path d="M57.58,107.27l1.34,1a8.34,8.34,0,0,1-1.41.51c-.12,0-.47-.38-.45-.54A3.93,3.93,0,0,1,57.58,107.27Z" style="fill:#3d435e"/><path d="M48.21,88.24c.37-.21.74-.43,1.12-.62a4.8,4.8,0,0,1,.28.46l-1.26.47Z" style="fill:#3d435e"/><path d="M66.65,75.49l.5.46-.17.22-.56-.37Z" style="fill:#3d435e"/><path d="M87.27,124.17l-.71.21-.05-.21.72-.15Z" style="fill:#3d435e"/><path d="M77.77,100.23l-.19-.37.58.1v.15Z" style="fill:#3e4467"/><path d="M68.48,75.95c.66-.1.46.22.27.54Z" style="fill:#3e4467"/><path d="M68.84,76.67l.39.08L69,77Z" style="fill:#3e4467"/><path d="M53.85,123.21l.23-.23,0,.29Z" style="fill:#3e4467"/><path d="M78.73,100.19l-.12.23-.08,0,.2-.19Z" style="fill:#3e4467"/><path d="M66.44,76.91l-.26-.27Z" style="fill:#3e4467"/><path d="M78.73,100.19v0Z" style="fill:#3e4467"/><path d="M63.71,71.37l-.13-.16Z" style="fill:#3d435e"/><path d="M44.81,32,42.2,33.06Z" style="fill:#3d435e"/><path d="M48.79,30l-.54.27Z" style="fill:#3d435e"/><path d="M59.49,75.49l-1.42-2.85c2.17-.59,4.05-.07,4.55,1.3Zm-.94-2.75L59.67,75l2.14-1.06C61,72.92,59.83,73.14,58.54,72.73Z" style="fill:#3b4155"/><path d="M45,74c-1.22.56-2,.5-2.37-.3a1.64,1.64,0,0,1,.08-1.41c.34-.5.92-.29,1.27.15S44.7,73.48,45,74Z" style="fill:#3b4155"/><path d="M53,47.67l-.29,1.1a4.86,4.86,0,0,1-4.74,2.63c-1.14,0-2.28-.1-3.41-.15a1.8,1.8,0,0,1,1.84-2l1.7.06A2.24,2.24,0,0,0,50.35,48a2.4,2.4,0,0,0-.63-2.74c-.4-.39-.88-.7-1.38-1.09L49,42.87c.27-.43.53-.53,1-.22A5.51,5.51,0,0,1,53,47.67Z" style="fill:#f3f3f4"/><path d="M53.42,69.2a2.22,2.22,0,0,1,.45-.42c1.13-.58,2.27-1.17,3.43-1.71s1.58-.07,1.62,1a3.21,3.21,0,0,0,.24.85c.08.24.18.48.28.71l-3.09-.36,1.27-1c-1.37-.61-1.7-.43-2.4.47-.32.41-1,.5-1.59.74Z" style="fill:#3e4467"/><path d="M61.75,88.73l.72-.36,7.61-3.78,2.63,5.28.18,1.72a5.86,5.86,0,0,1-5.8,4.24,3.89,3.89,0,0,1-2.65-1.15,36.15,36.15,0,0,1-2.53-5.12A3.54,3.54,0,0,1,61.75,88.73Zm2.43,1.35c1,1.22.88,3.25,2.82,3.5A3.43,3.43,0,0,0,70.39,92c1.1-1.76-.66-2.93-1-4.47Z" style="fill:#fefefe"/><path d="M61.75,88.73a3.54,3.54,0,0,0,.17.83,36.15,36.15,0,0,0,2.53,5.12,3.89,3.89,0,0,0,2.65,1.15,5.86,5.86,0,0,0,5.8-4.24l1.45,1.69a4.71,4.71,0,0,0-.57.18c-1.76.82-1.67.82-.8,2.29.49.84.37,1.31-.51,1.71-1.85.83-3.68,1.71-5.52,2.57.44-.75-.06-1.21-.6-1.5L65,98c-.48.24-1.19.62-1.92.94-.51.23-1.05.55-1.3-.39-.13-.48-.61-.88-.73-1.36a1.19,1.19,0,0,1,.42-1A26,26,0,0,1,64,94.88c-.41-.53-.75-.93-1.07-1.35-.53-.7-1.1-1.38-1.56-2.13-.12-.2.09-.6.15-.95l-1.13-.69C61.37,88.4,61.37,88.4,61.75,88.73ZM73.18,93l.18-.21-.19-.14a1.65,1.65,0,0,0-.14.24S73.11,93,73.18,93Z" style="fill:#3b4155"/><path d="M72.71,89.87l-2.63-5.28-7.61,3.78c.08-.52-.15-.78-.68-.72-1.47.17-1.91-.23-1.94-1.77l1,1.38s.12,0,.17,0c1.61-.64,1.61-.64.83-2.2-.5-1-1-2-1.51-3L62,81.2l1.46,2.93c.6,1.21.6,1.2,1.66.48l.6-.38-1.94-3.9,1.54-.76L67.56,84c.78.5,1.14,0,1.47-.6L69,82.25c.22.08.54.1.64.26.38.59.68,1.23,1,1.85h0l.56,1.54L73,89.51l.18.37h-.44Z" style="fill:#3b4155"/><path d="M66,135.39c.82,1.71.94,1.34-.87,2.25-1.54.77-1.21.82-2.12-1-.74-1.47-.79-1.13,1.11-2.09C65.47,133.85,65.22,133.88,66,135.39Z" style="fill:#3b4155"/><path d="M84.49,113.57l-2.41-4.9L82,108.5l-.14-.35.29-.17c.72,1.45,1.44,2.89,2.18,4.33a12.07,12.07,0,0,0,.69,1.05Z" style="fill:#3b4155"/><path d="M73,89.51l-1.78-3.6c.35.57.7,1.15,1.06,1.71.22.34.48.67.72,1h0L72.18,87l.17-.11c.33.52.66,1,1,1.55S73.54,89.31,73,89.51Z" style="fill:#3e4467"/><path d="M72.57,83.39l.66,1.32-.29.12-.57-1.36Z" style="fill:#3e4467"/><path d="M73.15,89.87l.23.12-.23-.12Z" style="fill:#3e4467"/><path d="M70.63,84.35h0Z" style="fill:#3b4155"/><path d="M56.57,97l2-1c-.59-1.38-.67-1.39-1.89-.94a5.06,5.06,0,0,1-1.14.15l5.15-2.36-.9,2.38,1,.21c-1.21.85.09,1.59-.13,2.4-.37-.47-.74-.95-1.12-1.41s-.81-.48-1.06-.17c.31,1.06.61,2,.82,2.89,0,.15-.32.39-.37.44Z" style="fill:#3b4155"/><path d="M60.91,92.53l-.32-.7.67.48Z" style="fill:#3b4155"/><path d="M62.73,101.15v0Z" style="fill:#3b4155"/><path d="M84.38,118.55a11.64,11.64,0,0,1,.93,2c.09.34-.21.79-.34,1.19-.41-.17-1-.23-1.2-.53a10.18,10.18,0,0,1-1-1.85Zm-.71.32-.31.62.57,1.14a1.74,1.74,0,0,0,.23.44,1,1,0,0,0,.46.28c.08,0,.3-.16.29-.21a7.63,7.63,0,0,0-.45-1.59C84.32,119.26,83.94,119.09,83.67,118.87Z" style="fill:#3b4155"/><path d="M82,108.5l.09.17Z" style="fill:#3d435e"/><path d="M69,83.44c-.33.59-.69,1.1-1.47.6Z" style="fill:#3e4467"/><path d="M52.55,88.7A5.61,5.61,0,0,1,54,88.52a1.36,1.36,0,0,1,.95,2.3,4.73,4.73,0,0,1-2,1.14,1.35,1.35,0,0,1-1.75-.78,1.66,1.66,0,0,1,.61-2A8.57,8.57,0,0,1,52.55,88.7Z" style="fill:#3b4155"/><path d="M57.82,100.16c-1.15.66-2.17.49-2.49-.42a1.39,1.39,0,0,1,.22-1.24,1.25,1.25,0,0,1,1.2.13A7.41,7.41,0,0,1,57.82,100.16Z" style="fill:#3b4155"/><path d="M58.54,72.73c1.29.41,2.45.19,3.27,1.21L59.67,75Z" style="fill:#3d435e"/><path d="M64.18,90.08l5.18-2.57c.38,1.54,2.14,2.71,1,4.47A3.43,3.43,0,0,1,67,93.58C65.06,93.33,65.21,91.3,64.18,90.08Z" style="fill:#3b4155"/><path d="M73.18,93c-.07-.05-.15-.1-.15-.12a1.65,1.65,0,0,1,.14-.24l.19.14Z" style="fill:#3d435e"/><path d="M73,88.61h0Z" style="fill:#3d435e"/><path d="M83.67,118.87c.27.22.64.4.78.68a7.63,7.63,0,0,1,.45,1.59s-.21.23-.29.21a1,1,0,0,1-.46-.28,1.74,1.74,0,0,1-.23-.44l-.57-1.14Z" style="fill:#3d435e"/><polygon points="43.26 0.42 56.34 26 15.69 45.84 32.74 80.87 44.79 105.12 45.68 106.15 45.67 106.89 50.97 117.53 54.64 124.93 58.9 134.24 61.43 139.33 63.66 143.8 65.96 148.43 66.11 148.73 64.33 149.61 63.26 148.03 60.84 143.16 58.77 139 51.57 124.53 34.75 90.69 12.73 46.57 13.28 45.44 1.56 22.62 1.27 21.29 43.26 0.42" style="fill:#fefefe"/></svg>