<svg xmlns="http://www.w3.org/2000/svg" viewBox="0 0 198.55 41.93"><title>資產 16</title><path d="M106.82,7.82a1.22,1.22,0,0,1,.06-.45,1.23,1.23,0,0,0-.06.45c.51.12,1,.17,1.53.34C107.84,8,107.33,7.94,106.82,7.82Z" style="fill:none"/><polygon points="95.56 7.99 95.54 7.98 95.56 7.99 95.56 7.99" style="fill:none"/><path d="M94,8.2a9,9,0,0,1-1.17,0,2.25,2.25,0,0,1,0-.26,2.26,2.26,0,0,0,0,.26A9.06,9.06,0,0,0,94,8.2Z" style="fill:none"/><path d="M101,.48a2.13,2.13,0,0,1-1.29.73A2.13,2.13,0,0,0,101,.48Z" style="fill:none"/><path d="M94.61,7.88h0l.94.1Z" style="fill:none"/><path d="M116.48,6.24a5.19,5.19,0,0,0-3,2.09h0A5.18,5.18,0,0,1,116.48,6.24Z" style="fill:none"/><path d="M126.27,7.91h0l.4.37Z" style="fill:none"/><path d="M136.05,3.89a6.63,6.63,0,0,1,.82-.29A6.62,6.62,0,0,0,136.05,3.89Z" style="fill:none"/><path d="M86.8,8.23h0A2.34,2.34,0,0,1,88,8.44,2.34,2.34,0,0,0,86.8,8.23Z" style="fill:none"/><path d="M113.47,6.76a2.52,2.52,0,0,0-1,1.55h0A2.52,2.52,0,0,1,113.47,6.76Z" style="fill:none"/><path d="M72.07,9.39h0a11.07,11.07,0,0,0,1.57-.2A11,11,0,0,1,72.07,9.39Z" style="fill:none"/><path d="M71.17,8.76a1.87,1.87,0,0,0,.3.75l.6-.13-.6.13A1.87,1.87,0,0,1,71.17,8.76Z" style="fill:none"/><path d="M87.92.81a2.26,2.26,0,0,0,.49-.36A2.26,2.26,0,0,1,87.92.81Z" style="fill:none"/><path d="M78.38,7.26a2.7,2.7,0,0,0-1.31,1.56.46.46,0,0,1-.21.14.47.47,0,0,0,.21-.14A2.7,2.7,0,0,1,78.38,7.26Z" style="fill:none"/><path d="M126.67,8.29a46.57,46.57,0,0,1,5.94-2.61,46.61,46.61,0,0,0-5.94,2.61,3,3,0,0,1-.22.73A3,3,0,0,0,126.67,8.29Z" style="fill:none"/><path d="M80.5,8.46l-.58.44.58-.44a1.38,1.38,0,0,1,.32-1A1.38,1.38,0,0,0,80.5,8.46Z" style="fill:none"/><path d="M91.12,1.42a1.24,1.24,0,0,0-.55.58h0A1.24,1.24,0,0,1,91.12,1.42Z" style="fill:none"/><path d="M17.86,18.76a14.8,14.8,0,0,0-1.81,4.87h0A14.8,14.8,0,0,1,17.86,18.76Z" style="fill:none"/><path d="M44.16,6.13Q45.6,5.18,47,4.19h0Q45.61,5.18,44.16,6.13Z" style="fill:none"/><path d="M16.92,24.84,17,23.25h0Z" style="fill:none"/><path d="M19.47,11.14a1.88,1.88,0,0,1-.6,1.12A1.88,1.88,0,0,0,19.47,11.14Z" style="fill:none"/><path d="M157.07,11.81a8.87,8.87,0,0,0-1.36,1.13l-.63.27.63-.27A8.87,8.87,0,0,1,157.07,11.81Z" style="fill:none"/><path d="M153.58,14.56h.81v0Z" style="fill:none"/><path d="M157,17.34c-.38-.72.43-1.79-.68-2.29h0c1.11.5.31,1.57.68,2.29a1.58,1.58,0,0,1,.64.07A1.58,1.58,0,0,0,157,17.34Z" style="fill:none"/><path d="M136.91,10.42a1.24,1.24,0,0,1,.39.16,1.25,1.25,0,0,0-.39-.16Z" style="fill:none"/><path d="M149.78,13.74c.06.49.24.66.73.61C150,14.4,149.84,14.23,149.78,13.74Z" style="fill:none"/><path d="M165.12,15.25a17.84,17.84,0,0,0-2.88,3,9.61,9.61,0,0,1-1,0,9.63,9.63,0,0,0,1,0A17.84,17.84,0,0,1,165.12,15.25Z" style="fill:none"/><path d="M159.57,18.85q0-.41,0-.82,0,.41,0,.82a2.76,2.76,0,0,1,1.54.72A2.76,2.76,0,0,0,159.57,18.85Z" style="fill:none"/><path d="M136.25,9.62c-.19.19-.28.39-.11.59C136,10,136.06,9.81,136.25,9.62Z" style="fill:none"/><path d="M171,12.07a.51.51,0,0,0-.26.27h0A.51.51,0,0,1,171,12.07Z" style="fill:none"/><path d="M162.26,18.56c-.31.2-.31.54-.36.85l-.28.39.28-.39c0-.32,0-.65.36-.85a.81.81,0,0,0,0-.31A.8.8,0,0,1,162.26,18.56Z" style="fill:none"/><path d="M128,9.52l-1.7,0a.77.77,0,0,0,0-.26.77.77,0,0,1,0,.26Z" style="fill:none"/><path d="M126.27,7.91c-.41.23-.87.4-1,.93l-.54.44.54-.44C125.39,8.31,125.86,8.14,126.27,7.91Z" style="fill:none"/><path d="M122.78,7.18a2.51,2.51,0,0,0-1.6,1,.86.86,0,0,0-.24.06.85.85,0,0,1,.24-.06A2.51,2.51,0,0,1,122.78,7.18Z" style="fill:none"/><path d="M118.69,8.63l.25,0-.25,0-.32,0Z" style="fill:none"/><path d="M132.18,9.76a1.49,1.49,0,0,0,2,.14,1.49,1.49,0,0,1-2-.14c-.78.22-1.32.18-1.6-.11C130.86,9.95,131.4,10,132.18,9.76Z" style="fill:none"/><path d="M105.61,8.21a.5.5,0,0,1,.48-.22.5.5,0,0,0-.48.22h-1.22a1.49,1.49,0,0,1-.16-.56,1.49,1.49,0,0,0,.16.56.56.56,0,0,1-.22,0,.56.56,0,0,0,.22,0Z" style="fill:none"/><path d="M131.32,10.82a3.74,3.74,0,0,1-.2.37,3.81,3.81,0,0,0,.2-.37l.6-.39-.6.39Z" style="fill:none"/><path d="M99.85,8.21a14.77,14.77,0,0,0-3,0l-.59.1.59-.1A14.77,14.77,0,0,1,99.85,8.21Z" style="fill:none"/><path d="M166,8.57a4.45,4.45,0,0,0,.4-.3h0A4.42,4.42,0,0,1,166,8.57Z" style="fill:none"/><path d="M134.49,10.84c.2,0,.5,0,.73,0l.15.56-.15-.56C135,10.86,134.69,10.81,134.49,10.84Z" style="fill:none"/><path d="M116.38,7a2.75,2.75,0,0,0-1.12,1.3h0A2.75,2.75,0,0,1,116.38,7Z" style="fill:none"/><path d="M45.79,14.15l-.65.69.65-.69A13,13,0,0,1,48,11.38,13,13,0,0,0,45.79,14.15Z" style="fill:none"/><path d="M42,11.1a4,4,0,0,0-1.24.61A4,4,0,0,1,42,11.1h0Z" style="fill:none"/><path d="M48,15.19a1.3,1.3,0,0,1-.79,1.09A1.3,1.3,0,0,0,48,15.19c.17-.28.53-.43.74-.69C48.51,14.76,48.15,14.91,48,15.19Z" style="fill:none"/><path d="M16,24.2l.08-.57L16,24.2a.74.74,0,0,0-.56.67A.75.75,0,0,1,16,24.2Z" style="fill:none"/><path d="M54.18,11.66a11.31,11.31,0,0,1,3.5-2.72,11.32,11.32,0,0,0-3.5,2.72c-.39.37-.93.63-.91,1.28a.23.23,0,0,0,0,.15.23.23,0,0,1,0-.15C53.25,12.29,53.79,12,54.18,11.66Z" style="fill:none"/><path d="M163.2,20.68a3.14,3.14,0,0,1,0-.47,2,2,0,0,0,1.09.53,2,2,0,0,1-1.09-.53A3.17,3.17,0,0,0,163.2,20.68Z" style="fill:none"/><path d="M152.12,14.55a.53.53,0,0,0-.11.33.53.53,0,0,1,.11-.33Z" style="fill:none"/><path d="M56,13.25c.37.15.59-.21,1-1.15A.74.74,0,0,1,57.3,12c.2-.26.34-.6.55-.84-.21.25-.35.58-.55.84a.76.76,0,0,0-.22.14C56.64,13,56.42,13.4,56,13.25Z" style="fill:none"/><path d="M67.46,3.8a4.26,4.26,0,0,0,1.17-1.16h0A4.26,4.26,0,0,1,67.46,3.8Z" style="fill:none"/><path d="M67.12,7.56a18.71,18.71,0,0,0-2.21,1.67h0A18.69,18.69,0,0,1,67.12,7.56Z" style="fill:none"/><path d="M52.73,13.37c-.77.76-1.16,1-1.5.66.34.34.73.1,1.5-.66l.55-.13h0Z" style="fill:none"/><path d="M57.85,11.13a1,1,0,0,1,.3-.24A1,1,0,0,0,57.85,11.13Z" style="fill:none"/><path d="M49.6,13l.61-.34.21.11-.21-.11Z" style="fill:none"/><path d="M54.28,9.25c.22-.06.48-.07.69-.14-.21.07-.46.08-.69.14l-2.16,2.23Z" style="fill:none"/><path d="M187.71,20.51C189,19,190.62,18.22,192,17l-.9-.37L188,18.43A7.56,7.56,0,0,0,184.68,22a2.8,2.8,0,0,0,.52,3.4c.24.27.49.51.74.75h1.62C185.68,24.47,185.87,22.67,187.71,20.51Z" style="fill:#d7ba9b"/><path d="M191.61,25.23c-1.35-2.1-1-3.64,1.26-5.32.52-.39,1.27-.55,1.42-1.34l-.67-.28c-1.2,1.19-2.75,2-3.7,3.5a2.73,2.73,0,0,0,.59,4.07l.33.27h1.59A3.93,3.93,0,0,1,191.61,25.23Z" style="fill:#d7ba9b"/><path d="M182.11,20.24c1.62-2,3.87-3,6.13-4.07a3.28,3.28,0,0,0,1.35-.72c-.34-.4-.82-.3-1.26-.35A54.11,54.11,0,0,0,182,18.39a6.62,6.62,0,0,0-2.75,4.47,2.75,2.75,0,0,0,.94,2.51c.25.27.51.51.78.76h1.62l-.24-.21C180.26,24,180.32,22.49,182.11,20.24Z" style="fill:#d7ba9b"/><path d="M29.34,23.46c1.78-2.93,3.45-5.94,6.31-8.08.78-.58,1-1.83,1.78-2.62a26.27,26.27,0,0,1,7.09-5.09c-.37,1.25-2.4,1.12-2.19,2.78-2.6.12-3.57,2.35-5,3.91-.31.32-.52,1-.05,1.24s.8-.3,1.11-.77a23.06,23.06,0,0,1,1.48-2.22,5.13,5.13,0,0,1,.95-.91A4,4,0,0,1,42,11.1h0a3.23,3.23,0,0,1-.32.74,4.41,4.41,0,0,1-.47.64c-.17.2-.36.39-.56.58l-.59.55a4.74,4.74,0,0,0-1.18,1.76,1.83,1.83,0,0,0,1.52-1.07c1.09-1.55,3.1-2.41,3.37-4.63.05-.44,1-.77,1.58-1.16.24-.17.65-.21.6-.62-.21-1.73,0-2,1.78-2.31-.14.8-1.36.88-1.2,1.91,1.35.24,1.58-1.53,2.88-1.6-.06.7-1.05,1.72.65,2-.61-1,1.14-1.55.28-2.68.65.27,1.6.4,1.47,1-.25,1.2-1.23,3.08-2.12,2.66-2.28-1.06-2.93.9-4.13,1.66-2.6,1.66-4.38,4.18-6.22,6.62,3.3-2.37,5.7-5.83,9.33-7.79C47,11.2,45.14,12.76,43.78,15a.34.34,0,0,0,.33.24c.25,0,.57-.07.81,0v0l.22-.37.65-.69A13,13,0,0,1,48,11.38q.43-.41.88-.78A24.22,24.22,0,0,1,51.2,8.93c1.57-1,3-2.34,4.9-2.84v0h0a.48.48,0,0,1,.59-.23s.05.08.08.12l-.67.11h0a1.12,1.12,0,0,1-.24.62,3.32,3.32,0,0,1-.91.65C52,9.13,49.11,11,47,14.11l1.83-.23L49.6,13c-.07-.33,0-.54.26-.65a1,1,0,0,1,.28-.07,10.64,10.64,0,0,1,4.09-3.42,22.5,22.5,0,0,1,4.91-3.18,72.69,72.69,0,0,1,8.24-4q0-.15,0-.3a19.85,19.85,0,0,0-5.21.42c-1.19.17-2.51-.18-3.61.57,0,.28.15.73-.33.7-.3,0-.21-.41-.19-.66a15.9,15.9,0,0,0-5.7.84c-.58,1-1.72.91-2.5,1.59-.32-.7.41-.77.37-1.17-.89-.33-1.72.19-2.58.22a.6.6,0,0,1-.63.3h0q-1.42,1-2.86,1.94T41.23,8c-2.76,1.72-5.47,3.54-7.31,6.34-1.35,2.05-3.56,3.37-4.82,5.48a22.91,22.91,0,0,0-2.75,6.33h2.33a3.64,3.64,0,0,0,0-.39A3.9,3.9,0,0,1,29.34,23.46Zm13.45-12.6c-.12.33-.48.21-.76.22l.31-.62C42.55,10.53,42.91,10.51,42.79,10.86ZM57.35,3.4a12.86,12.86,0,0,1-4.12,1.88A6.67,6.67,0,0,1,57.35,3.4ZM51.79,4.49l.18.15.15.12a1.55,1.55,0,0,1-.33.25c-.05,0-.16-.08-.24-.13Z" style="fill:#f4dec9"/><polygon points="56.12 6.08 56.11 6.07 56.11 6.07 56.12 6.08" style="fill:#f4dec9"/><path d="M16,24.2l.09-.57a14.8,14.8,0,0,1,1.81-4.87,13.5,13.5,0,0,1,1.92-2.49,82.23,82.23,0,0,1,8.52-7.9,63.26,63.26,0,0,0-8.82,2.72h0v.05a1.88,1.88,0,0,1-.6,1.12,3.08,3.08,0,0,1-.32.26l-.2.14c-.33.21-.67.39-1,.58a16.8,16.8,0,0,0-6.2,8.29,13.74,13.74,0,0,0-.86,4.62h2.33a17.72,17.72,0,0,1,.51-3.2,5.08,5.08,0,0,1,1.1-2,24.71,24.71,0,0,0-.95,5.2h2a2,2,0,0,1,.16-.28c0-.32-.11-.68-.08-1A.74.74,0,0,1,16,24.2Z" style="fill:#f4dec9"/><path d="M67.39,1.7c-.42,1.12-1.6,1.19-2.45,1.68C61.68,5.25,58.27,6.85,55.17,9a.77.77,0,0,1-.19.1c-.21.07-.46.08-.69.14l-2.16,2.23c-.39.41-1,.81-.77,1.42s.93.26,1.38.48l.55-.13h0a.21.21,0,0,1,0-.28c0-.66.52-.92.91-1.28a11.32,11.32,0,0,1,3.5-2.72c1.77-1.8,4.11-2.72,6.26-3.9,1.53-.84,2.94-2,4.69-2.39v0h0a1.34,1.34,0,0,1,1.07-.52c-.15.8-.71.41-1.07.52h0A4.26,4.26,0,0,1,67.46,3.8c-.75.52-1.62.87-2.41,1.33L57.66,9.48a5,5,0,0,0-1,.93l-.29.35c-.85,1-.41,1.34.69,1.34A.76.76,0,0,1,57.3,12c.2-.26.34-.6.55-.84a1,1,0,0,1,.3-.24l.2-.07a1.11,1.11,0,0,1,.26,0v0h0l.07-.13-.06.14h0c0,.33.13.5.29.58s.66,0,1,.07c.33-.31.49-1.06,1.17-.47.92.8,1.63.27,2.24-.4a6.11,6.11,0,0,1,1.61-1.33,18.71,18.71,0,0,1,2.21-1.67c.77-.51,1.56-1,2.36-1.43l1.59-.92c2.52-1.5,5.17-2.78,7.77-4.14a1,1,0,0,0,.51-.53,92.66,92.66,0,0,0-10.75.6C68.49,2,67.84,1.61,67.39,1.7Zm4.4-.53c-.34.59-.63.78-1.16.65C70.77,1.26,71.14,1.19,71.79,1.16Z" style="fill:#f4dec9"/><path d="M170.46,21.1c.33-1.79,1.82-2.76,3.14-3.72a50.89,50.89,0,0,1,9.07-5.05c-.54-.79-1.5-.79-2.25-1.2,0,.49-.4.55-.74.66a30.82,30.82,0,0,0-11.22,6.79,5.55,5.55,0,0,0-.76,6.6,10,10,0,0,0,.64,1h3.21A6.15,6.15,0,0,1,170.46,21.1Z" style="fill:#f4dec9"/><path d="M30,16.54A6.89,6.89,0,0,0,31.8,14.6c2.36-3.6,6-5.6,9.53-7.73a34.49,34.49,0,0,0,3-2.22c-1.15-.23-2.14.5-3.24.53a6.75,6.75,0,0,1-.52.5q-.24.21-.49.4a13.57,13.57,0,0,1-1.6,1l-.59.33c-.44.24-.87.47-1.29.73a10.07,10.07,0,0,0-1.47,1c-4.48,3.95-8.94,7.92-11.83,13.27a10.11,10.11,0,0,0-1.12,3.66h2.42q.19-.88.46-1.74C25.92,21.44,27.23,18.45,30,16.54Z" style="fill:#f4dec9"/><path d="M174.39,23a8.89,8.89,0,0,1,4-5.73,21.27,21.27,0,0,1,5.74-3.11,1.64,1.64,0,0,0,1-.64,2.23,2.23,0,0,0-1.53-.93c-.72.91-1.86,1.08-2.83,1.51a29.78,29.78,0,0,0-8.16,5.29c-1.22,1.13-1.52,5,.13,6.71h3l-.58-.47A2.44,2.44,0,0,1,174.39,23Z" style="fill:#f4dec9"/><path d="M22.48,17.4c3.16-3.06,5.68-6.79,9.53-9.12a2,2,0,0,0,1-1.14c-1,.18-2.07,0-2.89.78-2.89,2.31-5.4,5-8,7.58a15.8,15.8,0,0,0-4,5.88,5.39,5.39,0,0,1-.22.51,7,7,0,0,1-.6,1l-.27.38-.08,1.59c0,.44.18.92-.26,1.28v0h2.16a15.2,15.2,0,0,1,2.34-6.82A9.36,9.36,0,0,1,22.48,17.4Z" style="fill:#f4dec9"/><path d="M33.92,14.33c1.84-2.8,4.55-4.62,7.31-6.34q1.48-.92,2.93-1.86T47,4.19h0a.6.6,0,0,0,.63-.29c-.25,0-.51,0-.62.29a5.19,5.19,0,0,0-2.74.46,34.49,34.49,0,0,1-3,2.22C37.79,9,34.16,11,31.8,14.6A6.89,6.89,0,0,1,30,16.54c-2.81,1.91-4.12,4.9-5,7.86q-.27.87-.46,1.74h1.81a22.91,22.91,0,0,1,2.75-6.33C30.36,17.7,32.57,16.38,33.92,14.33Z" style="fill:#d7ba9b"/><path d="M179.24,22.87A6.62,6.62,0,0,1,182,18.39a54.11,54.11,0,0,1,6.34-3.29,2.51,2.51,0,0,0-2.19-1.22c-.31.64-1,.73-1.52,1-3.18,1.46-6.34,2.95-8,6.35-1,2.11-.71,3.44.92,4.92H181c-.26-.25-.53-.49-.78-.76A2.75,2.75,0,0,1,179.24,22.87Z" style="fill:#f4dec9"/><path d="M36.61,7.19c.67-.45,1.68-.38,2-1.3a9.52,9.52,0,0,0-3.27.55l-.57.26c-1.29,1.57-3.14,2.46-4.66,3.76-1.71,1.46-3.08,3.23-4.64,4.81-1.91,1.94-3.84,3.89-4.92,6.53a12.45,12.45,0,0,0-1,3.53c0,.27,0,.54-.06.8h1.6a13.55,13.55,0,0,1,1.35-4C25.72,15.89,30.78,11.14,36.61,7.19Z" style="fill:#f4dec9"/><path d="M168.46,18.57a30.82,30.82,0,0,1,11.22-6.79c.34-.11.74-.16.74-.66l-1.16-.27a30.86,30.86,0,0,0-13.07,8.09c-.18.19-.44.34-.53.56a2.42,2.42,0,0,1-.69,1l-.17.11-.16.06a.93.93,0,0,1-.3,0,2,2,0,0,1-1.09-.53,3.14,3.14,0,0,0,0,.47s0,.09,0,.14a2.92,2.92,0,0,0,.08.52,4,4,0,0,0,.68,1.38c.18.25.38.49.6.73.41-.34,0-1,.48-1.22.62.13.69,2.55.1,3.66A1.19,1.19,0,0,1,166,26a1.16,1.16,0,0,1,.13.12h2.19a10,10,0,0,1-.64-1A5.55,5.55,0,0,1,168.46,18.57Z" style="fill:#c49d78"/><path d="M185.2,25.39a2.8,2.8,0,0,1-.52-3.4A7.56,7.56,0,0,1,188,18.43l3.13-1.76c-.18-.84-.87-1-1.56-1.22a3.28,3.28,0,0,1-1.35.72c-2.26,1-4.51,2-6.13,4.07-1.79,2.25-1.85,3.76.22,5.69l.24.21h3.37C185.69,25.9,185.44,25.66,185.2,25.39Z" style="fill:#f4dec9"/><path d="M99.75,1.2a3.33,3.33,0,0,0-.56.21C96.8,2.66,94.32,3.72,91.95,5a21.43,21.43,0,0,0-2.84,2.16c-.22.17-.41.37-.29.65a.56.56,0,0,0,.77.31,3.1,3.1,0,0,0,1.73-.87A6.62,6.62,0,0,1,95.12,5a4,4,0,0,1-.85.94,3.78,3.78,0,0,0-1.41,1.73,2.07,2.07,0,0,0-.06.3,2.25,2.25,0,0,0,0,.26A9,9,0,0,0,94,8.2a1.18,1.18,0,0,0,.64-.32h0a3.71,3.71,0,0,1,.11-.83.78.78,0,0,1,.19-.29l.16-.12c1.55-1,3-2.14,4.9-2.45.87-1.28,2.28-1.33,3.48-1.84l.18.42L100,4.2a2.5,2.5,0,0,1-.32,1.3,4.4,4.4,0,0,1-1.58,1.44.35.35,0,0,0-.11.54.82.82,0,0,0,1,.09C102.7,4.12,107.61,3,112,.92c.12-.06.16-.25.24-.38C109.59.59,107-.13,104.32.2c.18.22.75.37.05.7-2.66,1.24-5.3,2.52-8,3.78-.25.12-.58.18-.68-.09s.19-.53.49-.66c1.7-.74,3.41-1.46,5.1-2.22.88-.39,1.9-.55,2.45-1.48l-2.6-.07a1.36,1.36,0,0,1-.15.31A2.13,2.13,0,0,1,99.75,1.2Zm7.56-.53a5.09,5.09,0,0,1-2.76,1.44A4.45,4.45,0,0,1,107.31.67Z" style="fill:#f4dec9"/><path d="M137.13,3.52l-.26.08a6.63,6.63,0,0,0-.82.29,3.12,3.12,0,0,0-.43.23,16.43,16.43,0,0,1-2.17,1.18l-.85.37a46.57,46.57,0,0,0-5.94,2.61,3,3,0,0,1-.22.73.65.65,0,0,1-.19.19.77.77,0,0,1,0,.26l1.7,0h.16l.56-.35h0a1.44,1.44,0,0,1,.89-1,4,4,0,0,1,.9-.22c-.25.82-.23,1.37.06,1.67s.82.33,1.6.11a1.49,1.49,0,0,0,2,.14,4.78,4.78,0,0,1,1.14-.55h0a5.79,5.79,0,0,1,2.19-1.67l.36-.17c.57-.26,1.16-.5,1.72-.79a31.48,31.48,0,0,1,5.6-2.33c.56-.16,1.23-.34,1.48-1a10.42,10.42,0,0,0-4.2-.68c-.79.9-2,1-3,1.5-.69.34-1.37.69-2.05,1A34.07,34.07,0,0,1,131.13,8l0,.11L131,8c-.08-.68.42-.94.91-1.07,3.34-1,6.16-3,9.38-4.23-.66-.66-1.47-.28-2.22-.32a2.27,2.27,0,0,1-.34.39A4,4,0,0,1,137.13,3.52Z" style="fill:#f4dec9"/><path d="M152.9,5.13a3,3,0,0,1-.51.16l-.44.11a57.11,57.11,0,0,0-9,3.79,6.16,6.16,0,0,0-1.3.83c-.34.29-.91.57-.8,1.06a.4.4,0,0,0,.19.28c.27.16.73,0,1,.18a.84.84,0,0,0,.19-.13h0a1.73,1.73,0,0,1,.08-.19,1.64,1.64,0,0,1,.23-.4,1.85,1.85,0,0,1,.46-.39,4,4,0,0,1,.55-.27l.58-.24c.71.78-1.77,1.42,0,2.17l.05,0a1.85,1.85,0,0,1,.48-.75,2.35,2.35,0,0,1,.78-.47c.39.54-.08,1.51.92,1.59l.88-.58h0a1.36,1.36,0,0,1,1-1.28c.3-.13.61-.23.86-.36A82.6,82.6,0,0,1,159.83,6c-.11-.16-.2-.44-.34-.46-2-.36-4-.69-6-1a1.07,1.07,0,0,1-.22.33A1.18,1.18,0,0,1,152.9,5.13ZM145,9.72l-.12-.31c.08,0,.19-.08.24,0s.07.15.1.23Z" style="fill:#f4dec9"/><path d="M35.08,9.21a10.07,10.07,0,0,1,1.47-1c.42-.26.86-.49,1.29-.73l.59-.33a13.57,13.57,0,0,0,1.6-1q.25-.19.49-.4a6.75,6.75,0,0,0,.52-.5h0l-2.4.72c-.36.92-1.37.84-2,1.3-5.83,4-10.88,8.7-14.16,15a13.55,13.55,0,0,0-1.35,4h1a10.11,10.11,0,0,1,1.12-3.66C26.14,17.13,30.6,13.16,35.08,9.21Z" style="fill:#d7ba9b"/><path d="M87.92.81a4.79,4.79,0,0,1-.7.32l-.65.24-.31.14c-3.84,1.93-7.8,3.67-11.17,6.43a3.74,3.74,0,0,0-.61.58l0,0a1.34,1.34,0,0,0-.27.73h0L76.87,9a.46.46,0,0,0,.21-.14,2.7,2.7,0,0,1,1.31-1.56A5.08,5.08,0,0,1,79,6.94c.24.87-1,1-.57,1.68.33.49,1,.17,1.43.28l.58-.44a1.38,1.38,0,0,1,.32-1,1.23,1.23,0,0,1,.27-.23C84.15,5.33,87,3,90.57,2a1.24,1.24,0,0,1,.55-.58l.24-.11c.22-.09.46-.16.7-.23A1.53,1.53,0,0,0,93.13.22l-4.49,0a2,2,0,0,1-.24.28A2.26,2.26,0,0,1,87.92.81Z" style="fill:#f4dec9"/><path d="M15.61,13.67c.59-.44,1.21-.81,1.4-1.58-.87-.22-1.48.54-2.27.62,0,.62-.5.56-.91.58l-1,1.12c-.35.38-.71.75-1.08,1.11a14.54,14.54,0,0,0-3.91,7.36,20.06,20.06,0,0,0-.46,3.26h1.6a16.16,16.16,0,0,1,.5-3.65A16,16,0,0,1,15.61,13.67Z" style="fill:#f4dec9"/><path d="M189.92,21.8c1-1.51,2.5-2.31,3.7-3.5A1.88,1.88,0,0,0,192,17c-1.42,1.18-3.09,2-4.34,3.47-1.84,2.16-2,4-.15,5.63h3.28l-.33-.27A2.73,2.73,0,0,1,189.92,21.8Z" style="fill:#f4dec9"/><path d="M176.63,21.22c1.65-3.4,4.81-4.89,8-6.35.56-.26,1.21-.35,1.52-1-.25-.32-.63-.28-1-.33a1.64,1.64,0,0,1-1,.64,21.27,21.27,0,0,0-5.74,3.11,8.89,8.89,0,0,0-4,5.73,2.44,2.44,0,0,0,.79,2.64l.58.47h1.79C175.93,24.67,175.61,23.33,176.63,21.22Z" style="fill:#d7ba9b"/><path d="M6.64,18a1.68,1.68,0,0,1,.82-.87A1.26,1.26,0,0,1,7.88,17l.07-1.16A4.26,4.26,0,0,0,6,17c.1,1-1,1.23-1.19,2.07-.05.22-.53-.24-.74-.51-.57.08-.84.52-1.19.91A12.11,12.11,0,0,0,0,26.14H1.35c0-.15.05-.3.09-.45s.13-.45.2-.67l.23-.66C2.4,22.87,3.26,21.52,3.82,20c.17,2.24-1.06,4.1-1.68,6.12H3.5a1,1,0,0,1,.28-.64,17.53,17.53,0,0,1,.65-3A16.73,16.73,0,0,1,6.64,18Z" style="fill:#f4dec9"/><path d="M164.36,10.12a56.79,56.79,0,0,0-7.08,3.79l-.32.22a1.34,1.34,0,0,0-.64.92c1.11.5.31,1.57.68,2.29a1.58,1.58,0,0,1,.64.07.54.54,0,0,1,.27.31c.59.16,1-.39,1.46-.47.08,0,.19-.16.22-.14.19.11.08.23,0,.33h0q0,.29,0,.59t0,.82a2.76,2.76,0,0,1,1.54.72,2,2,0,0,0,.51.24l.28-.39c0-.31,0-.65.36-.85a.8.8,0,0,0,0-.31,9.63,9.63,0,0,1-1,0h-.05a.86.86,0,0,1-.39-.15,1,1,0,0,1-.32-.45c-.3-.8.33-1.26.82-1.69,3.31-3,7.34-4.58,11.4-6.14.52-.2,1.13-.22,1.54-.67-.47-.46-1.07-.25-1.62-.32-2.26,1-4.57,1.92-6.78,3a24.15,24.15,0,0,0-6.33,4.23c-.58.57-1.12.78-1.73.18-.79-.78,0-1.22.47-1.62,2.23-2,5-3,7.61-4.17,1.8-.79,3.64-1.47,5.47-2.2a5.62,5.62,0,0,0-2.48-.35C167.71,9.38,165.86,9.41,164.36,10.12Z" style="fill:#d7ba9b"/><path d="M112,.92c-4.39,2.12-9.3,3.2-13,6.64a.82.82,0,0,1-1-.09.35.35,0,0,1,.11-.54A4.4,4.4,0,0,0,99.64,5.5,2.5,2.5,0,0,0,100,4.2l3.66-1.43-.18-.42c-1.2.52-2.62.57-3.48,1.84-1.89.31-3.35,1.47-4.9,2.45l-.16.12a.78.78,0,0,0-.19.29,3.72,3.72,0,0,0-.11.83h0l.94.1c.09-.39.13-.82.67-.83.08,0,.24.19.24.3,0,.62-.55.43-.89.54h0v.59l0,0,.68-.25.59-.1a14.77,14.77,0,0,1,3,0h.75c.25,0,.5,0,.75-.05a5,5,0,0,0,1.47-.39c.38-.17.65.13.95.32a.76.76,0,0,0,.38.14.56.56,0,0,0,.22,0,1.49,1.49,0,0,1-.16-.56.71.71,0,0,1,.1-.38,1.79,1.79,0,0,1,.53-.51C108,4.54,111.57,3.44,115,1.94a7.36,7.36,0,0,0,1.25-.87h0a1.52,1.52,0,0,1,.37,0h.2A.77.77,0,0,0,117.2,1l.1-.08a.73.73,0,0,0,.17-.43h0l-1.16,0-.06.54A7.47,7.47,0,0,0,113,2c-3.26,1.35-6.45,2.87-9.68,4.32a1.89,1.89,0,0,0-.9.83c-.39.67-1,.57-1.91.4a31.08,31.08,0,0,1,7.61-4.31c1.73-.71,3.44-1.45,5.17-2.15a.59.59,0,0,0,.42-.57l-1.47.05C112.16.67,112.11.86,112,.92ZM97.46,6.08c0,.24,0,.49-.38.48a.14.14,0,0,1-.1-.1.28.28,0,0,1,.15-.31,1.28,1.28,0,0,1,.33-.08h0A1,1,0,0,1,98,5.53a1.59,1.59,0,0,1,.74-.09l.15-.13-.13.15h0a.94.94,0,0,1-.69.59A1.91,1.91,0,0,1,97.46,6.08Z" style="fill:#d7ba9b"/><path d="M172.65,19.43a29.78,29.78,0,0,1,8.16-5.29c1-.43,2.11-.6,2.83-1.51-.25-.33-.62-.28-1-.3a50.89,50.89,0,0,0-9.07,5.05c-1.32,1-2.8,1.94-3.14,3.72a6.15,6.15,0,0,0,1.1,5h1.22C171.12,24.39,171.42,20.56,172.65,19.43Z" style="fill:#d7ba9b"/><path d="M90.53,2.24a.81.81,0,0,1-.47.47,45.5,45.5,0,0,0-6.41,3.73,3.15,3.15,0,0,0-.72.58c-.34.42-1.14.68-.92,1.3s.95.11,1.41.33v0l.3-.31h0A2.28,2.28,0,0,1,85,6.61l.28-.16.5-.29a3.6,3.6,0,0,0,1.15-1c.06,1.16-.61,1.36-.91,1.8s-1.18.41-.92,1.05,1,.13,1.43.3a.45.45,0,0,0,.22-.1h0a3.79,3.79,0,0,1,2.12-2.4c.57-.31,1.17-.59,1.7-.92A63.12,63.12,0,0,1,99.19.75a.88.88,0,0,0,.52-.52,13.44,13.44,0,0,0-4.5-.06C93.7.87,92.36,2,90.57,2A.89.89,0,0,1,90.53,2.24Z" style="fill:#f4dec9"/><path d="M17.38,13.23c.29-.19.64-.37,1-.58l.2-.14a3.08,3.08,0,0,0,.32-.26,1.88,1.88,0,0,0,.6-1.12v-.05c-1-.09-1.61.76-2.47,1-.19.78-.81,1.14-1.4,1.58a16,16,0,0,0-6.18,8.82,16.16,16.16,0,0,0-.5,3.65h1.39a13.74,13.74,0,0,1,.86-4.62A16.8,16.8,0,0,1,17.38,13.23Z" style="fill:#d7ba9b"/><path d="M79.32,1.67C76,3.12,73,5.26,69.77,6.94a1.63,1.63,0,0,0-1.12,1.64c3.46-1.56,6.12-4.26,9.81-5-1.14.66-2.25,1.38-3.42,2a28.53,28.53,0,0,0-3.22,2.17,1.15,1.15,0,0,0-.64,1.09,1.87,1.87,0,0,0,.3.75l.6-.13h0a5.2,5.2,0,0,1,2.87-2.75l.85-.44.61-.34A61.26,61.26,0,0,1,86.49.69c.16-.06.26-.3.38-.46a15.94,15.94,0,0,0-6.62.5C80.22,1.32,79.74,1.49,79.32,1.67Z" style="fill:#f4dec9"/><path d="M20.6,21.8c1.08-2.64,3-4.59,4.92-6.53,1.56-1.59,2.93-3.35,4.64-4.81,1.52-1.3,3.37-2.19,4.66-3.76l.57-.26a.56.56,0,0,0-.56.26,4.07,4.07,0,0,0-1.8.44,2,2,0,0,1-1,1.14c-3.86,2.33-6.37,6.06-9.53,9.12a9.36,9.36,0,0,0-1.32,1.91,15.2,15.2,0,0,0-2.34,6.82h.68c0-.27,0-.54.06-.8A12.45,12.45,0,0,1,20.6,21.8Z" style="fill:#d7ba9b"/><path d="M170.13,12.66c-.35,1.09-1.35,1.5-2.22,2a13.14,13.14,0,0,0-4.12,3.75,2.81,2.81,0,0,0-.6,1.74l0,0a2,2,0,0,0,1.09.53.93.93,0,0,0,.3,0l.16-.06.17-.11a2.42,2.42,0,0,0,.69-1c.09-.22.35-.37.53-.56a30.86,30.86,0,0,1,13.07-8.09,5.37,5.37,0,0,0-1.94-.7,42.55,42.55,0,0,1-5.91,2.21l-.66,0C170.65,12.66,170.41,12.71,170.13,12.66Z" style="fill:#f4dec9"/><path d="M117.94,1.81c-3.47,1.4-6.81,3.08-10.17,4.73l-.2.11-.26.17a1.46,1.46,0,0,0-.26.25,1,1,0,0,0-.18.31,1.22,1.22,0,0,0-.06.45c.51.12,1,.17,1.53.34a3.21,3.21,0,0,1,.5.22c.64.34,1.53.8,2.19-.09.53-.71,1,.27,1.45,0a2.52,2.52,0,0,1,1-1.55,4.14,4.14,0,0,1,.5-.33,13.66,13.66,0,0,1,1.3-.6c3.39-1.46,6.83-2.79,10.26-4.16a1.13,1.13,0,0,0,.7-.57l-1.52-.05c-3,1.32-6.1,2.6-9.12,4-1.68.77-3.48,1.31-4.88,2.64a1.32,1.32,0,0,1-1.77,0c1.69-1.92,4-2.7,6.21-3.64,2.37-1,4.74-2,7-3.24l-2.72.07C119.2,1.56,118.51,1.58,117.94,1.81Z" style="fill:#d7ba9b"/><path d="M196.16,20.41l-1.87-1.83c-.16.78-.9.95-1.42,1.34-2.24,1.68-2.6,3.22-1.26,5.32a3.93,3.93,0,0,0,.82.9h3.07l-.7-.6C193.11,24,193.82,21.54,196.16,20.41Z" style="fill:#f4dec9"/><path d="M78.84,1.06c-2.6,1.36-5.25,2.65-7.77,4.14l-1.59.92c-.8.46-1.59.93-2.36,1.43a18.69,18.69,0,0,0-2.21,1.67l.08,0,.17,0c.08,0,.15,0,.15.06-.1.89.25,1.22.76,1.35a5.15,5.15,0,0,0,1,.1l.62-.66L68,9.79c.51-.42.93-1.31,1.52,0,.29.65,1.1-.17,1.67,0l.28-.36a1.87,1.87,0,0,1-.3-.75,1.15,1.15,0,0,1,.64-1.09A28.53,28.53,0,0,1,75,5.51c1.17-.59,2.29-1.31,3.42-2-3.68.77-6.35,3.47-9.81,5a1.63,1.63,0,0,1,1.12-1.64C73,5.26,76,3.12,79.32,1.67c.42-.18.9-.35.93-.94-.25-.31-.58-.25-.9-.2A1,1,0,0,1,78.84,1.06Z" style="fill:#d7ba9b"/><path d="M12,14a1.78,1.78,0,0,0-1.94.82.64.64,0,0,1-.64.34c-.15.93-.9,1.36-1.56,1.88h0a1.41,1.41,0,0,1-.08.31,1.34,1.34,0,0,1-.23.44,2,2,0,0,1-.65.49,9.56,9.56,0,0,0-.74,1.56,40.61,40.61,0,0,0-1.22,5c.1.42-.09.64-.5.7h0l0,.6H6.1A22.68,22.68,0,0,1,8,19.44C8.93,17.24,10.88,16,12,14Z" style="fill:#f4dec9"/><path d="M161.31,16c-.49.44-1.12.9-.82,1.69a1,1,0,0,0,.32.45.86.86,0,0,0,.39.15h.05a9.61,9.61,0,0,0,1,0,17.84,17.84,0,0,1,2.88-3q.53-.43,1.09-.81a13.59,13.59,0,0,1,1.58-.91,13.45,13.45,0,0,1,2.33-.88.57.57,0,0,1,.63-.32.51.51,0,0,1,.26-.27,2.62,2.62,0,0,1,.36-.13C172,11,173.12,11,174,10.55c.49-.27,1.12-.25,1.48-.75a1.2,1.2,0,0,0-1.21-.62c-.41.45-1,.47-1.54.67C168.66,11.41,164.62,13,161.31,16Z" style="fill:#f4dec9"/><path d="M11.7,15.51c.37-.36.73-.74,1.08-1.11l1-1.12c.41,0,.88,0,.91-.58a1.06,1.06,0,0,0-.91.56A3.52,3.52,0,0,0,12,14c-1.14,2-3.09,3.24-4,5.44a22.68,22.68,0,0,0-1.89,6.7H7.33a20.06,20.06,0,0,1,.46-3.26A14.54,14.54,0,0,1,11.7,15.51Z" style="fill:#d7ba9b"/><path d="M116.48,6.24a5.18,5.18,0,0,0-3,2.09l1.74,0A2.75,2.75,0,0,1,116.38,7l.25-.15c.2-.11.41-.22.62-.31l.79-.33c2.57-1.08,5.29-1.78,7.8-3a4.79,4.79,0,0,1,1.36-.24.52.52,0,0,1,.63-.24s.06.08.08.12l-.68.16h0a.57.57,0,0,1-.43.58c-.14.05-.29.09-.43.15L118.76,7l.59.28h0l13-5.24a2.24,2.24,0,0,0,.48-.37c-.46-.43-1-.22-1.52-.22a3.55,3.55,0,0,1-2.44,1.15c.09-.8,1-.6,1.09-1.21l-1.85,0c-3.52,1.47-7.05,2.89-10.55,4.42C117.24,5.95,116.86,6.09,116.48,6.24Z" style="fill:#d7ba9b"/><path d="M160.82,7c-3.54,1.29-7.18,2.34-10.28,4.6l-.26.17a.88.88,0,0,0-.51.72h0c0,.13,0,.26,0,.37s0,.22,0,.33,0,.05,0,.08,0,.32,0,.44c.06.49.24.66.73.61l.26,0,.52-.12.42-.12.49-.14A18.06,18.06,0,0,1,154,12.52q.54-.37,1.1-.7t1.28-.71h0c.4-.21.81-.4,1.23-.6q.9-.41,1.82-.78l.78-.31,1.57-.59,2.36-.88c.76-.29,1.49-.62,2.24-.94-.35-.42-.84-.22-1.27-.26-3.49,1.57-7.19,2.66-10.51,4.61a9.09,9.09,0,0,0-2.85,1.8c-.23.28-.73.64-1.09.3s.12-.72.37-1c1.62-1.73,3.88-2.33,5.94-3.28,1.55-.72,3.18-1.24,4.78-1.84.57-.22,1.28-.29,1.1-1.2l-.5,0C162.09,6.89,161.37,6.83,160.82,7Z" style="fill:#d7ba9b"/><path d="M158.26,14.66c-.46.4-1.26.85-.47,1.62.61.6,1.16.39,1.73-.18a24.15,24.15,0,0,1,6.33-4.23c2.21-1.1,4.52-2,6.78-3a1.66,1.66,0,0,0-1.29-.56c-1.82.73-3.67,1.4-5.47,2.2C163.22,11.66,160.49,12.71,158.26,14.66Z" style="fill:#f4dec9"/><path d="M19.78,16.27a13.5,13.5,0,0,0-1.92,2.49,14.8,14.8,0,0,0-1.81,4.87l.95-.37h0l.27-.38a7,7,0,0,0,.6-1,5.39,5.39,0,0,0,.22-.51,15.8,15.8,0,0,1,4-5.88c2.65-2.57,5.16-5.28,8-7.58a4.65,4.65,0,0,0-1.82.45A82.23,82.23,0,0,0,19.78,16.27Z" style="fill:#d7ba9b"/><path d="M99.19.75a63.12,63.12,0,0,0-8.58,4.16c-.53.33-1.13.6-1.7.92a3.79,3.79,0,0,0-2.12,2.4h0A2.34,2.34,0,0,1,88,8.44l.68.29a2.51,2.51,0,0,0,1.19.21A3,3,0,0,0,91,8.46a2,2,0,0,1,.54-.22,1.12,1.12,0,0,1,.29,0h.06a1.13,1.13,0,0,1,.26.05l.66-.07a2.26,2.26,0,0,1,0-.26,2.07,2.07,0,0,1,.06-.3,3.78,3.78,0,0,1,1.41-1.73A4,4,0,0,0,95.12,5a6.62,6.62,0,0,0-3.8,2.27,3.1,3.1,0,0,1-1.73.87.56.56,0,0,1-.77-.31c-.12-.28.08-.48.29-.65A21.43,21.43,0,0,1,91.95,5c2.37-1.27,4.86-2.33,7.25-3.58a3.33,3.33,0,0,1,.56-.21A2.13,2.13,0,0,0,101,.48a1.36,1.36,0,0,0,.15-.31h0L99.72.24A.88.88,0,0,1,99.19.75Z" style="fill:#d7ba9b"/><path d="M117.2,1a.77.77,0,0,1-.38.07h-.2a1.52,1.52,0,0,0-.37,0h0a7.36,7.36,0,0,1-1.25.87c-3.43,1.5-7,2.6-10.16,4.8a1.79,1.79,0,0,0-.53.51.71.71,0,0,0-.1.38,1.49,1.49,0,0,0,.16.56h1.22a.5.5,0,0,1,.48-.22l.19,0,.54-.2a1.23,1.23,0,0,1,.06-.45,1,1,0,0,1,.18-.31,1.46,1.46,0,0,1,.26-.25l.26-.17.2-.11c3.35-1.66,6.7-3.33,10.17-4.73.56-.23,1.25-.25,1.51-1-.67,0-1.27-.53-2-.36a.73.73,0,0,1-.17.43Z" style="fill:#f4dec9"/><path d="M108.94,7.65a1.32,1.32,0,0,0,1.77,0c1.4-1.33,3.2-1.87,4.88-2.64,3-1.37,6.08-2.65,9.12-4-.79-.59-1.69-.2-2.54-.28C119.89,2,117.52,3,115.14,4,112.95,4.95,110.63,5.74,108.94,7.65Z" style="fill:#f4dec9"/><path d="M119.35,7.3h0a.75.75,0,0,0-.65.64c0,.23,0,.46,0,.69l.25,0,.41,0a1.75,1.75,0,0,1,1.16-.41h.42a.86.86,0,0,1,.24-.06,2.51,2.51,0,0,1,1.6-1L123.4,7l.36-.08h0a15.24,15.24,0,0,1,3.95-1.87l.58-.23a10.9,10.9,0,0,0,1.49-.73c1.59-1,3.55-1.11,5-2.33l-1.92-.11a2.24,2.24,0,0,1-.48.37Z" style="fill:#f4dec9"/><path d="M86.49.69a61.26,61.26,0,0,0-10.1,5.17l-.61.34-.85.44a5.2,5.2,0,0,0-2.87,2.75,11,11,0,0,0,1.57-.2,1.25,1.25,0,0,1,.53.11h0a1.34,1.34,0,0,1,.27-.73l0,0a3.74,3.74,0,0,1,.61-.58c3.37-2.76,7.33-4.5,11.17-6.43l.31-.14.65-.24a4.79,4.79,0,0,0,.7-.32,2.26,2.26,0,0,0,.49-.36,2,2,0,0,0,.24-.28h0L86.87.23C86.75.39,86.65.63,86.49.69Z" style="fill:#d7ba9b"/><path d="M124.88,7.13l-1.12.5a3.5,3.5,0,0,0-.53,1,.29.29,0,0,0,0,.18c.12.21.57.28,1.46.42l.54-.44c.13-.53.59-.7,1-.93h0a5.14,5.14,0,0,1,2.16-1.28l.79-.32c3-1.32,6-2.68,9-4-.57-.51-1.26-.22-1.9-.27A111.43,111.43,0,0,1,126,6.65C125.63,6.8,125.26,7,124.88,7.13Z" style="fill:#f4dec9"/><path d="M165.44,8.89c-1,.51-2.1.75-3.09,1.24L156,13.23h0l-1.6,1.32v.61l1.37.36.57-.48h0a1.34,1.34,0,0,1,.64-.92l.32-.22a56.79,56.79,0,0,1,7.08-3.79c1.51-.71,3.35-.74,4.5-2.18h-.5l-2,.33a4.45,4.45,0,0,1-.4.3A5.26,5.26,0,0,1,165.44,8.89Z" style="fill:#f4dec9"/><path d="M161.79,8.82l-1.57.59-.78.31q-.92.37-1.82.78c-.41.19-.82.39-1.23.6h0q-.65.34-1.28.71t-1.1.7a18.06,18.06,0,0,0-1.81,1.41h0l-.08.62h1.46a2.35,2.35,0,0,1,1.18-1.2l.31-.15.63-.27a8.87,8.87,0,0,1,1.36-1.13,12.32,12.32,0,0,1,1.51-.87c1-.51,2.14-.91,3.22-1.32,1.46-.56,2.86-1.54,4.57-1.36.16-.46.57-.57,1-.68-.09-.58-.53-.58-1-.58-.74.31-1.48.65-2.24.94Z" style="fill:#f4dec9"/><polygon points="152.12 14.55 152.12 14.55 152.12 14.55 152.12 14.55" style="fill:#f4dec9"/><path d="M161.75,7.34c-1.6.6-3.24,1.13-4.78,1.84-2.05,1-4.31,1.56-5.94,3.28-.25.26-.82.55-.37,1s.86,0,1.09-.3a9.09,9.09,0,0,1,2.85-1.8c3.32-2,7-3,10.51-4.61-.62-.7-1.56-.18-2.26-.6C163,7.05,162.32,7.13,161.75,7.34Z" style="fill:#f4dec9"/><path d="M148.9,11.25a1.12,1.12,0,0,0-.67,1.28.64.64,0,0,0,.08.19.32.32,0,0,0,.09.1h0c.24.15.61-.12.87,0l.48-.3h0a.88.88,0,0,1,.51-.72l.26-.17c3.11-2.26,6.75-3.31,10.28-4.6.55-.2,1.27-.14,1.54-.87C161.65,6,161,5.41,160.2,6c-1.67,1.38-3.81,1.73-5.74,2.51A44.1,44.1,0,0,0,148.9,11.25Z" style="fill:#f4dec9"/><path d="M125.53,1.67C122.1,3,118.66,4.37,115.27,5.83a13.66,13.66,0,0,0-1.3.6,4.14,4.14,0,0,0-.5.33,2.52,2.52,0,0,0-1,1.55l.59,0h.44a5.19,5.19,0,0,1,3-2.09c.38-.15.76-.29,1.13-.45,3.49-1.52,7-3,10.55-4.42-.58-.55-1.27-.25-1.93-.27A1.13,1.13,0,0,1,125.53,1.67Z" style="fill:#f4dec9"/><path d="M113.29,1.05c-1.73.7-3.44,1.44-5.17,2.15a31.08,31.08,0,0,0-7.61,4.31c.93.17,1.53.27,1.91-.4a1.89,1.89,0,0,1,.9-.83c3.22-1.45,6.41-3,9.68-4.32a7.47,7.47,0,0,1,3.26-.91l.06-.54-2.6,0A.59.59,0,0,1,113.29,1.05Z" style="fill:#f4dec9"/><path d="M196.54,21.37c-.08-.34-.07-.71-.38-1-2.34,1.13-3.06,3.61-1.35,5.12l.7.6h2C195.66,24.84,195.28,23.09,196.54,21.37Z" style="fill:#d7ba9b"/><path d="M138.77,9.77c-.37.24-.82.43-.68.88.07.22.19.28.33.26s.54-.22.75-.09l.88-.23c-.08-.56.23-.82.69-1.06a72.71,72.71,0,0,1,11.56-5.09L151,3.92c-1.09,1-2.54,1.16-3.83,1.68A48.92,48.92,0,0,0,138.77,9.77Z" style="fill:#f4dec9"/><path d="M140.06,10.6c0,.69.05,1.33.88,1.61s.93-.16,1.13-.69h0c-.29-.17-.75,0-1-.18a.4.4,0,0,1-.19-.28c-.11-.49.46-.77.8-1.06a6.16,6.16,0,0,1,1.3-.83,57.11,57.11,0,0,1,9-3.79l.44-.11a3,3,0,0,0,.51-.16,1.18,1.18,0,0,0,.4-.28,1.07,1.07,0,0,0,.22-.33h0l-1.21-.06a72.71,72.71,0,0,0-11.56,5.09C140.28,9.78,140,10,140.06,10.6Z" style="fill:#d7ba9b"/><path d="M141.56,7.37c-1.42.62-2.58,1.73-4.09,2.2a.8.8,0,0,0-.56.85,1.25,1.25,0,0,1,.39.16.43.43,0,0,1,.09.1.44.44,0,0,1,.07.19c.08.49.21.9.84.87s.78-.4.87-.9h0c-.22-.13-.51.07-.75.09s-.26,0-.33-.26c-.14-.45.31-.64.68-.88a48.92,48.92,0,0,1,8.36-4.17c1.29-.51,2.74-.71,3.83-1.68l-1.51-.05h0C146.83,5,144.2,6.21,141.56,7.37Z" style="fill:#d7ba9b"/><path d="M148.22,10.59a1.36,1.36,0,0,0-1,1.28h0c0,.1,0,.21,0,.31-.06.69-.14,1.39.73,1.66s.93-.59,1.3-1h0c-.25-.12-.63.14-.87,0h0a.32.32,0,0,1-.09-.1.64.64,0,0,1-.08-.19,1.12,1.12,0,0,1,.67-1.28,44.1,44.1,0,0,1,5.56-2.69c1.94-.78,4.07-1.13,5.74-2.51l-.37,0a82.6,82.6,0,0,0-10.75,4.23C148.83,10.36,148.52,10.46,148.22,10.59Z" style="fill:#d7ba9b"/><path d="M145.22,4.4a31.48,31.48,0,0,0-5.6,2.33c-.55.29-1.14.53-1.72.79l-.36.17a5.79,5.79,0,0,0-2.19,1.67h0l-.13,1.49.15.56.94,0,.41-.87a1.51,1.51,0,0,1-.58-.36c-.17-.2-.08-.4.11-.59l.19-.16.32-.25c2.82-2.11,6.1-3.29,9.33-4.58a5.48,5.48,0,0,0,2.07-1l-1.46-.23C146.45,4.06,145.78,4.23,145.22,4.4Z" style="fill:#d7ba9b"/><path d="M136.76,9.21l-.32.25-.19.16c-.19.19-.28.39-.11.59a1.51,1.51,0,0,0,.58.36h0a.58.58,0,0,0,.19-.14h0a.8.8,0,0,1,.56-.85c1.51-.48,2.66-1.58,4.09-2.2,2.64-1.15,5.27-2.33,7.9-3.5h0c-.36-.45-.84-.28-1.29-.28a5.48,5.48,0,0,1-2.07,1C142.87,5.91,139.59,7.09,136.76,9.21Z" style="fill:#f4dec9"/><path d="M128.29,4.86l-.58.23A15.24,15.24,0,0,0,123.76,7h0q0,.34,0,.68h0l1.12-.5c.37-.17.75-.33,1.13-.48A111.43,111.43,0,0,0,136.28,2l-1.49-.23c-1.46,1.22-3.42,1.37-5,2.33A10.9,10.9,0,0,1,128.29,4.86Z" style="fill:#d7ba9b"/><path d="M128.43,6.63a5.14,5.14,0,0,0-2.16,1.28h0l.4.37a46.61,46.61,0,0,1,5.94-2.61l.85-.37a16.43,16.43,0,0,0,2.17-1.18,3.12,3.12,0,0,1,.43-.23,6.62,6.62,0,0,1,.82-.29l.26-.08a4,4,0,0,0,1.61-.77,2.27,2.27,0,0,0,.34-.39h0l-.9-.06c-3,1.34-6,2.71-9,4Z" style="fill:#d7ba9b"/><path d="M196.54,21.37c-1.26,1.72-.88,3.47,1,4.77h1C198.4,24.35,198.09,22.63,196.54,21.37Z" style="fill:#f4dec9"/><path d="M131,8h.11a34.07,34.07,0,0,0,6.34-2.75c.68-.35,1.37-.71,2.05-1,1-.49,2.19-.6,3-1.5h-1.2c-3.22,1.2-6,3.28-9.38,4.23C131.44,7,130.93,7.3,131,8Z" style="fill:#d7ba9b"/><path d="M101.33,1.71c-1.69.75-3.4,1.48-5.1,2.22-.3.13-.63.3-.49.66s.43.21.68.09c2.65-1.26,5.29-2.54,8-3.78.7-.33.13-.48-.05-.7l-.53,0C103.23,1.16,102.21,1.32,101.33,1.71Z" style="fill:#d7ba9b"/><path d="M174,10.55c-.87.48-2,.5-2.62,1.39l0,.43a42.5,42.5,0,0,0,5.91-2.21,3.31,3.31,0,0,0-1.86-.36C175.1,10.29,174.47,10.28,174,10.55Z" style="fill:#d7ba9b"/><path d="M92.05,1.07c-.23.08-.47.14-.7.23l-.24.11a1.24,1.24,0,0,0-.55.58h0C87,3,84.15,5.33,81.09,7.26a1.23,1.23,0,0,0-.27.23,1.38,1.38,0,0,0-.32,1c1,.23,1.84,1.62,2.91.19-.46-.22-1.22.21-1.41-.33s.58-.88.92-1.3a3.15,3.15,0,0,1,.72-.58,45.5,45.5,0,0,1,6.41-3.73.81.81,0,0,0,.47-.47.89.89,0,0,0,0-.23C92.36,2,93.7.87,95.21.17l-2.08,0A1.53,1.53,0,0,1,92.05,1.07Z" style="fill:#d7ba9b"/><path d="M49.86,4.85c.78-.68,1.92-.62,2.5-1.59-.72.09-1.5-.13-2.13.42C50.26,4.08,49.54,4.15,49.86,4.85Z" style="fill:#d7ba9b"/><path d="M4.8,19.09C5,18.25,6.09,18,6,17a4,4,0,0,0-1.93,1.55C4.26,18.85,4.75,19.31,4.8,19.09Z" style="fill:#d7ba9b"/><path d="M128.91,2.61a3.55,3.55,0,0,0,2.44-1.15L130,1.4C129.93,2,129,1.81,128.91,2.61Z" style="fill:#f4dec9"/><path d="M166.37,8.26c-1.7-.18-3.1.8-4.57,1.36-1.08.41-2.18.81-3.22,1.32a12.32,12.32,0,0,0-1.51.87,8.87,8.87,0,0,0-1.36,1.13l.28.28h0l6.36-3.11c1-.49,2.11-.73,3.09-1.24a5.26,5.26,0,0,0,.53-.31,4.42,4.42,0,0,0,.4-.3h0l2-.33c-.24-.39-.64-.35-1-.36S166.53,7.81,166.37,8.26Z" style="fill:#d7ba9b"/><path d="M58.25,3.08c.48,0,.3-.42.33-.7l-.52,0C58,2.67,58,3.06,58.25,3.08Z" style="fill:#d7ba9b"/><path d="M33.25,22.22c1.45.68-.28,1.62.31,2.34C35,23.39,34.77,21.31,36.17,20c.48,1,1.23.72,1.87.1.8-.77,2.1-.92,2.52-2.16.13-.4.63-.25,1-.28,1.62-.13,2.91-.73,3.37-2.45h0c-.24-.12-.56,0-.81,0a.34.34,0,0,1-.33-.24c1.36-2.2,3.27-3.76,4.91-5.59-3.63,2-6,5.42-9.33,7.79,1.85-2.44,3.63-5,6.22-6.62,1.19-.76,1.84-2.72,4.13-1.66.89.41,1.86-1.46,2.12-2.66.13-.62-.82-.75-1.47-1,.86,1.13-.89,1.66-.28,2.68-1.7-.28-.71-1.3-.65-2-1.3.06-1.53,1.84-2.88,1.6-.16-1,1.05-1.11,1.2-1.91-1.82.35-2,.58-1.78,2.31,0,.41-.36.45-.6.62-.55.39-1.52.72-1.58,1.16-.27,2.22-2.27,3.08-3.37,4.63a1.83,1.83,0,0,1-1.52,1.07,4.74,4.74,0,0,1,1.18-1.76l.59-.55c.19-.19.38-.37.56-.58a4.41,4.41,0,0,0,.47-.64A3.23,3.23,0,0,0,42,11.1a4,4,0,0,0-1.24.61,5.13,5.13,0,0,0-.95.91,23.06,23.06,0,0,0-1.48,2.22c-.3.47-.58,1-1.11.77s-.25-.91.05-1.24c1.48-1.56,2.45-3.8,5-3.91-.21-1.67,1.82-1.54,2.19-2.78a26.27,26.27,0,0,0-7.09,5.09c-.76.79-1,2-1.78,2.62-2.86,2.14-4.52,5.15-6.31,8.08a3.9,3.9,0,0,0-.64,2.28,3.64,3.64,0,0,1,0,.39H30A.2.2,0,0,0,30,26c-.18-.71-.43-1.47.05-2.1,2-2.57,3.29-5.63,5.84-7.77.19-.16.42-.41.66-.18s.08.53-.17.77A29.09,29.09,0,0,0,31.87,23c-.56.9-1.16,1.89-.3,3a.15.15,0,0,1,0,.09h.91a2.62,2.62,0,0,0-.25-.65C31.63,24.27,32.58,23.21,33.25,22.22Zm3.43-3,0,0,0,0h0l.08-.12-.06.14-.08.12Z" style="fill:#d7ba9b"/><path d="M42,11.09h0Z" style="fill:#d7ba9b"/><path d="M163.62,24.2c-2-1.07-.83-3.3-1.72-4.79l-.28.39c.22,1.51-1.54.85-2.05,1.74q0-1.35,0-2.7,0-.41,0-.82t0-.59h0c.11-.1.22-.21,0-.33,0,0-.15.09-.22.14-.51.08-.87.63-1.46.47-.54.43-.85.33-.91-.38-.37-.72.43-1.79-.68-2.29l-.57.48c-.12.49-.15,1.22-.82,1.07a.85.85,0,0,1-.55-1.42h0v-.61h-.86a.87.87,0,0,1-1.15.64.66.66,0,0,1-.22-.08.3.3,0,0,1-.15-.23.53.53,0,0,1,.11-.33h0l.08-.62h0l-.49.14-.42.12-.52.12-.26,0c-.49.05-.68-.11-.73-.61,0-.12,0-.27,0-.44s0,0,0-.08,0-.21,0-.33,0-.24,0-.37l-.48.3h0c-.37.42-.39,1.29-1.3,1s-.8-1-.73-1.66c0-.1,0-.21,0-.31l-.88.58c-.12.54-.43,1-1,1-.72,0-.6-.66-.76-1.11,0-.14-.31-.21-.47-.31h0l-.05,0c0,.45-.18.82-.68.81s-.57-.38-.6-.74a.69.69,0,0,0-.61-.73h0a.84.84,0,0,1-.19.13h0c-.2.52-.43.92-1.13.69s-.88-.91-.88-1.61l-.88.23h0c-.09.5-.3.86-.87.9s-.76-.37-.84-.87a.44.44,0,0,0-.07-.19.43.43,0,0,0-.09-.1,1.24,1.24,0,0,0-.39-.16.58.58,0,0,1-.19.14h0l-.41.87c0,.34-.16.59-.56.54s-.36-.3-.38-.56h0l-.15-.56c-.22,0-.53,0-.73,0a.24.24,0,0,0-.16.08c-.6.81-1,.89-1.4.66a2.15,2.15,0,0,1-.52-.51l-.12-.16c-.12-.16-.25-.33-.37-.48l-.6.39a3.81,3.81,0,0,1-.2.37.17.17,0,0,1-.08.06c-.3.08-.35-.21-.42-.42a.78.78,0,0,1-.68,0,.73.73,0,0,1-.16-.14,1.62,1.62,0,0,1-.21-.31l-.07-.14a2,2,0,0,0-.33-.52.62.62,0,0,0-.39-.19,1.22,1.22,0,0,1-.23.13c0,.44-.16.81-.68.87-.11.17-.26.5-.31.48-1.67-.48-3.48.5-5.08-.49-.31-.19-.62-.51-1-.39a5,5,0,0,1-4.27-.19c-.28-.16-.49.29-.72.49-.55.49-1.14.59-1.54-.16-.67-1.25-1-.8-1.46.16a5.24,5.24,0,0,1-.93,1.12c-.36-.11-.29-.36-.36-.54-.39-1-.44-2-2.21-1.61s-3.56-.34-5.36.11a.77.77,0,0,1-.84-.28c-.58-.83-1.18-.72-2-.22-1.4.84-2.93,0-4.41.12-.38,0-.53-.44-.54-.84l-.59.1c-.08.26,0,.67-.4.7-.23,0-.27-.24-.28-.45h0l0,0A2,2,0,0,0,94.16,9c-1.4,1.09-1.5,1-2-.74h0a1.13,1.13,0,0,0-.26-.05h-.06a1.12,1.12,0,0,0-.29,0,2,2,0,0,0-.54.22,3,3,0,0,1-1.12.48,2.51,2.51,0,0,1-1.19-.21L88,8.44a2.34,2.34,0,0,0-1.19-.21.45.45,0,0,1-.22.1c-1,1.33-1.9.29-2.84,0h0l-.3.31v0c-1.07,1.43-2,0-2.91-.19l-.58.44c-1,1.5-1.9.07-2.85-.08a.47.47,0,0,1-.21.14c-.74,1.19-1.63,1.25-2.65.34h0a1.25,1.25,0,0,0-.53-.11,11.07,11.07,0,0,1-1.57.2l-.6.13-.28.36c-.36,1.23-1.26,1-2.07.68-.35-.14-.64-.47-1.07-.49l-.33.09h0l-.62.66c-.13,1.08-.26,2.16-.4,3.24,0,.33-.18.63-.56.64s-.5-.3-.57-.62c-.11-.51-.18-1-.33-1.51s-.16-1.3-.64-1.27a1.48,1.48,0,0,0-1.41,1.19,3,3,0,0,1-2,2.22c-.52-.12-.32-.57-.39-.89-.12-.54-.5-.6-.95-.57s-.6.3-.66.72c-.1.75-.26,1.5-.43,2.5-.84-1-.55-2.16-1-3.16A1.81,1.81,0,0,0,57,14.94c-.06.56.09,1.39-.9,1.26a1.2,1.2,0,0,1-1.15-1.54c.42-1.63-.48-1.78-1.68-1.71a.21.21,0,0,0,0,.28l.22.34c-.34.07-.13-.24-.22-.33l-.55.13c-.77.76-1.16,1-1.5.66a1.13,1.13,0,0,1-.14-.18,4.69,4.69,0,0,1-.39-.83.25.25,0,0,0-.08-.1,1,1,0,0,0-.2-.12l-.21-.11L49.6,13h0l-.74.84a.68.68,0,0,1-.14.62c-.21.25-.57.4-.74.69a1.3,1.3,0,0,1-.79,1.08,1.24,1.24,0,0,1-.51.08l-.27,0c-1.06-.26-.48-1.32-.67-2a.1.1,0,0,1,0-.14l-.65.69-.22.37v0h0c-.47,1.72-1.75,2.32-3.37,2.45-.35,0-.84-.13-1,.28-.41,1.24-1.72,1.39-2.52,2.16-.64.62-1.39.91-1.87-.1-1.4,1.28-1.18,3.36-2.62,4.53l-.19,1.15h0a2.47,2.47,0,0,1,.26.43A4.66,4.66,0,0,1,34,27.58h0c.77,1.63,2.28,2.51,3.61,3.57.37.16.79.24,1,.66L40.82,33a5.06,5.06,0,0,1,1.32.31,1.85,1.85,0,0,1,.39.24,1.78,1.78,0,0,1,.2.19,1.9,1.9,0,0,0,.54.34,10,10,0,0,1,1.79.64c.4.07.85,0,1.24.14l.05,0,.13,0,.17.1a1.16,1.16,0,0,1,.38.49l.61.07.41.18a.46.46,0,0,1,.21.11,3.12,3.12,0,0,0,.41,0,1.53,1.53,0,0,1,1.17.29l1.17.41a1.47,1.47,0,0,1,1.09.28l1.2.23.34.06.63.23a5,5,0,0,0,.89.05l.3,0,.23.05.22.09a1.16,1.16,0,0,1,.21.15h0l1.27.26a4,4,0,0,1,.83.1.9.9,0,0,1,.43.29,5.8,5.8,0,0,1,.71.07,8.61,8.61,0,0,1,1,.24c.34.1.68.21,1,.33s.59,0,.89,0a1.75,1.75,0,0,1,.87.19,23.09,23.09,0,0,0,4,.54,13.79,13.79,0,0,1,3.53.65,3.13,3.13,0,0,1,1.35-.14,2.17,2.17,0,0,1,.45.12l1.45.14c.51-.38.88,0,1.29.21h0l.9.27c.11-.29.26-.38.45-.29a.8.8,0,0,1,.2.15l.63,0h.39a6.25,6.25,0,0,1,2.68.42l1.34-.06,1.46,0,1,0h0a2.32,2.32,0,0,0,1.42.12,5.52,5.52,0,0,1,.72-.06,2,2,0,0,1,.35,0,1.52,1.52,0,0,1,.35.11,2.58,2.58,0,0,1,1.5.22,1.44,1.44,0,0,1,1.06-.13l1.45.17a.68.68,0,0,1,.76-.1l1.81.11,1.24,0h0l1.89,0h1.88a10.47,10.47,0,0,1,3.41.15l1-.13.28,0c.39,0,.79-.09,1.18-.12a8.47,8.47,0,0,1,2.53.15.86.86,0,0,1,.76-.29,1.51,1.51,0,0,1,.29.06l2.74.07,1.63-.1c.82-.42,1.65.06,2.48,0,.19-.46.59-.35.95-.34h0l.27,0,1.11-.1h.15l2.22-.13.6,0a3.85,3.85,0,0,1,1.4-.24c.32,0,.63,0,.95,0a5.66,5.66,0,0,0,1.4-.1l1.15-.15.45-.06a.61.61,0,0,1,.15-.15c.15-.1.3-.05.46.14l.94.06a1,1,0,0,1,.75-.42,2,2,0,0,1,.53,0h0c0-.08.07-.12.11-.12s.09,0,.14.1l.46-.1a2.34,2.34,0,0,1,1.39,0,1.55,1.55,0,0,1,1-.46,1.14,1.14,0,0,1,.39.07h0l1.61-.08h.19l1.36-.38a2.54,2.54,0,0,1,.59-.2,3.08,3.08,0,0,1,.45-.06,7.4,7.4,0,0,1,1.37.09c.17-.45.57-.43,1-.46l.35-.15a1.07,1.07,0,0,1,.36-.09.66.66,0,0,1,.26,0l.56-.1h0l2.55-.53,1.83-.39a1.19,1.19,0,0,1,.75-.31c.27,0,.55,0,.81-.06a2.28,2.28,0,0,1,.93-.25c.32,0,.64,0,1,0a.46.46,0,0,1,.29-.28c.2-.06.43,0,.63-.08.11-.27.37-.3.6-.36l2.11-.6.94-.27.75-.21h0a.61.61,0,0,1,.16-.26.6.6,0,0,1,.25-.13l.21,0h.31l.37-.18.28-.12a2,2,0,0,1,.9-.17.86.86,0,0,1,.1-.2.61.61,0,0,1,.14-.14h0a.58.58,0,0,1,.18-.09.77.77,0,0,1,.22,0l.37-.2L157,33a1.94,1.94,0,0,1,.92-.21l.45-.46.11,0,.38-.17a.89.89,0,0,1,.93-.2.82.82,0,0,1,.38-.63.75.75,0,0,1,.27-.08,3.87,3.87,0,0,1,1.52-.83.9.9,0,0,1,.38-.67,1.53,1.53,0,0,1,.23-.14h0l0-.06.22-.3,1.77-1.64h0l.22-1.11a.86.86,0,0,1-.53-.3C163.9,25.61,164.36,24.6,163.62,24.2Z" style="fill:#98603c"/><path d="M55,7.36a3.32,3.32,0,0,0,.91-.65,1.12,1.12,0,0,0,.24-.62c-1.89.5-3.33,1.82-4.9,2.84a24.22,24.22,0,0,0-2.29,1.67q-.45.38-.88.78a13,13,0,0,0-2.24,2.78.1.1,0,0,0,0,.14c.74.3,1.25,1.21,2.24.9.17-.28.53-.43.74-.69a.68.68,0,0,0,.14-.62L47,14.11C49.11,11,52,9.13,55,7.36Z" style="fill:#d7ba9b"/><path d="M56.11,6.07h0v0h0Z" style="fill:#d7ba9b"/><path d="M59.15,5.73a22.5,22.5,0,0,0-4.91,3.18l0,.34c.22-.06.48-.07.69-.14a.77.77,0,0,0,.19-.1c3.1-2.16,6.51-3.76,9.78-5.63.85-.49,2-.56,2.45-1.68.45-.09,1.1.26,1.21-.56a1.93,1.93,0,0,0-1.2.26q0,.15,0,.3A72.69,72.69,0,0,0,59.15,5.73Z" style="fill:#d7ba9b"/><path d="M52.73,13.37c-.45-.22-1.19.14-1.38-.48s.38-1,.77-1.42l2.16-2.23,0-.34a10.64,10.64,0,0,0-4.09,3.42l.07.38.21.11a1,1,0,0,1,.2.12.25.25,0,0,1,.08.1,4.69,4.69,0,0,0,.39.83,1.13,1.13,0,0,0,.14.18C51.56,14.36,52,14.13,52.73,13.37Z" style="fill:#c49d78"/><path d="M53.23,5.28A12.86,12.86,0,0,0,57.35,3.4,6.67,6.67,0,0,0,53.23,5.28Z" style="fill:#d7ba9b"/><path d="M52.12,4.75,52,4.64l-.18-.15-.24.39c.08,0,.19.15.24.13A1.55,1.55,0,0,0,52.12,4.75Z" style="fill:#d7ba9b"/><path d="M42.34,10.47l-.31.62c.28,0,.64.1.76-.22S42.55,10.53,42.34,10.47Z" style="fill:#d7ba9b"/><path d="M50.14,12.33a1,1,0,0,0-.28.07c-.23.11-.33.32-.26.65h0l.61-.34Z" style="fill:#d7ba9b"/><path d="M56.72,5.84a.48.48,0,0,0-.59.23L56.8,6S56.76,5.85,56.72,5.84Z" style="fill:#d7ba9b"/><path d="M56.13,6.07h0Z" style="fill:#d7ba9b"/><path d="M13.17,22.94a17.72,17.72,0,0,0-.51,3.2h.67a24.71,24.71,0,0,1,.95-5.2A5.08,5.08,0,0,0,13.17,22.94Z" style="fill:#d7ba9b"/><path d="M16.92,24.84c-.51.08-.88-.07-1-.64a.75.75,0,0,0-.56.67c0,.32.09.67.08,1a1.73,1.73,0,0,1,1.17.26C17.1,25.77,16.92,25.29,16.92,24.84Z" style="fill:#d7ba9b"/><path d="M16.05,23.63h0L16,24.2c.08.57.44.72,1,.64L17,23.25Z" style="fill:#c49d78"/><path d="M65.31,9.36s-.06,0-.15-.06l-.17,0-.08,0h0a6.11,6.11,0,0,0-1.61,1.33c-.61.67-1.33,1.2-2.24.4-.68-.6-.84.16-1.17.47-.48,2-1.63.79-2.59.54a.74.74,0,0,0-.22.14c-.43.94-.65,1.29-1,1.15a1,1,0,0,1-.24-.14,6.73,6.73,0,0,1-.68-.65,10.76,10.76,0,0,0-1-.8c-.39.37-.93.63-.91,1.28,1.2-.07,2.1.08,1.68,1.71A1.2,1.2,0,0,0,56.1,16.2c1,.13.84-.7.9-1.26a1.81,1.81,0,0,1,.79-1.63c.45,1,.16,2.12,1,3.16.18-1,.33-1.75.43-2.5.06-.42.22-.69.66-.72s.83,0,.95.57c.07.32-.14.77.39.89a3,3,0,0,0,2-2.22,1.48,1.48,0,0,1,1.41-1.19c.48,0,.49.8.64,1.27s.23,1,.33,1.51c.07.32.19.63.57.62s.51-.31.56-.64c.14-1.08.27-2.16.4-3.24a5.15,5.15,0,0,1-1-.1C65.57,10.58,65.21,10.25,65.31,9.36Z" style="fill:#b58963"/><path d="M57.66,9.48,65,5.14c.79-.47,1.66-.82,2.41-1.33a4.26,4.26,0,0,0,1.17-1.16c-1.75.42-3.16,1.55-4.69,2.39-2.15,1.18-4.49,2.1-6.26,3.9l0,.54Z" style="fill:#d7ba9b"/><path d="M68.65,2.64h0v0h0Z" style="fill:#d7ba9b"/><path d="M54.18,11.66a10.76,10.76,0,0,1,1,.8,6.73,6.73,0,0,0,.68.65,1,1,0,0,0,.24.14c.37.15.59-.21,1-1.15-1.1,0-1.54-.3-.69-1.34l.29-.35a5,5,0,0,1,1-.93h0l0-.54A11.31,11.31,0,0,0,54.18,11.66Z" style="fill:#c49d78"/><path d="M59.88,11.43c-.32,0-.71.07-1-.07s-.27-.25-.29-.58a1.11,1.11,0,0,0-.26,0l-.2.07a1,1,0,0,0-.3.24c-.21.25-.35.58-.55.84C58.25,12.23,59.4,13.43,59.88,11.43Z" style="fill:#c49d78"/><path d="M71.79,1.16c-.65,0-1,.09-1.16.65C71.17,1.95,71.45,1.75,71.79,1.16Z" style="fill:#d7ba9b"/><path d="M69.73,2.11a1.34,1.34,0,0,0-1.07.52C69,2.52,69.58,2.91,69.73,2.11Z" style="fill:#d7ba9b"/><path d="M58.63,10.78l.06-.14-.07.13h0v0h0Z" style="fill:#c49d78"/><path d="M165.06,22.22c-.45.25-.07.88-.48,1.22-.22-.24-.42-.49-.6-.73a4,4,0,0,1-.68-1.38,2.92,2.92,0,0,1-.08-.52s0-.09,0-.14a3.17,3.17,0,0,1,0-.47l0,0c-.41-.19-.61-.47-.43-.94s-.14-.59-.51-.66c-.31.2-.31.54-.36.85.89,1.49-.25,3.72,1.72,4.79.74.4.28,1.41.69,1.94h.7l.15-.26C165.74,24.77,165.68,22.36,165.06,22.22Z" style="fill:#b58963"/><path d="M95.54,8l-.94-.1A1.18,1.18,0,0,1,94,8.2a9.06,9.06,0,0,1-1.17,0l-.66.07h0c.52,1.76.62,1.83,2,.74a2,2,0,0,1,1.39-.42V8Z" style="fill:#b58963"/><path d="M104.55,2.11A5.09,5.09,0,0,0,107.31.67,4.45,4.45,0,0,0,104.55,2.11Z" style="fill:#d7ba9b"/><path d="M126.31,9.48a.77.77,0,0,0,0-.26l-1-.37-.54.44a1.2,1.2,0,0,1-2.17-.1c-.36-.54-.65-1-1.37-1a.85.85,0,0,0-.24.06,1,1,0,0,1-1.58.42h0l-.41,0-.25,0-.32,0a2.18,2.18,0,0,1-1.26-.41.8.8,0,0,0-.26.06c-.24.52-.49.77-.75.77a.47.47,0,0,1-.2,0,1.63,1.63,0,0,1-.61-.66l0,0h0l-1.74,0h-.06c-.12.22-.25.18-.38,0h0l-.59,0h0c-.49.24-.93-.74-1.45,0-.66.89-1.56.43-2.19.09a3.21,3.21,0,0,0-.5-.22c-.51-.17-1-.22-1.53-.34l-.54.2c-.13.4-.27.73-.67.19h-1.22a.56.56,0,0,1-.22,0,.76.76,0,0,1-.38-.14c-.3-.19-.56-.5-.95-.32a5,5,0,0,1-1.47.39c-.25,0-.5,0-.75.05h-.75a14.77,14.77,0,0,0-3,0c0,.4.16.86.54.84,1.47-.07,3,.72,4.41-.12.82-.49,1.41-.61,2,.22a.77.77,0,0,0,.84.28c1.8-.44,3.68.22,5.36-.11s1.82.62,2.21,1.61c.07.18,0,.42.36.54a5.24,5.24,0,0,0,.93-1.12c.44-1,.79-1.42,1.46-.16.4.74,1,.65,1.54.16.23-.2.44-.65.72-.49a5,5,0,0,0,4.27.19c.36-.12.67.2,1,.39,1.61,1,3.42,0,5.08.49.05,0,.2-.32.31-.48C127.32,10.2,126.4,10.47,126.31,9.48Z" style="fill:#b58963"/><path d="M130.58,9.65c-.28-.29-.31-.85-.06-1.67a4,4,0,0,0-.9.22,1.44,1.44,0,0,0-.89,1h0l0,.32h0a.62.62,0,0,1,.39.19,2,2,0,0,1,.33.52l.07.14a1.62,1.62,0,0,0,.21.31.73.73,0,0,0,.16.14.78.78,0,0,0,.68,0h.7l.6-.39.27-.67C131.4,10,130.86,9.95,130.58,9.65Z" style="fill:#c49d78"/><path d="M135.22,10.84l.13-1.49h0a4.78,4.78,0,0,0-1.14.55,1.49,1.49,0,0,1-2-.14l-.27.67c.13.15.25.31.37.48l.12.16a2.15,2.15,0,0,0,.52.51c.37.23.81.15,1.4-.66a.24.24,0,0,1,.16-.08C134.69,10.81,135,10.86,135.22,10.84Z" style="fill:#b58963"/><path d="M128.17,9.53H128l-1.7,0c.09,1,1,.72,1.55,1,.52-.06.65-.42.68-.87l-.37-.1Z" style="fill:#c49d78"/><path d="M125.27,8.84l1,.37a.65.65,0,0,0,.19-.19,3,3,0,0,0,.22-.73l-.4-.37C125.86,8.14,125.39,8.31,125.27,8.84Z" style="fill:#c49d78"/><path d="M128.73,9.17h0l-.56.35h0l.37.1a1.22,1.22,0,0,0,.23-.13h0Z" style="fill:#d7ba9b"/><polygon points="131.02 7.98 131.09 8.09 131.13 7.98 131.13 7.98 131.02 7.98" style="fill:#c49d78"/><path d="M145.46,10.86a2.35,2.35,0,0,0-.78.47,1.85,1.85,0,0,0-.48.75h0c.16.1.42.17.47.31.16.45,0,1.15.76,1.11.54,0,.84-.51,1-1C145.38,12.37,145.85,11.4,145.46,10.86Z" style="fill:#c49d78"/><path d="M144.15,9.89l-.58.24a4,4,0,0,0-.55.27,1.85,1.85,0,0,0-.46.39,1.64,1.64,0,0,0-.23.4,1.73,1.73,0,0,0-.08.19h0a.69.69,0,0,1,.61.73c0,.37.17.73.6.74s.67-.35.68-.81C142.39,11.31,144.86,10.68,144.15,9.89Z" style="fill:#d7ba9b"/><path d="M144.92,9.41l.12.31.22-.12c0-.08,0-.2-.1-.23S145,9.4,144.92,9.41Z" style="fill:#d7ba9b"/><path d="M78.48,8.62c-.48-.7.81-.81.57-1.68a5.08,5.08,0,0,0-.67.32,2.7,2.7,0,0,0-1.31,1.56c.95.15,1.86,1.58,2.85.08C79.44,8.79,78.82,9.11,78.48,8.62Z" style="fill:#d7ba9b"/><path d="M74.22,9.3c1,.91,1.9.85,2.65-.34l-2.65.34Z" style="fill:#d7ba9b"/><path d="M5,24.82H5a40.61,40.61,0,0,1,1.22-5,9.56,9.56,0,0,1,.74-1.56L6.64,18h0a16.73,16.73,0,0,0-2.21,4.53,17.53,17.53,0,0,0-.65,3l.69,0h0A.57.57,0,0,1,5,24.82Z" style="fill:#c49d78"/><path d="M3.82,20c-.56,1.5-1.42,2.85-1.95,4.35L1.64,25c-.08.22-.15.44-.2.67s-.07.3-.09.45h.79C2.76,24.12,4,22.25,3.82,20Z" style="fill:#d7ba9b"/><path d="M7.46,17.12a1.68,1.68,0,0,0-.82.87h0l.29.29a2,2,0,0,0,.65-.49,1.34,1.34,0,0,0,.23-.44A1.41,1.41,0,0,0,7.88,17h0c.65-.52,1.4-1,1.56-1.88a.64.64,0,0,0,.64-.34.75.75,0,0,0-.64.32l-1.5.73L7.88,17A1.26,1.26,0,0,0,7.46,17.12Z" style="fill:#d7ba9b"/><path d="M159.57,18.85q0,1.35,0,2.7c.51-.89,2.28-.24,2.05-1.74a2,2,0,0,1-.51-.24A2.76,2.76,0,0,0,159.57,18.85Z" style="fill:#b58963"/><path d="M157.64,17.41a1.58,1.58,0,0,0-.64-.07c.06.71.37.81.91.38A.54.54,0,0,0,157.64,17.41Z" style="fill:#b58963"/><path d="M96.45,7.45c0-.1-.15-.3-.24-.3-.54,0-.58.44-.67.83h0C95.9,7.88,96.44,8.07,96.45,7.45Z" style="fill:#f4dec9"/><path d="M98.72,5.46h0l.13-.15-.15.13a1.59,1.59,0,0,0-.74.09,1,1,0,0,0-.51.54h0a1.28,1.28,0,0,0-.33.08.28.28,0,0,0-.15.31.14.14,0,0,0,.1.1c.34,0,.35-.24.38-.48a1.91,1.91,0,0,0,.57,0A.94.94,0,0,0,98.72,5.46Z" style="fill:#f4dec9"/><path d="M95.58,8.61c0,.2.06.46.28.45.42,0,.31-.43.4-.7l-.68.25Z" style="fill:#b58963"/><path d="M85.14,8c-.26-.64.64-.65.92-1.05s1-.64.91-1.8a3.6,3.6,0,0,1-1.15,1l-.5.29L85,6.61a2.28,2.28,0,0,0-1.31,1.71h0c.95.3,1.89,1.34,2.84,0C86.09,8.16,85.35,8.55,85.14,8Z" style="fill:#d7ba9b"/><path d="M171,12.07a.51.51,0,0,0-.26.27h0a.57.57,0,0,0-.63.32,13.45,13.45,0,0,0-2.33.88,13.59,13.59,0,0,0-1.58.91q-.57.38-1.09.81a17.84,17.84,0,0,0-2.88,3,.81.81,0,0,1,0,.31c.36.07.7.17.51.66s0,.75.43.94a2.81,2.81,0,0,1,.6-1.74,13.14,13.14,0,0,1,4.12-3.75c.87-.51,1.86-.91,2.22-2,.29,0,.52,0,.63-.31l.66,0,0-.43A2.62,2.62,0,0,0,171,12.07Z" style="fill:#c49d78"/><path d="M69.53,9.82c-.59-1.34-1-.46-1.52,0,0,.09,0,.19,0,.28h0c.43,0,.72.34,1.07.49.81.33,1.72.55,2.07-.68C70.62,9.65,69.81,10.47,69.53,9.82Z" style="fill:#c49d78"/><path d="M68,9.79l-.29.37h0l.33-.09h0C68,10,68,9.88,68,9.79Z" style="fill:#b58963"/><path d="M5,24.82H5a.57.57,0,0,0-.5.7C4.88,25.46,5.07,25.25,5,24.82Z" style="fill:#d7ba9b"/><path d="M115.26,8.3l0,0,1.56-.06h0a.8.8,0,0,1,.26-.06c.22-.86,1.06-.84,1.65-1.18l7.62-3.31c.14-.06.29-.1.43-.15a.57.57,0,0,0,.43-.58h0l.68-.16s0-.11-.08-.12a.52.52,0,0,0-.63.24,4.79,4.79,0,0,0-1.36.24c-2.51,1.26-5.23,2-7.8,3l-.79.33c-.21.09-.42.19-.62.31l-.25.15A2.75,2.75,0,0,0,115.26,8.3Z" style="fill:#f4dec9"/><path d="M117.11,8.19a2.18,2.18,0,0,0,1.26.41l.33-.66h0a.75.75,0,0,1,.65-.64h0L118.76,7C118.17,7.35,117.33,7.33,117.11,8.19Z" style="fill:#c49d78"/><path d="M105.61,8.21c.4.54.54.21.67-.19l-.19,0A.5.5,0,0,0,105.61,8.21Z" style="fill:#d7ba9b"/><path d="M121.18,8.21c.72,0,1,.44,1.37,1a1.2,1.2,0,0,0,2.17.1c-.89-.14-1.34-.22-1.46-.42a.29.29,0,0,1,0-.18,3.5,3.5,0,0,1,.53-1h0q0-.34,0-.68L123.4,7l-.63.14A2.51,2.51,0,0,0,121.18,8.21Z" style="fill:#c49d78"/><path d="M120.93,8.26h-.42a1.75,1.75,0,0,0-1.16.41h0A1,1,0,0,0,120.93,8.26Z" style="fill:#d7ba9b"/><path d="M118.37,8.6l.32,0c0-.23,0-.46,0-.69h0Z" style="fill:#d7ba9b"/><path d="M156,13.23h0l-.28-.28-.63.27-.31.15a2.35,2.35,0,0,0-1.18,1.2h.81Z" style="fill:#c49d78"/><path d="M154.38,15.16a.85.85,0,0,0,.55,1.42c.66.15.7-.58.82-1.07l-1.37-.36Z" style="fill:#c49d78"/><path d="M152.12,14.55a.53.53,0,0,0-.11.33.3.3,0,0,0,.15.23.66.66,0,0,0,.22.08.87.87,0,0,0,1.15-.64h-1.41Z" style="fill:#d7ba9b"/><path d="M113.45,8.34h-.38C113.21,8.52,113.33,8.56,113.45,8.34Z" style="fill:#d7ba9b"/><path d="M135.37,11.41c0,.26.06.52.38.56s.53-.19.56-.54l-.94,0Z" style="fill:#b58963"/><path d="M31.87,23a29.09,29.09,0,0,1,4.49-6.3c.25-.24.46-.49.17-.77s-.46,0-.66.18C33.32,18.3,32,21.36,30,23.93c-.48.63-.24,1.39-.05,2.1a.2.2,0,0,1,0,.11h1.62a.15.15,0,0,0,0-.09C30.71,24.93,31.31,23.95,31.87,23Z" style="fill:#f4dec9"/><path d="M33.25,22.22c-.68,1-1.63,2-1,3.27a2.62,2.62,0,0,1,.25.65h.8a3.41,3.41,0,0,0,.08-.43l.19-1.15C33,23.84,34.7,22.9,33.25,22.22Z" style="fill:#f4dec9"/><path d="M36.69,19.23l-.06.14.08-.12Z" style="fill:#98603c"/><path d="M36.69,19.23h0l0,0,.06-.14Z" style="fill:#98603c"/><path d="M48,15.19c-1,.31-1.49-.6-2.24-.9.18.7-.39,1.75.67,2l.27,0a1.24,1.24,0,0,0,.51-.08A1.3,1.3,0,0,0,48,15.19Z" style="fill:#b58963"/><path d="M131.32,10.82h-.7c.07.22.12.51.42.42a.17.17,0,0,0,.08-.06,3.74,3.74,0,0,0,.2-.37Z" style="fill:#b58963"/><path d="M53.5,13.57l-.22-.34h0C53.38,13.34,53.16,13.64,53.5,13.57Z" style="fill:#b58963"/><path d="M115.29,8.31a1.63,1.63,0,0,0,.61.66.47.47,0,0,0,.2,0c.26,0,.51-.24.75-.77h0Z" style="fill:#d7ba9b"/></svg>