<svg xmlns="http://www.w3.org/2000/svg" viewBox="0 0 137.04 87.04"><title>資產 36</title><rect x="60.33" y="10.33" width="68" height="68" transform="matrix(-0.95, -0.3, 0.3, -0.95, 170.78, 115.18)" style="fill:#ff6"/><path d="M91.55,48.51c.77-2.69,1.51-5.39,2.32-8.06.23-.78.06-1.12-.73-1.3-1.16-.27-2.3-.63-3.44-1-.41-.12-1-.1-1.07-.68s.39-.83.83-1.08l8.79-5c1.71-1,3.45-1.93,5.14-2.94.93-.56,1.47-.35,2,.58,2.54,4.75,5.12,9.48,7.68,14.21.19.35.48.69.16,1.13s-.81.25-1.23.14a31,31,0,0,1-3.08-.9c-1.09-.43-1.54-.19-1.86,1-1.41,5.2-2.93,10.37-4.41,15.55-.43,1.5-.49,1.53-2,1.11-3.48-1-7-2-10.45-3-1-.28-1.29-.71-1-1.75C90.06,53.91,90.79,51.2,91.55,48.51Z"/><path d="M93.24,67.7,75.31,62.58c-1.62-.46-1.84-.87-1.38-2.49.65-2.3,1.33-4.59,2-6.89.27-1,.82-1.55,1.86-1.3S79,53,78.7,54c-.48,1.75-1,3.5-1.5,5.22-.25.78,0,1.07.73,1.29Q94,65,110.1,69.65c.85.25,1.16,0,1.36-.79.44-1.75,1-3.48,1.47-5.23.26-.93.76-1.49,1.78-1.19s1.16,1,.89,2c-.72,2.45-1.4,4.91-2.11,7.36-.38,1.29-.75,1.49-2.09,1.11Z"/><polygon points="0.33 68.33 70.33 72.33 71.33 4.33 3.72 1 0.33 68.33" style="fill:#666"/><rect x="1.33" y="1.33" width="68" height="68" transform="translate(69.22 72.05) rotate(-177.71)" style="fill:#ff6"/><path d="M41.3,27.35c-.12,2.8-.21,5.59-.36,8.39,0,.77.13,1.12,1,1.11,1.27,0,2.55.08,3.82.14.41,0,.86,0,1,.51s-.14.76-.46,1.06q-5.93,5.58-11.85,11.17a1.15,1.15,0,0,1-1.95-.08c-3.62-4.05-7.26-8.07-10.89-12.11-.27-.3-.6-.6-.37-1.08S21.88,36,22.3,36c1.19.05,2.39,0,3.57.17,1,.1,1.26-.18,1.29-1.17.17-5.43.42-10.85.65-16.28.07-1.65.07-1.65,1.71-1.58,3.62.15,7.23.33,10.85.43,1,0,1.36.35,1.3,1.39C41.5,21.76,41.42,24.55,41.3,27.35Z"/><path d="M33.07,58.46l-18.63-.77c-1.68-.07-1.88-.3-1.81-2,.1-2.43.22-4.85.29-7.28,0-1,.41-1.7,1.51-1.65s1.31.8,1.26,1.74c-.09,1.68-.08,3.38-.24,5.05-.1,1.1.17,1.47,1.35,1.51,9.21.33,18.42.73,27.63,1.11,1.85.08,3.7.12,5.55.24.75,0,1-.17,1-.93,0-1.77.13-3.54.21-5.3,0-1,.31-1.83,1.51-1.84,1,0,1.45.69,1.4,2q-.14,3.58-.3,7.15c-.06,1.44-.45,1.81-1.89,1.75Z"/></svg>