<svg xmlns="http://www.w3.org/2000/svg" viewBox="0 0 137.04 87.04"><title>資產 57</title><rect x="8.71" y="10.33" width="68" height="68" transform="translate(-11.43 15.04) rotate(-17.65)" style="fill:#ff6"/><line x1="49.38" y1="65.32" x2="37.32" y2="28.05" style="fill:none;stroke:#333;stroke-miterlimit:10;stroke-width:3.5076549649238724px"/><polygon points="53.55 55.23 49 64.15 40.09 59.59 41.94 65.31 50.85 69.86 55.41 60.95 53.55 55.23" style="fill:#333"/><polygon points="46.61 33.78 37.7 29.23 33.15 38.15 31.3 32.43 35.85 23.52 44.76 28.07 46.61 33.78" style="fill:#333"/><line x1="24.72" y1="52.72" x2="61.99" y2="40.66" style="fill:none;stroke:#333;stroke-miterlimit:10;stroke-width:3.5076549649238724px"/><polygon points="34.8 56.9 25.89 52.34 30.45 43.43 24.73 45.28 20.18 54.19 29.09 58.74 34.8 56.9" style="fill:#333"/><polygon points="56.26 49.95 60.81 41.04 51.9 36.48 57.61 34.63 66.52 39.19 61.97 48.1 56.26 49.95" style="fill:#333"/><polygon points="136.71 68.33 66.71 72.33 65.71 4.33 133.32 1 136.71 68.33" style="fill:#666"/><rect x="67.71" y="1.33" width="68" height="68" transform="translate(-1.33 4.09) rotate(-2.29)" style="fill:#ff6"/><line x1="87.57" y1="52.47" x2="119.85" y2="20.19" style="fill:none;stroke:#333;stroke-miterlimit:10;stroke-width:4.531250000000018px"/><polygon points="101.63 51.34 88.69 51.35 88.7 38.41 83.21 43.9 83.21 56.83 96.14 56.83 101.63 51.34" style="fill:#333"/><polygon points="118.72 34.25 118.72 21.32 105.79 21.32 111.28 15.83 124.21 15.83 124.21 28.76 118.72 34.25" style="fill:#333"/></svg>