<svg xmlns="http://www.w3.org/2000/svg" viewBox="0 0 75 75"><title>資產 63</title><rect width="75" height="75" rx="12" ry="12" style="fill:#f4f0eb;opacity:0.9"/><path d="M25.08,5.51c-.08-4,37.88-2.45,42.85,0C72,7.51,71,12,69,12c-3,0-2.89-3-5-3.74C59.41,6.58,46.22,7.14,41.1,7.2,37.08,7.25,25.13,8.07,25.08,5.51Z" style="fill:#fff"/><path d="M69.41,49c4.05,0,2.59,17.71,0,20.73-2,2.32-13.41,4-13.41.72,0-3,9.11-2.51,9.89-3.53,1.7-2.22,1.85-7.7,1.79-10.17C67.64,54.8,66.8,49,69.41,49Z" style="fill:#fff"/><path d="M20,6c0,1.38-1.46,2-4.5,2S10,6.88,10,5.5,14,3,17,3,20,4.62,20,6Z" style="fill:#fff"/><path d="M42.78,32.5a2.22,2.22,0,0,1,0,.61c-.22.74.18,1.18.67,1.66,2,2,4,4.06,6.06,6a3.51,3.51,0,0,1,.14,5.27c-1,1.07-2,2.09-3.08,3.12l-13.9,13.9a2.39,2.39,0,0,1-2.31.72,13.62,13.62,0,0,1-5-2.22A43.92,43.92,0,0,1,11.75,47.43a9.47,9.47,0,0,1-1.46-4A2.27,2.27,0,0,1,11,41.49q8.4-8.37,16.77-16.76a3.72,3.72,0,0,1,5.57-.1,7.51,7.51,0,0,0,.71.7c1.41,1,1.7,2.47,1.81,4a12,12,0,0,1-.55,4.6,1.33,1.33,0,0,1-.4.56,3.38,3.38,0,0,0,2.56,6,3.39,3.39,0,0,0,1.78-5.94.83.83,0,0,1-.28-.54A22.9,22.9,0,0,0,37,24.15a14.71,14.71,0,0,0-3-4.62,5.77,5.77,0,0,0-9.05,1.2,9.42,9.42,0,0,0-1.43,4.55,2.07,2.07,0,0,1-1.15,2,1.85,1.85,0,0,1-2.66-1.59,10.93,10.93,0,0,1,.7-4.24A10.42,10.42,0,0,1,25.92,15a9.17,9.17,0,0,1,10.34,1.48A18.29,18.29,0,0,1,41,23.94,27.68,27.68,0,0,1,42.78,32.5Z"/><path d="M45,31.38a27.5,27.5,0,0,1,5.78,1.86,18.33,18.33,0,0,1,6.6,4.68,11.3,11.3,0,0,1,2.77,7.49q0,5.86,0,11.71a10.48,10.48,0,0,1-.33,2.52c-.62,2.39-2.46,3.13-4.61,1.89a8.4,8.4,0,0,1-4.09-9.85A16.52,16.52,0,0,1,53,47.43c.62-1,1.27-2,1.82-3,.81-1.53.65-2.41-.57-3.63L45.4,31.91a5.43,5.43,0,0,0-.47-.38Z"/></svg>