<svg xmlns="http://www.w3.org/2000/svg" xmlns:xlink="http://www.w3.org/1999/xlink" viewBox="0 0 76.07 76"><defs><linearGradient id="a" x1="0.5" y1="38" x2="61.41" y2="38" gradientUnits="userSpaceOnUse"><stop offset="0" stop-color="red"/><stop offset="0.14" stop-color="#ff0200"/><stop offset="0.2" stop-color="#ff0900"/><stop offset="0.23" stop-color="#ff1400"/><stop offset="0.26" stop-color="#ff2500"/><stop offset="0.29" stop-color="#ff3b00"/><stop offset="0.31" stop-color="#ff5700"/><stop offset="0.33" stop-color="#f70"/><stop offset="0.35" stop-color="#ff9d00"/><stop offset="0.37" stop-color="#ffc800"/><stop offset="0.38" stop-color="#fff600"/><stop offset="0.39" stop-color="#ff0"/><stop offset="0.51" stop-color="#fdfe02"/><stop offset="0.55" stop-color="#f7f909"/><stop offset="0.58" stop-color="#ecf014"/><stop offset="0.61" stop-color="#dde425"/><stop offset="0.63" stop-color="#c8d43b"/><stop offset="0.65" stop-color="#afc157"/><stop offset="0.66" stop-color="#92a977"/><stop offset="0.68" stop-color="#6f8e9d"/><stop offset="0.69" stop-color="#4970c6"/><stop offset="0.7" stop-color="#2957e9"/></linearGradient><linearGradient id="b" x1="52.61" y1="49.77" x2="75.57" y2="49.77" xlink:href="#a"/></defs><title>資產 66</title><path d="M49.39,28.33a3.35,3.35,0,0,1,0,.91c-.33,1.12.28,1.78,1,2.49,3.06,3,6,6.11,9.12,9.07,2.86,2.73,2.13,5.85.22,7.93-1.49,1.62-3.08,3.14-4.64,4.69L34.18,74.34a3.59,3.59,0,0,1-3.47,1.08,20.5,20.5,0,0,1-7.5-3.33A66.06,66.06,0,0,1,2.71,50.79,14.25,14.25,0,0,1,.52,44.71a3.41,3.41,0,0,1,1-2.87Q14.18,29.25,26.78,16.64c2.57-2.57,5.73-2.61,8.38-.15a11.3,11.3,0,0,0,1.07,1c2.12,1.49,2.55,3.72,2.72,6.07a18.08,18.08,0,0,1-.83,6.92,2,2,0,0,1-.6.85,5.09,5.09,0,0,0,3.85,9A5.11,5.11,0,0,0,44,31.45a1.25,1.25,0,0,1-.42-.81,34.45,34.45,0,0,0-2.9-14.87,22.13,22.13,0,0,0-4.53-6.95c-4.27-4.38-10.91-2.68-13.61,1.8a14.16,14.16,0,0,0-2.15,6.85,3.11,3.11,0,0,1-1.73,3,2.79,2.79,0,0,1-4-2.39,16.43,16.43,0,0,1,1.05-6.38c1.51-4.32,4-7.85,8.29-9.78C29.31-.44,34.94,0,39.58,4.16a27.51,27.51,0,0,1,7.2,11.29A41.64,41.64,0,0,1,49.39,28.33Z" style="stroke:#666;stroke-miterlimit:10;fill:url(#a)"/><path d="M52.76,26.65a41.37,41.37,0,0,1,8.7,2.8,27.58,27.58,0,0,1,9.92,7,17,17,0,0,1,4.17,11.26q0,8.81,0,17.62A15.77,15.77,0,0,1,75,69.16c-.93,3.59-3.69,4.71-6.93,2.85a12.64,12.64,0,0,1-6.16-14.81,24.85,24.85,0,0,1,2.77-6.41c.93-1.52,1.91-3,2.74-4.58,1.22-2.31,1-3.62-.85-5.46L53.32,27.44a8.16,8.16,0,0,0-.71-.57Z" style="stroke:#666;stroke-miterlimit:10;fill:url(#b)"/></svg>