<svg xmlns="http://www.w3.org/2000/svg" viewBox="0 0 251.46 139.46"><title>資產 35</title><path d="M146.29,33.75C142.6,44.07,136.65,56.17,126.81,62c-7.19,4.23-17.59,3.77-25.42,3.77-8.89,0-9.93-8.55-14.21-13.92C82.54,46,75.11,43,78.05,33.75c2-6.32,11.13-10.73,16-15.8C103.26,8.46,110.89.5,123.38.5,132,.5,132.49,9,136.8,14,142,20.06,149.86,23.77,146.29,33.75Z" style="fill:red;stroke:#888;stroke-miterlimit:10"/><path d="M32.46,82.21c10.95-3.06,24.09-5.3,30.68-.28C68,85.61,67.78,94.87,68,101.57c.26,7.54-8.8,13.29-14.29,19.85-5.87,7-8.57,14.61-18.1,17.18-6.4,1.73-11.22-3.2-16.46-4.42C9.41,131.9,1.3,130.06.53,120.12c-.54-6.94,7.67-12,12.36-18.36C18.69,93.88,22,85.13,32.46,82.21Z" style="fill:#fcee21;stroke:#888;stroke-miterlimit:10"/><path d="M215.75,21c11.72-3.3,25.62-5.71,31.87-.3,4.57,4,3.29,13.93,2.74,21.14-.61,8.11-10.69,14.3-17.14,21.34-6.9,7.53-10.6,15.69-20.76,18.45-6.84,1.86-11.25-3.44-16.54-4.75-9.85-2.44-18.05-4.42-17.7-15.1.25-7.46,9.34-12.91,14.95-19.75C200.1,33.52,204.59,24.09,215.75,21Z" style="fill:blue;stroke:#888;stroke-miterlimit:10"/><path d="M120.87,13.2c3.24.64,10.2,10.43,12.28,6.9,2.39-4-5-10-10.52-12.18-3-1.2-17,2.8-14.55,6.14C110.93,18,116,12.24,120.87,13.2Z" style="fill:#fff"/><path d="M232.74,28.11c6.46-.19,10.74,5.8,12.45,2.38,3.06-6.12-6-6.85-11.61-6.62-2.84.12-13.88,2.17-11.45,4.87C225,31.92,228.45,28.24,232.74,28.11Z" style="fill:#fff"/><path d="M49.74,89.11c6.46-.19,10.74,5.8,12.45,2.38,3.06-6.12-6-6.85-11.61-6.62C47.74,85,36.69,87,39.12,89.74,42,92.92,45.45,89.24,49.74,89.11Z" style="fill:#fff"/></svg>