<svg xmlns="http://www.w3.org/2000/svg" viewBox="0 0 42.98 336.37"><title>資產 1</title><path d="M0,334.29c0-.86.09-1.71.14-2.57q9-142.14,18-284.28c0-.5.1-1,.15-1.48l1.24-.71,4.33,2.15c0,.27,0,.54-.06.81L5.8,332.47c0,.18,0,.36,0,.54-.16,1.19.86,1.76,2.95,1.87,2.79.14,5.58.35,8.37.52l0,.5-16.22-1Z" style="fill:#2c4080"/><path d="M43,46.45c0,.81,0,1.63-.09,2.44Q33.83,192,24.78,335c0,.45-.12.9-.18,1.34h-.75L19.07,336c0-.41,0-.82,0-1.22q9-142.94,18.09-285.89c0-.77.16-1.53.23-2.29a3.41,3.41,0,0,0,3.6.09A6.83,6.83,0,0,1,43,46.45Z" style="fill:#2c4080"/><path d="M43,46.46c-.68.17-1.62.12-2,.55-1.28,1.43-2.4,1-3.6,0L35.4,46c-1,1-2,2-3.11,2.92s-2.26.77-3.19-.52c-2.33-3.26-3.11-3.18-5,.38-.07.13-.24.2-.36.29l-4.24-3.58-1.28,1.32c.35-1.4.64-2.83,1.07-4.21.75-2.44,1.57-4.86,2.39-7.27Q23.94,28.63,26.22,22c.41-1.19.91-2.34,1.37-3.51a6.17,6.17,0,0,0,5.88-1.7L36.19,16c2.2,4.23,2.33,9,3.25,13.5.57,2.81,1.26,5.59,1.84,8.4S42.41,43.59,43,46.46Z" style="fill:#b99d72"/><path d="M33.47,16.75a6.17,6.17,0,0,1-5.88,1.7c.74-2.41,1.52-4.82,2.22-7.25.95-3.27,1.84-6.56,2.77-9.84A14.41,14.41,0,0,1,33.12,0C35,1,34.18,2.51,34.26,3.78c-1.07,2.46-1.8,4.92-.56,7.59a2,2,0,0,1-.27,1.8C32.1,14.46,32.79,15.57,33.47,16.75Z" style="fill:#282626"/><path d="M33.47,16.75c-.67-1.18-1.37-2.29,0-3.57a2,2,0,0,0,.27-1.8c-1.23-2.67-.5-5.13.56-7.59a37.93,37.93,0,0,1,1.45,5.28c.28,2.14.16,4.33.23,6.5,0,.14.16.27.25.4Z" style="fill:#2c4080"/><path d="M23.85,47.39a1.24,1.24,0,0,0,.35-.16c1.79-2,2.56-2,5-.08a2.91,2.91,0,0,0,3.2.38c1.07-.48,2-1,3-1.57,0,.41,0,.81,0,1.22q-9,142.69-18.06,285.38c-.06.95-.16,1.89-.25,2.83-2.79-.18-5.58-.38-8.37-.52-2.09-.11-3.1-.68-2.95-1.87,0-.18,0-.36,0-.54l18-284.26C23.8,47.93,23.83,47.66,23.85,47.39Z" style="fill:#1b4d90"/><path d="M17.08,335.4c.08-.94.19-1.89.25-2.83q9-142.69,18.06-285.38c0-.41,0-.81,0-1.22l2,.65c-.08.76-.19,1.53-.23,2.29Q28.1,191.86,19.06,334.81c0,.4,0,.81,0,1.22l-2-.13Z" style="fill:#8394c1"/></svg>