<svg xmlns="http://www.w3.org/2000/svg" viewBox="0 0 38.88 496.17"><title>資產 21</title><path d="M35.6,95.1a.64.64,0,0,1-.54.51c-6.1-.24-12.22-.94-18.28-.6C6.54,95.6,3.19,92.07,8.21,83c3.82-6.89,1-12.31-.15-18.4q0-.49.05-1c-.42-5.42.36-11.28-1.47-16.17C1.6,34,1.33,21.08,10.43,9.78c3.21-4,10.77-8,14.83-6.79S33,11.44,34.33,16.68c1.44,5.58.27,11.94-.28,17.91C33.39,41.82,31.57,49,31.4,56.2s1,14.5,1.75,21.73C33.77,83.67,34.77,89.38,35.6,95.1Z" style="fill:#876e48"/><path d="M33,183.35c.17,15.29.47,30.58.47,45.87,0,36.19.38,72.4-.47,108.57-.41,17.12-3.9,34.15-4.92,51.28-1.3,21.87-1.59,43.8-2.14,65.71-.32,12.57-.22,25.15-.56,37.72,0,1.25-1.82,2.45-2.8,3.68l-4-3.52c1.31-1.25,3.73-2.47,3.76-3.76.57-21.31.84-42.62,1.18-63.93l2.09-57.67.74-4.71L26.6,359c.81-16.76,1.95-33.52,2.3-50.29.2-9.34-.92-18.7-1.44-28.06.4-14.44.9-28.87,1.16-43.32.32-17.67.44-35.34.65-53Z" style="fill:#c6c5d0"/><path d="M10.08,281.1l.28-2q-.19-12.69-.38-25.37.05-2.32.1-4.65-.17-6.49-.34-13L10,234q-.17-7.7-.34-15.39-.25-52-.46-104c0-5.25.51-10.5.78-15.75l7,.86c-.32,14.24-.73,28.49-.94,42.73-.5,34.36-.85,68.72-1.37,103.08-.19,12.75-.69,25.5-1,38.26Z" style="fill:#a5a7ad"/><path d="M35.6,95.1c-.83-5.72-1.83-11.43-2.46-17.17-.79-7.23-1.92-14.5-1.75-21.73s2-14.39,2.65-21.62c.55-6,1.72-12.33.28-17.91C33,11.44,29.38,4.19,25.26,3S13.64,5.79,10.43,9.78C1.33,21.08,1.6,34,6.64,47.48,8.47,52.37,7.7,58.23,8.11,63.64l-1.33-.87c-4-15.46-10.28-30.85-4.35-47.06C5.92,6.2,11.84-1.74,23.63.33c11.52,2,14.32,12.09,14.8,21.35a142.26,142.26,0,0,1-2.68,33.11c-2,10.71-2.21,20.51,2.89,30.51C39.75,87.48,36.72,91.78,35.6,95.1Z" style="fill:#95856f"/><path d="M33,183.35l-3.77.93-1.34-.55q.3-42.23.6-84.47l4.48-1c.27,13.2.77,26.41.74,39.61,0,11.67-.66,23.34-1,35q.35,2.87.69,5.74Z" style="fill:#aeb0ba"/><path d="M10.08,281.1l3.52,2.71c.28,2.08.71,4.15.81,6.23q1.82,39,3.55,78l-1,2.07-2.76-1.36c-1.66-18.36-3.75-36.69-4.81-55.08C8.77,302.84,9.8,291.95,10.08,281.1Z" style="fill:#aeb0ba"/><path d="M23.59,425c-.34,21.31-.61,42.63-1.18,63.93,0,1.29-2.45,2.51-3.76,3.76h0q-.19-8.78-.39-17.56,0-3.11,0-6.21L20,457.51l-.6-3.2.5-29.59Z" style="fill:#828593"/><path d="M19.93,424.72q-.25,14.79-.5,29.59l.61,3.2-1.76,11.37c-.69-3.6-1.86-7.19-2-10.81-1.05-29.06-1.91-58.13-2.79-87.19a6.8,6.8,0,0,1,.71-2.16L17,370.07c.49,10.41.92,20.82,1.48,31.23C18.85,409.12,19.42,416.92,19.93,424.72Z" style="fill:#c6c5d0"/><path d="M33,98.24l-4.48,1-11.58.49-7-.86C.67,94.81,3.19,87.9,5.68,81l1.14-2.83.46-12.44.78-1.1c1.12,6.09,4,11.51.15,18.4-5,9-1.67,12.57,8.57,12,6.06-.34,12.19.36,18.28.6Z" style="fill:#95856f"/><path d="M10,253.73q.19,12.68.38,25.37Q10.16,266.42,10,253.73Z" style="fill:#aeb0ba"/><path d="M18.26,475.09l.39,17.56Z" style="fill:#c6c5d0"/><path d="M9.65,218.63q.17,7.7.34,15.39Q9.82,226.33,9.65,218.63Z" style="fill:#aeb0ba"/><path d="M9.73,236.11q.17,6.48.34,13Q9.9,242.6,9.73,236.11Z" style="fill:#aeb0ba"/><path d="M33.42,178.6q-.35-2.87-.69-5.74Q33.08,175.73,33.42,178.6Z" style="fill:#c6c5d0"/><path d="M6.82,78.18,5.68,81Z" style="fill:#a5a7ad"/><path d="M8.06,64.63l-.78,1.1-.49-3,1.33.87Q8.06,64.14,8.06,64.63Z" style="fill:#a5a7ad"/><path d="M27.93,183.73l1.34.55c-.2,17.67-.32,35.35-.65,53-.26,14.44-.77,28.88-1.16,43.32-2.14,6.09-5.69,12.08-6.15,18.3-1.1,14.94-.75,30-1,45-1-11.58-2.84-23.17-2.83-34.75,0-11.79,2.06-23.56,2.76-35.36.63-10.67.48-21.38,1-32.05.81-17.23,1.76-34.46,3-51.66C24.39,187.88,26.64,185.84,27.93,183.73Z" style="fill:#9796a9"/><path d="M20.33,343.91c.24-15-.11-30.06,1-45,.46-6.22,4-12.21,6.15-18.3C28,290,29.1,299.33,28.9,308.66c-.35,16.77-1.49,33.53-2.3,50.29a34,34,0,0,1-2.78-5.35c-.33-1,.35-2.36.57-3.56l-3.1.53Z" style="fill:#a5a7ad"/><path d="M21.3,350.57l3.1-.53c-.22,1.2-.9,2.55-.57,3.56A34,34,0,0,0,26.6,359q-.09,1.81-.18,3.62l-.74,4.71L23.59,425l-3.67-.24c-.5-7.81-1.08-15.61-1.49-23.42-.55-10.41-1-20.82-1.48-31.23L18,368l3.18-4.78-.82-4.36Z" style="fill:#9796a9"/><path d="M25.69,367.28l.74-4.71Z" style="fill:#a5a7ad"/><path d="M21.3,350.57l-1,8.3.82,4.36L18,368q-1.76-39-3.55-78c-.1-2.09-.53-4.16-.81-6.23.36-12.75.85-25.5,1-38.26.52-34.36.87-68.72,1.37-103.08.21-14.25.62-28.49.94-42.73l11.58-.49q-.3,42.23-.6,84.47c-1.28,2.11-3.53,4.16-3.69,6.35-1.24,17.2-2.19,34.43-3,51.66-.5,10.68-.35,21.39-1,32.05-.7,11.8-2.75,23.58-2.76,35.36,0,11.58,1.81,23.17,2.83,34.75Z" style="fill:#828593"/><path d="M20,457.51l-.61-3.2Z" style="fill:#9796a9"/><path d="M21.13,363.22l-.82-4.36Z" style="fill:#a5a7ad"/></svg>