<svg xmlns="http://www.w3.org/2000/svg" viewBox="0 0 77.25 81.13"><title>資產 6</title><polygon points="77.25 22.75 33.17 0 0 41.94 22.63 81.14 69.43 75.35 60.19 48.34 77.25 22.75" style="fill:#f4f0eb;opacity:0.9"/><path d="M30.45,9C28.23,9,19.06,21,19.61,22.15s4.45-1.57,5-2.15,4.64-5,6-7C31.36,11.93,32.67,9,30.45,9Z" style="fill:#fff"/><path d="M35.62,4c1-1,35,17,36,20s-11,21-13,21-2-4,0-6,8-10,7-13-24-13-27-16S34.62,5,35.62,4Z" style="fill:#fff"/><path d="M59.62,59c2.17-.54,7.47,9.7,5,13-3,4-21.24,5.24-19,3,4-4,14-3,15-6S55.62,60,59.62,59Z" style="fill:#fff"/></svg>