<svg xmlns="http://www.w3.org/2000/svg" viewBox="0 0 90 56"><title>資產 5</title><rect width="90" height="56" style="fill:#f4f0eb;opacity:0.9"/><path d="M26,5c-.08-4,57.08-3.92,61,0,1,1,1,10-2,10s-1.89-6.23-4-7c-4.59-1.68-18.78-.86-23.9-.8C53.08,7.25,26.05,7.57,26,5Z" style="fill:#fff"/><path d="M84.41,30c4.05,0,2.59,17.71,0,20.73-2,2.32-13.41,4-13.41.72,0-3,9.11-2.51,9.89-3.53,1.7-2.22,1.85-7.7,1.79-10.17C82.64,35.8,81.8,30,84.41,30Z" style="fill:#fff"/><path d="M17,6c0,1.38-1.46,2-4.5,2S7,6.88,7,5.5,11,3,14,3,17,4.62,17,6Z" style="fill:#fff"/></svg>