<svg xmlns="http://www.w3.org/2000/svg" viewBox="0 0 90 49"><title>資產 8</title><rect width="90" height="49" rx="10.63" ry="10.63" style="fill:#f4f0eb;opacity:0.9"/><path d="M27,5c-.08-4,53-1.94,57.93.51C89,7.51,88,12,86,12c-3,0-2.89-3-5-3.74C76.41,6.58,63.22,7.14,58.1,7.2,54.08,7.25,27.05,7.57,27,5Z" style="fill:#fff"/><path d="M86.41,23c4.05,0,2.59,17.71,0,20.73-2,2.32-13.41,4-13.41.72,0-3,9.11-2.51,9.89-3.53,1.7-2.22,1.85-7.7,1.79-10.17C84.64,28.8,83.8,23,86.41,23Z" style="fill:#fff"/><path d="M20,6c0,1.38-1.46,2-4.5,2S10,6.88,10,5.5,14,3,17,3,20,4.62,20,6Z" style="fill:#fff"/></svg>