<svg xmlns="http://www.w3.org/2000/svg" viewBox="0 0 75 75"><title>資產 9</title><rect width="75" height="75" rx="12" ry="12" style="fill:#f4f0eb;opacity:0.9"/><path d="M25.08,5.51c-.08-4,37.88-2.45,42.85,0C72,7.51,71,12,69,12c-3,0-2.89-3-5-3.74C59.41,6.58,46.22,7.14,41.1,7.2,37.08,7.25,25.13,8.07,25.08,5.51Z" style="fill:#fff"/><path d="M69.41,49c4.05,0,2.59,17.71,0,20.73-2,2.32-13.41,4-13.41.72,0-3,9.11-2.51,9.89-3.53,1.7-2.22,1.85-7.7,1.79-10.17C67.64,54.8,66.8,49,69.41,49Z" style="fill:#fff"/><path d="M51.4,19.16V29.55h-.83a18.73,18.73,0,0,0-1.64-5.17,6.81,6.81,0,0,0-2.47-2.51,6.58,6.58,0,0,0-3.07-.51H41.05V51a14.74,14.74,0,0,0,.27,3.68,2.74,2.74,0,0,0,1,1.29,3.57,3.57,0,0,0,2.11.55h1v1H29.12v-1h1a3.69,3.69,0,0,0,2.19-.59,2.63,2.63,0,0,0,.95-1.36A14.23,14.23,0,0,0,33.55,51V21.37H31.29q-3.16,0-4.59,1.64a12,12,0,0,0-2.54,6.54h-.88V19.16Z"/><path d="M20,6c0,1.38-1.46,2-4.5,2S10,6.88,10,5.5,14,3,17,3,20,4.62,20,6Z" style="fill:#fff"/></svg>