<svg xmlns="http://www.w3.org/2000/svg" viewBox="0 0 137.04 87.04"><title>資產 12</title><rect x="8.71" y="10.33" width="68" height="68" transform="translate(-11.43 15.04) rotate(-17.65)" style="fill:#ff6"/><polygon points="136.71 68.33 66.71 72.33 65.71 4.33 133.32 1 136.71 68.33" style="fill:#666"/><rect x="67.71" y="1.33" width="68" height="68" transform="translate(-1.33 4.09) rotate(-2.29)" style="fill:#ff6"/><path d="M47.46,62.09a10.45,10.45,0,0,0-1.37.63l-.42.15-1.31.52a1.16,1.16,0,0,0-.49.19L42.61,64l-.42.13-.49.12,1-.63a1.06,1.06,0,0,0,.47-.26,9.87,9.87,0,0,0,1.55-1,1.68,1.68,0,0,0,.54-.35A10.14,10.14,0,0,0,47,60.67a3.58,3.58,0,0,0,.72-.64,19.64,19.64,0,0,0,3.92-5.37,11.8,11.8,0,0,0,1.3-4.75,2.08,2.08,0,0,0,0-.75,7.61,7.61,0,0,0-.06-1.84l-.09-.61a5.59,5.59,0,0,0-.31-1.38.88.88,0,0,0-.13-.42A5.16,5.16,0,0,0,52,43.72l-.19-.38a3.87,3.87,0,0,0-.56-1c-.05-.11-.08-.24-.2-.3a3.77,3.77,0,0,0-.58-.83L50.23,41a3.18,3.18,0,0,0-.73-.78.46.46,0,0,0-.23-.21,2.66,2.66,0,0,0-.74-.61.94.94,0,0,0-.38-.27,2.22,2.22,0,0,0-.68-.41.7.7,0,0,0-.34-.18,2.06,2.06,0,0,0-.72-.32A1,1,0,0,0,46,38a2.65,2.65,0,0,0-.92-.23.23.23,0,0,0-.23,0,3,3,0,0,0-1.11-.12l-.39,0a4.49,4.49,0,0,0-1.08.07l-.44.06a4.17,4.17,0,0,0-1.12.29.83.83,0,0,0-.5.17,4.56,4.56,0,0,0-1.37.64,1.41,1.41,0,0,0-.54.33,7.11,7.11,0,0,0-1.83,1.53,10.1,10.1,0,0,0-1.87,2.52c-.35.62-.35.62.34.81a4.13,4.13,0,0,0,.92.29l.15.06a4.51,4.51,0,0,0,1,.32.83.83,0,0,0,.42.14,2.5,2.5,0,0,0,.71.23,1,1,0,0,0,.43.14l.75.3.2.13a4.52,4.52,0,0,1,.64.81l.14.42a2.42,2.42,0,0,1-1.33,2.57,2.51,2.51,0,0,0-.6.44,15.22,15.22,0,0,0-1.66,1.19l-.6.4L34.4,52.71a1.57,1.57,0,0,0-.52.37,16.5,16.5,0,0,0-1.66,1.19,2.55,2.55,0,0,0-.6.42A17.18,17.18,0,0,0,30,55.88a1.57,1.57,0,0,0-.53.36l-1.66,1.18-.48.24a5.24,5.24,0,0,1-1.13.2h-.22l-1-.22-.34-.16-.79-.6-.13-.15-.54-.92L23,55.4l-.39-1.26-.14-.42-.39-1.26L22,52l-.39-1.26-.14-.42L21,49.09l-.14-.42-.39-1.26L20.37,47,20,45.73l-.14-.42L19.44,44l-.14-.42-.39-1.26-.13-.42a2.26,2.26,0,0,1,1.15-2.23l.42-.15a3.11,3.11,0,0,1,1.1,0l.16,0a3.41,3.41,0,0,0,.84.28,1,1,0,0,0,.44.15,3.33,3.33,0,0,0,.83.28l.42.14a2.67,2.67,0,0,0,.71.24,1,1,0,0,0,.43.14c.18.07.34.25.5-.05a26.72,26.72,0,0,1,3-4.57l.82-.88,2-1.86.58-.42,1.54-1,.54-.33,1.43-.73.48-.18,1.25-.48.42-.13,1.18-.34a.82.82,0,0,0,.44-.08l1.13-.2.44-.06,1.09-.1a.5.5,0,0,0,.36,0,3.69,3.69,0,0,0,.9,0,1,1,0,0,0,.5,0l.95.08.22,0,1.15.19.15,0,.94.25.43.14.83.3a.63.63,0,0,0,.33.15l.74.33A.68.68,0,0,0,50,31l.77.41.33.2.8.52.25.17.65.5.34.27.74.65a.68.68,0,0,0,.28.26l.52.56.26.28.67.79a.3.3,0,0,0,.17.22l.56.84.26.39.52.93a.53.53,0,0,0,.18.31l.49,1.14a.5.5,0,0,0,.15.33l.41,1.25.13.42.28,1.41.11.5L59,45.13l0,.71-.18,2.29-.17,1.06a17.66,17.66,0,0,1-2.13,5.27,23.17,23.17,0,0,1-2,2.59l-.77.74L52,59.34a1.64,1.64,0,0,0-.53.37l-1.61,1.06a1.94,1.94,0,0,0-.54.29l-1.43.8A1,1,0,0,0,47.46,62.09Z" style="fill:#333"/><path d="M96.18,51.28a9.76,9.76,0,0,1,1.28.59l.39.14,1.23.48a1.08,1.08,0,0,1,.46.17l1.17.4.39.12.45.11-.91-.58a1,1,0,0,1-.44-.24,9.22,9.22,0,0,1-1.44-.89,1.57,1.57,0,0,1-.5-.33,9.46,9.46,0,0,1-1.66-1.3,3.34,3.34,0,0,1-.67-.6,18.34,18.34,0,0,1-3.66-5,11,11,0,0,1-1.21-4.43,1.94,1.94,0,0,1,0-.7,7.1,7.1,0,0,1,.06-1.72l.08-.57a5.22,5.22,0,0,1,.29-1.29.82.82,0,0,1,.12-.39,4.82,4.82,0,0,1,.39-1.1l.18-.36a3.61,3.61,0,0,1,.53-1c0-.1.07-.22.18-.28a3.52,3.52,0,0,1,.54-.77l.19-.21a3,3,0,0,1,.68-.73.43.43,0,0,1,.22-.2,2.48,2.48,0,0,1,.69-.57.88.88,0,0,1,.35-.25,2.07,2.07,0,0,1,.63-.39.66.66,0,0,1,.32-.17,1.93,1.93,0,0,1,.68-.3.93.93,0,0,1,.41-.14,2.47,2.47,0,0,1,.86-.21.22.22,0,0,1,.22,0,2.78,2.78,0,0,1,1-.11l.36,0a4.19,4.19,0,0,1,1,.07l.41.06a3.9,3.9,0,0,1,1.05.27A.77.77,0,0,1,103,29a4.26,4.26,0,0,1,1.28.6,1.32,1.32,0,0,1,.51.3,6.64,6.64,0,0,1,1.71,1.43,9.43,9.43,0,0,1,1.75,2.35c.33.58.33.58-.31.75a3.85,3.85,0,0,1-.86.28l-.14.05a4.21,4.21,0,0,1-.92.3.77.77,0,0,1-.39.13,2.34,2.34,0,0,1-.66.22.89.89,0,0,1-.4.13l-.7.28-.19.12a4.22,4.22,0,0,0-.6.76l-.13.39a2.26,2.26,0,0,0,1.24,2.4,2.34,2.34,0,0,1,.56.41A14.21,14.21,0,0,1,106.26,41l.56.38,1.56,1.14a1.47,1.47,0,0,1,.49.34A15.4,15.4,0,0,1,110.42,44a2.38,2.38,0,0,1,.56.39,16,16,0,0,1,1.55,1.12,1.47,1.47,0,0,1,.5.34l1.55,1.1.45.22a4.89,4.89,0,0,0,1.05.19h.2l.9-.2.31-.15.74-.56.12-.14.5-.86L119,45l.37-1.18.13-.39.37-1.18.13-.39.37-1.18.13-.39.37-1.18.13-.39.37-1.18.13-.39.37-1.18.13-.39.37-1.18.13-.39.37-1.18.12-.4a2.11,2.11,0,0,0-1.07-2.08l-.39-.14a2.9,2.9,0,0,0-1,0l-.15,0a3.19,3.19,0,0,1-.79.26.93.93,0,0,1-.41.14,3.11,3.11,0,0,1-.77.26l-.4.13a2.49,2.49,0,0,1-.67.22.88.88,0,0,1-.4.13c-.16.07-.32.23-.46-.05a24.94,24.94,0,0,0-2.84-4.27l-.77-.82-1.88-1.73-.54-.39-1.44-1-.51-.31-1.34-.69-.45-.17-1.17-.45-.4-.12-1.1-.32a.76.76,0,0,1-.41-.08l-1.05-.19-.41-.06-1-.09a.47.47,0,0,1-.34,0,3.44,3.44,0,0,1-.84,0,1,1,0,0,1-.46,0l-.89.07-.21,0L97.31,21l-.14,0-.88.23-.4.13-.78.28a.58.58,0,0,1-.31.14l-.7.31a.63.63,0,0,1-.31.16l-.72.38-.31.18-.75.48-.23.16-.61.47-.32.25-.69.61a.63.63,0,0,1-.26.24l-.48.52-.25.27-.63.74a.28.28,0,0,1-.16.21l-.52.78-.24.37-.49.87a.5.5,0,0,1-.17.29l-.45,1.06a.47.47,0,0,1-.14.31L86,31.64l-.12.39-.27,1.31-.1.47-.12,1.62,0,.66.17,2.13.16,1a16.49,16.49,0,0,0,2,4.92,21.64,21.64,0,0,0,1.82,2.42l.72.69,1.72,1.45a1.53,1.53,0,0,1,.49.34l1.5,1a1.81,1.81,0,0,1,.5.27l1.33.74A.92.92,0,0,1,96.18,51.28Z" style="fill:#333"/></svg>